<svg xmlns="http://www.w3.org/2000/svg" width="904.484" height="587.383" viewBox="0 0 904.484 587.383">
  <g id="Group_514" data-name="Group 514" transform="translate(-1042.516 -7753.494)">
    <g id="Group_507" data-name="Group 507" transform="translate(1763.655 8217.396)">
      <g id="Group_215" data-name="Group 215">
        <g id="Group_214" data-name="Group 214" style="isolation: isolate">
          <g id="Group_211" data-name="Group 211" transform="translate(19.195 10.442)">
            <path id="Path_173" data-name="Path 173" d="M533.711,580.813l-.057,30.472-28.232,3.968.057-30.472Z" transform="translate(-505.423 -580.813)" fill="#3ba428"/>
          </g>
          <g id="Group_212" data-name="Group 212" transform="translate(0 3.968)">
            <path id="Path_174" data-name="Path 174" d="M515.5,618.652l-19.2-10.442.057-30.472,19.2,10.442Z" transform="translate(-496.305 -577.738)" fill="#318921"/>
          </g>
          <g id="Group_213" data-name="Group 213" transform="translate(0.057)">
            <path id="Path_175" data-name="Path 175" d="M515.528,590.263l-19.2-10.442,28.232-3.968,19.2,10.442Z" transform="translate(-496.332 -575.853)" fill="#379825"/>
          </g>
        </g>
      </g>
    </g>
    <g id="Group_500" data-name="Group 500" transform="translate(1090 8068.396)">
      <g id="Group_215-2" data-name="Group 215">
        <g id="Group_214-2" data-name="Group 214" style="isolation: isolate">
          <g id="Group_211-2" data-name="Group 211" transform="translate(19.195 10.442)">
            <path id="Path_173-2" data-name="Path 173" d="M533.711,580.813l-.057,30.472-28.232,3.968.057-30.472Z" transform="translate(-505.423 -580.813)" fill="#3ba428"/>
          </g>
          <g id="Group_212-2" data-name="Group 212" transform="translate(0 3.968)">
            <path id="Path_174-2" data-name="Path 174" d="M515.5,618.652l-19.2-10.442.057-30.472,19.2,10.442Z" transform="translate(-496.305 -577.738)" fill="#318921"/>
          </g>
          <g id="Group_213-2" data-name="Group 213" transform="translate(0.057)">
            <path id="Path_175-2" data-name="Path 175" d="M515.528,590.263l-19.2-10.442,28.232-3.968,19.2,10.442Z" transform="translate(-496.332 -575.853)" fill="#379825"/>
          </g>
        </g>
      </g>
    </g>
    <g id="Group_503" data-name="Group 503" transform="translate(1526.515 8199.68)">
      <g id="Group_221" data-name="Group 221">
        <g id="Group_220" data-name="Group 220" style="isolation: isolate">
          <g id="Group_217" data-name="Group 217" transform="translate(19.195 10.442)">
            <path id="Path_176" data-name="Path 176" d="M421.076,572.4l-.057,30.472-28.232,3.968.057-30.472Z" transform="translate(-392.788 -572.398)" fill="#a01885"/>
          </g>
          <g id="Group_218" data-name="Group 218" transform="translate(0 3.968)">
            <path id="Path_177" data-name="Path 177" d="M402.866,610.237l-19.2-10.442.057-30.472,19.2,10.442Z" transform="translate(-383.67 -569.323)" fill="#85146f"/>
          </g>
          <g id="Group_219" data-name="Group 219" transform="translate(0.057)">
            <path id="Path_178" data-name="Path 178" d="M402.893,581.848l-19.2-10.442,28.232-3.968,19.2,10.442Z" transform="translate(-383.697 -567.438)" fill="#94167b"/>
          </g>
        </g>
      </g>
    </g>
    <g id="Group_508" data-name="Group 508" transform="translate(1750.296 8120.494)">
      <g id="Group_233" data-name="Group 233">
        <g id="Group_232" data-name="Group 232" style="isolation: isolate">
          <g id="Group_229" data-name="Group 229" transform="translate(19.195 10.442)">
            <path id="Path_182" data-name="Path 182" d="M527.366,534.787l-.057,30.472-28.232,3.968.057-30.472Z" transform="translate(-499.078 -534.787)" fill="#007bbf"/>
          </g>
          <g id="Group_230" data-name="Group 230" transform="translate(0 3.968)">
            <path id="Path_183" data-name="Path 183" d="M509.156,572.626l-19.2-10.442.057-30.472,19.2,10.442Z" transform="translate(-489.96 -531.712)" fill="#00669f"/>
          </g>
          <g id="Group_231" data-name="Group 231" transform="translate(0.057)">
            <path id="Path_184" data-name="Path 184" d="M509.183,544.237l-19.2-10.442,28.232-3.968,19.2,10.442Z" transform="translate(-489.987 -529.827)" fill="#0071b0"/>
          </g>
        </g>
      </g>
    </g>
    <g id="Group_504" data-name="Group 504" transform="translate(1517.249 8101.318)">
      <g id="Group_245" data-name="Group 245">
        <g id="Group_244" data-name="Group 244" style="isolation: isolate">
          <g id="Group_241" data-name="Group 241" transform="translate(19.195 10.442)">
            <path id="Path_188" data-name="Path 188" d="M416.675,525.679l-.057,30.472-28.232,3.968.057-30.472Z" transform="translate(-388.387 -525.679)" fill="#001581"/>
          </g>
          <g id="Group_242" data-name="Group 242" transform="translate(0 3.968)">
            <path id="Path_189" data-name="Path 189" d="M398.465,563.518l-19.2-10.442.057-30.472,19.2,10.442Z" transform="translate(-379.269 -522.604)" fill="#00116c"/>
          </g>
          <g id="Group_243" data-name="Group 243" transform="translate(0.057)">
            <path id="Path_190" data-name="Path 190" d="M398.492,535.129l-19.2-10.442,28.232-3.968,19.2,10.442Z" transform="translate(-379.296 -520.719)" fill="#001377"/>
          </g>
        </g>
      </g>
    </g>
    <g id="Group_505" data-name="Group 505" transform="translate(1366 7868.854)">
      <g id="Group_251" data-name="Group 251">
        <g id="Group_250" data-name="Group 250" style="isolation: isolate">
          <g id="Group_247" data-name="Group 247" transform="translate(19.195 10.442)">
            <path id="Path_191" data-name="Path 191" d="M350.813,579.13l-.057,30.472-28.232,3.968.057-30.472Z" transform="translate(-322.524 -579.13)" fill="#f15416"/>
          </g>
          <g id="Group_248" data-name="Group 248" transform="translate(0 3.968)">
            <path id="Path_192" data-name="Path 192" d="M332.6,616.969l-19.2-10.442.057-30.472,19.2,10.442Z" transform="translate(-313.407 -576.055)" fill="#c84612"/>
          </g>
          <g id="Group_249" data-name="Group 249" transform="translate(0.057)">
            <path id="Path_193" data-name="Path 193" d="M332.63,588.58l-19.2-10.442,28.232-3.968,19.2,10.442Z" transform="translate(-313.434 -574.17)" fill="#de4e14"/>
          </g>
        </g>
      </g>
    </g>
    <g id="Group_511" data-name="Group 511" transform="translate(1899.516 8045.645)">
      <g id="Group_257" data-name="Group 257">
        <g id="Group_256" data-name="Group 256" style="isolation: isolate">
          <g id="Group_253" data-name="Group 253" transform="translate(19.195 10.442)">
            <path id="Path_194" data-name="Path 194" d="M470.639,492.586l-.057,30.472-28.232,3.968.057-30.472Z" transform="translate(-442.351 -492.586)" fill="#f15416"/>
          </g>
          <g id="Group_254" data-name="Group 254" transform="translate(0 3.968)">
            <path id="Path_195" data-name="Path 195" d="M452.429,530.425l-19.2-10.442.057-30.472,19.2,10.442Z" transform="translate(-433.233 -489.511)" fill="#c84612"/>
          </g>
          <g id="Group_255" data-name="Group 255" transform="translate(0.057)">
            <path id="Path_196" data-name="Path 196" d="M452.456,502.036l-19.2-10.442,28.232-3.968,19.2,10.442Z" transform="translate(-433.26 -487.626)" fill="#de4e14"/>
          </g>
        </g>
      </g>
    </g>
    <g id="Group_502" data-name="Group 502" transform="translate(1158.515 8292.68)">
      <g id="Group_221-2" data-name="Group 221">
        <g id="Group_220-2" data-name="Group 220" style="isolation: isolate">
          <g id="Group_217-2" data-name="Group 217" transform="translate(19.195 10.442)">
            <path id="Path_176-2" data-name="Path 176" d="M421.076,572.4l-.057,30.472-28.232,3.968.057-30.472Z" transform="translate(-392.788 -572.398)" fill="#a01885"/>
          </g>
          <g id="Group_218-2" data-name="Group 218" transform="translate(0 3.968)">
            <path id="Path_177-2" data-name="Path 177" d="M402.866,610.237l-19.2-10.442.057-30.472,19.2,10.442Z" transform="translate(-383.67 -569.323)" fill="#85146f"/>
          </g>
          <g id="Group_219-2" data-name="Group 219" transform="translate(0.057)">
            <path id="Path_178-2" data-name="Path 178" d="M402.893,581.848l-19.2-10.442,28.232-3.968,19.2,10.442Z" transform="translate(-383.697 -567.438)" fill="#94167b"/>
          </g>
        </g>
      </g>
    </g>
    <g id="Group_506" data-name="Group 506" transform="translate(1623.398 8292.376)">
      <g id="Group_227" data-name="Group 227">
        <g id="Group_226" data-name="Group 226" style="isolation: isolate">
          <g id="Group_223" data-name="Group 223" transform="translate(19.195 10.442)">
            <path id="Path_179" data-name="Path 179" d="M467.093,616.426l-.057,30.472L438.8,650.865l.057-30.472Z" transform="translate(-438.805 -616.426)" fill="#ebb300"/>
          </g>
          <g id="Group_224" data-name="Group 224" transform="translate(0 3.968)">
            <path id="Path_180" data-name="Path 180" d="M448.883,654.265l-19.2-10.442.057-30.472,19.2,10.442Z" transform="translate(-429.687 -613.351)" fill="#c39500"/>
          </g>
          <g id="Group_225" data-name="Group 225" transform="translate(0.057)">
            <path id="Path_181" data-name="Path 181" d="M448.91,625.876l-19.2-10.442,28.232-3.968,19.2,10.442Z" transform="translate(-429.714 -611.466)" fill="#d9a500"/>
          </g>
        </g>
      </g>
    </g>
    <g id="Group_509" data-name="Group 509" transform="translate(1828.516 8295.995)">
      <g id="Group_239" data-name="Group 239">
        <g id="Group_238" data-name="Group 238" style="isolation: isolate">
          <g id="Group_235" data-name="Group 235" transform="translate(19.195 10.442)">
            <path id="Path_185" data-name="Path 185" d="M564.518,618.145l-.057,30.472-28.232,3.968.057-30.472Z" transform="translate(-536.229 -618.145)" fill="#db1b25"/>
          </g>
          <g id="Group_236" data-name="Group 236" transform="translate(0 3.968)">
            <path id="Path_186" data-name="Path 186" d="M546.308,655.984l-19.2-10.442.057-30.472,19.2,10.442Z" transform="translate(-527.112 -615.07)" fill="#b6171f"/>
          </g>
          <g id="Group_237" data-name="Group 237" transform="translate(0.057)">
            <path id="Path_187" data-name="Path 187" d="M546.335,627.6l-19.2-10.442,28.232-3.968,19.2,10.442Z" transform="translate(-527.139 -613.185)" fill="#ca1922"/>
          </g>
        </g>
      </g>
    </g>
    <g id="Group_501" data-name="Group 501" transform="translate(1042.516 8221.376)">
      <g id="Group_227-2" data-name="Group 227">
        <g id="Group_226-2" data-name="Group 226" style="isolation: isolate">
          <g id="Group_223-2" data-name="Group 223" transform="translate(19.195 10.442)">
            <path id="Path_179-2" data-name="Path 179" d="M467.093,616.426l-.057,30.472L438.8,650.865l.057-30.472Z" transform="translate(-438.805 -616.426)" fill="#ebb300"/>
          </g>
          <g id="Group_224-2" data-name="Group 224" transform="translate(0 3.968)">
            <path id="Path_180-2" data-name="Path 180" d="M448.883,654.265l-19.2-10.442.057-30.472,19.2,10.442Z" transform="translate(-429.687 -613.351)" fill="#c39500"/>
          </g>
          <g id="Group_225-2" data-name="Group 225" transform="translate(0.057)">
            <path id="Path_181-2" data-name="Path 181" d="M448.91,625.876l-19.2-10.442,28.232-3.968,19.2,10.442Z" transform="translate(-429.714 -611.466)" fill="#d9a500"/>
          </g>
        </g>
      </g>
    </g>
    <g id="Group_510" data-name="Group 510" transform="translate(1832 7753.494)">
      <g id="Group_233-2" data-name="Group 233">
        <g id="Group_232-2" data-name="Group 232" style="isolation: isolate">
          <g id="Group_229-2" data-name="Group 229" transform="translate(19.195 10.442)">
            <path id="Path_182-2" data-name="Path 182" d="M527.366,534.787l-.057,30.472-28.232,3.968.057-30.472Z" transform="translate(-499.078 -534.787)" fill="#007bbf"/>
          </g>
          <g id="Group_230-2" data-name="Group 230" transform="translate(0 3.968)">
            <path id="Path_183-2" data-name="Path 183" d="M509.156,572.626l-19.2-10.442.057-30.472,19.2,10.442Z" transform="translate(-489.96 -531.712)" fill="#00669f"/>
          </g>
          <g id="Group_231-2" data-name="Group 231" transform="translate(0.057)">
            <path id="Path_184-2" data-name="Path 184" d="M509.183,544.237l-19.2-10.442,28.232-3.968,19.2,10.442Z" transform="translate(-489.987 -529.827)" fill="#0071b0"/>
          </g>
        </g>
      </g>
    </g>
  </g>
</svg>
