<?xml version="1.0" encoding="utf-8"?>
<!-- Generator: Adobe Illustrator 24.1.2, SVG Export Plug-In . SVG Version: 6.00 Build 0)  -->
<svg version="1.1" id="Слой_1" xmlns="http://www.w3.org/2000/svg" xmlns:xlink="http://www.w3.org/1999/xlink" x="0px" y="0px"
	 viewBox="0 0 181.4 380.2" style="enable-background:new 0 0 181.4 380.2;" xml:space="preserve">
<style type="text/css">
	.st0{fill:#CFCFCF;}
	.st1{fill:#ACACAC;}
	.st2{fill:#BFBFBF;}
	.st3{fill:#757575;}
	.st4{fill:#616161;}
	.st5{fill:#6C6C6C;}
	.st6{fill:#4C4C4C;}
	.st7{fill:#404040;}
	.st8{fill:#474747;}
	.st9{fill:#454545;}
	.st10{fill:#393939;}
	.st11{fill:#C7C7C7;}
	.st12{fill:#A6A6A6;}
	.st13{fill:#B8B8B8;}
	.st14{fill:#181818;}
	.st15{fill:#141414;}
	.st16{fill:#161616;}
	.st17{fill:#929292;}
	.st18{fill:#7A7A7A;}
	.st19{fill:#878787;}
	.st20{fill:#BBBBBB;}
	.st21{fill:#9B9B9B;}
</style>
<g>
	<g>
		<g>
			<polygon class="st0" points="181.4,180.4 181.3,201.3 162,204 162,183.1 			"/>
			<polygon class="st1" points="162,204 148.8,196.8 148.9,176 162,183.1 			"/>
			<polygon class="st2" points="162,183.1 148.9,176 168.2,173.2 181.4,180.4 			"/>
		</g>
		<g>
			<polygon class="st3" points="181.4,158.9 181.3,179.8 162,182.5 162,161.6 			"/>
			<polygon class="st4" points="162,182.5 148.8,175.3 148.9,154.5 162,161.6 			"/>
			<polygon class="st5" points="162,161.6 148.9,154.5 168.2,151.7 181.4,158.9 			"/>
		</g>
		<g>
			<polygon class="st6" points="181.4,137.4 181.3,158.3 162,161 162,140.1 			"/>
			<polygon class="st7" points="162,161 148.8,153.8 148.9,133 162,140.1 			"/>
			<polygon class="st8" points="162,140.1 148.9,133 168.2,130.2 181.4,137.4 			"/>
		</g>
		<g>
			<polygon class="st3" points="181.4,115.9 181.3,136.8 162,139.5 162,118.6 			"/>
			<polygon class="st4" points="162,139.5 148.8,132.3 148.9,111.5 162,118.6 			"/>
			<polygon class="st5" points="162,118.6 148.9,111.5 168.2,108.7 181.4,115.9 			"/>
		</g>
		<g>
			<polygon class="st9" points="181.4,94.4 181.3,115.3 162,118 162,97.1 			"/>
			<polygon class="st10" points="162,118 148.8,110.8 148.9,90 162,97.1 			"/>
			<polygon class="st7" points="162,97.1 148.9,90 168.2,87.2 181.4,94.4 			"/>
		</g>
		<g>
			<polygon class="st11" points="181.4,72.9 181.3,93.8 162,96.5 162,75.6 			"/>
			<polygon class="st12" points="162,96.5 148.8,89.3 148.9,68.4 162,75.6 			"/>
			<polygon class="st13" points="162,75.6 148.9,68.4 168.2,65.7 181.4,72.9 			"/>
		</g>
		<g>
			<polygon class="st3" points="181.4,51.4 181.3,72.3 162,75 162,54.1 			"/>
			<polygon class="st4" points="162,75 148.8,67.8 148.9,46.9 162,54.1 			"/>
			<polygon class="st5" points="162,54.1 148.9,46.9 168.2,44.2 181.4,51.4 			"/>
		</g>
		<g>
			<polygon class="st3" points="181.4,29.9 181.3,50.7 162,53.5 162,32.6 			"/>
			<polygon class="st4" points="162,53.5 148.8,46.3 148.9,25.4 162,32.6 			"/>
			<polygon class="st5" points="162,32.6 148.9,25.4 168.2,22.7 181.4,29.9 			"/>
		</g>
		<g>
			<polygon class="st14" points="181.4,8.4 181.3,29.3 162,32 162,11.1 			"/>
			<polygon class="st15" points="162,32 148.8,24.8 148.9,3.9 162,11.1 			"/>
			<polygon class="st16" points="162,11.1 148.9,3.9 168.2,1.2 181.4,8.4 			"/>
		</g>
		<g>
			<polygon class="st3" points="155.1,179.2 155,200.1 135.7,202.8 135.7,181.9 			"/>
			<polygon class="st4" points="135.7,202.8 122.5,195.6 122.6,174.7 135.7,181.9 			"/>
			<polygon class="st5" points="135.7,181.9 122.6,174.7 141.9,172 155.1,179.2 			"/>
		</g>
		<g>
			<polygon class="st0" points="155.1,157.7 155,178.6 135.7,181.3 135.7,160.4 			"/>
			<polygon class="st1" points="135.7,181.3 122.5,174.1 122.6,153.2 135.7,160.4 			"/>
			<polygon class="st2" points="135.7,160.4 122.6,153.2 141.9,150.5 155.1,157.7 			"/>
		</g>
		<g>
			<polygon class="st3" points="155.1,136.2 155,157 135.7,159.8 135.7,138.9 			"/>
			<polygon class="st4" points="135.7,159.8 122.5,152.6 122.6,131.7 135.7,138.9 			"/>
			<polygon class="st5" points="135.7,138.9 122.6,131.7 141.9,129 155.1,136.2 			"/>
		</g>
		<g>
			<polygon class="st6" points="155.1,114.7 155,135.5 135.7,138.3 135.7,117.4 			"/>
			<polygon class="st7" points="135.7,138.3 122.5,131.1 122.6,110.2 135.7,117.4 			"/>
			<polygon class="st8" points="135.7,117.4 122.6,110.2 141.9,107.5 155.1,114.7 			"/>
		</g>
		<g>
			<polygon class="st3" points="155.1,93.2 155,114 135.7,116.8 135.7,95.9 			"/>
			<polygon class="st4" points="135.7,116.8 122.5,109.6 122.6,88.7 135.7,95.9 			"/>
			<polygon class="st5" points="135.7,95.9 122.6,88.7 141.9,86 155.1,93.2 			"/>
		</g>
		<g>
			<polygon class="st17" points="155.1,71.7 155,92.6 135.7,95.3 135.7,74.4 			"/>
			<polygon class="st18" points="135.7,95.3 122.5,88.1 122.6,67.2 135.7,74.4 			"/>
			<polygon class="st19" points="135.7,74.4 122.6,67.2 141.9,64.5 155.1,71.7 			"/>
		</g>
		<g>
			<polygon class="st3" points="155.1,50.2 155,71 135.7,73.8 135.7,52.9 			"/>
			<polygon class="st4" points="135.7,73.8 122.5,66.6 122.6,45.7 135.7,52.9 			"/>
			<polygon class="st5" points="135.7,52.9 122.6,45.7 141.9,43 155.1,50.2 			"/>
		</g>
		<g>
			<polygon class="st20" points="155.1,28.7 155,49.5 135.7,52.2 135.7,31.4 			"/>
			<polygon class="st21" points="135.7,52.2 122.5,45.1 122.6,24.2 135.7,31.4 			"/>
			<polygon class="st1" points="135.7,31.4 122.6,24.2 141.9,21.5 155.1,28.7 			"/>
		</g>
		<g>
			<polygon class="st3" points="155.1,7.2 155,28 135.7,30.8 135.7,9.9 			"/>
			<polygon class="st4" points="135.7,30.8 122.5,23.6 122.6,2.7 135.7,9.9 			"/>
			<polygon class="st5" points="135.7,9.9 122.6,2.7 141.9,0 155.1,7.2 			"/>
		</g>
	</g>
	<g>
		<g>
			<polygon class="st0" points="142.9,235.1 142.9,255.9 123.6,258.7 123.6,237.8 			"/>
			<polygon class="st1" points="123.6,258.7 110.5,251.5 110.5,230.7 123.6,237.8 			"/>
			<polygon class="st2" points="123.6,237.8 110.5,230.7 129.8,228 142.9,235.1 			"/>
		</g>
		<g>
			<polygon class="st3" points="142.9,213.7 142.9,234.5 123.6,237.2 123.6,216.4 			"/>
			<polygon class="st4" points="123.6,237.2 110.5,230.1 110.5,209.2 123.6,216.4 			"/>
			<polygon class="st5" points="123.6,216.4 110.5,209.2 129.8,206.5 142.9,213.7 			"/>
		</g>
		<g>
			<polygon class="st6" points="142.9,192.2 142.9,213 123.6,215.8 123.6,194.9 			"/>
			<polygon class="st7" points="123.6,215.8 110.5,208.6 110.5,187.8 123.6,194.9 			"/>
			<polygon class="st8" points="123.6,194.9 110.5,187.8 129.8,185.1 142.9,192.2 			"/>
		</g>
		<g>
			<polygon class="st3" points="142.9,170.8 142.9,191.6 123.6,194.3 123.6,173.5 			"/>
			<polygon class="st4" points="123.6,194.3 110.5,187.2 110.5,166.4 123.6,173.5 			"/>
			<polygon class="st5" points="123.6,173.5 110.5,166.4 129.8,163.6 142.9,170.8 			"/>
		</g>
		<g>
			<polygon class="st9" points="142.9,149.3 142.9,170.1 123.6,172.9 123.6,152 			"/>
			<polygon class="st10" points="123.6,172.9 110.5,165.7 110.5,144.9 123.6,152 			"/>
			<polygon class="st7" points="123.6,152 110.5,144.9 129.8,142.2 142.9,149.3 			"/>
		</g>
		<g>
			<polygon class="st3" points="116.7,233.9 116.6,254.7 97.3,257.4 97.4,236.6 			"/>
			<polygon class="st4" points="97.3,257.4 84.2,250.3 84.3,229.5 97.4,236.6 			"/>
			<polygon class="st5" points="97.4,236.6 84.3,229.5 103.6,226.8 116.7,233.9 			"/>
		</g>
		<g>
			<polygon class="st0" points="116.7,212.5 116.6,233.3 97.3,236 97.4,215.2 			"/>
			<polygon class="st1" points="97.3,236 84.2,228.9 84.3,208 97.4,215.2 			"/>
			<polygon class="st2" points="97.4,215.2 84.3,208 103.6,205.3 116.7,212.5 			"/>
		</g>
		<g>
			<polygon class="st3" points="116.7,191 116.6,211.8 97.3,214.5 97.4,193.7 			"/>
			<polygon class="st4" points="97.3,214.5 84.2,207.4 84.3,186.6 97.4,193.7 			"/>
			<polygon class="st5" points="97.4,193.7 84.3,186.6 103.6,183.9 116.7,191 			"/>
		</g>
		<g>
			<polygon class="st6" points="116.7,169.6 116.6,190.4 97.3,193.1 97.4,172.3 			"/>
			<polygon class="st7" points="97.3,193.1 84.2,186 84.3,165.1 97.4,172.3 			"/>
			<polygon class="st8" points="97.4,172.3 84.3,165.1 103.6,162.4 116.7,169.6 			"/>
		</g>
		<g>
			<polygon class="st3" points="116.7,148.1 116.6,168.9 97.3,171.6 97.4,150.8 			"/>
			<polygon class="st4" points="97.3,171.6 84.2,164.5 84.3,143.7 97.4,150.8 			"/>
			<polygon class="st5" points="97.4,150.8 84.3,143.7 103.6,141 116.7,148.1 			"/>
		</g>
	</g>
	<g>
		<g>
			<polygon class="st0" points="58.8,162.5 58.8,183.4 39.5,186.1 39.5,165.3 			"/>
			<polygon class="st1" points="39.5,186.1 26.3,179 26.3,158.1 39.5,165.3 			"/>
			<polygon class="st2" points="39.5,165.3 26.3,158.1 45.7,155.4 58.8,162.5 			"/>
		</g>
		<g>
			<polygon class="st3" points="58.8,141 58.8,161.9 39.5,164.6 39.5,143.7 			"/>
			<polygon class="st4" points="39.5,164.6 26.3,157.5 26.3,136.6 39.5,143.7 			"/>
			<polygon class="st5" points="39.5,143.7 26.3,136.6 45.7,133.9 58.8,141 			"/>
		</g>
		<g>
			<polygon class="st6" points="58.8,119.5 58.8,140.4 39.5,143.1 39.5,122.2 			"/>
			<polygon class="st7" points="39.5,143.1 26.3,136 26.3,115.1 39.5,122.2 			"/>
			<polygon class="st8" points="39.5,122.2 26.3,115.1 45.7,112.4 58.8,119.5 			"/>
		</g>
		<g>
			<polygon class="st3" points="58.8,98 58.8,118.9 39.5,121.6 39.5,100.7 			"/>
			<polygon class="st4" points="39.5,121.6 26.3,114.5 26.3,93.6 39.5,100.7 			"/>
			<polygon class="st5" points="39.5,100.7 26.3,93.6 45.7,90.9 58.8,98 			"/>
		</g>
		<g>
			<polygon class="st3" points="32.5,161.3 32.5,182.2 13.2,184.9 13.2,164 			"/>
			<polygon class="st4" points="13.2,184.9 0,177.8 0,156.9 13.2,164 			"/>
			<polygon class="st5" points="13.2,164 0,156.9 19.4,154.2 32.5,161.3 			"/>
		</g>
		<g>
			<polygon class="st0" points="32.5,139.8 32.5,160.7 13.2,163.4 13.2,142.5 			"/>
			<polygon class="st1" points="13.2,163.4 0,156.3 0,135.4 13.2,142.5 			"/>
			<polygon class="st2" points="13.2,142.5 0,135.4 19.4,132.7 32.5,139.8 			"/>
		</g>
		<g>
			<polygon class="st3" points="32.5,118.3 32.5,139.2 13.2,141.9 13.2,121 			"/>
			<polygon class="st4" points="13.2,141.9 0,134.7 0,113.9 13.2,121 			"/>
			<polygon class="st5" points="13.2,121 0,113.9 19.4,111.1 32.5,118.3 			"/>
		</g>
		<g>
			<polygon class="st6" points="32.5,96.8 32.5,117.7 13.2,120.4 13.2,99.5 			"/>
			<polygon class="st7" points="13.2,120.4 0,113.2 0,92.4 13.2,99.5 			"/>
			<polygon class="st8" points="13.2,99.5 0,92.4 19.4,89.6 32.5,96.8 			"/>
		</g>
	</g>
	<g>
		<g>
			<polygon class="st3" points="59.9,356.6 59.8,377.4 40.5,380.2 40.5,359.3 			"/>
			<polygon class="st4" points="40.5,380.2 27.3,373 27.4,352.1 40.5,359.3 			"/>
			<polygon class="st5" points="40.5,359.3 27.4,352.1 46.7,349.4 59.9,356.6 			"/>
		</g>
		<g>
			<polygon class="st0" points="59.9,335.1 59.8,356 40.5,358.7 40.5,337.8 			"/>
			<polygon class="st1" points="40.5,358.7 27.3,351.5 27.4,330.6 40.5,337.8 			"/>
			<polygon class="st2" points="40.5,337.8 27.4,330.6 46.7,327.9 59.9,335.1 			"/>
		</g>
	</g>
</g>
</svg>
