<?xml version="1.0" encoding="utf-8"?>
<!-- Generator: Adobe Illustrator 24.1.2, SVG Export Plug-In . SVG Version: 6.00 Build 0)  -->
<svg version="1.1" id="Слой_1" xmlns="http://www.w3.org/2000/svg" xmlns:xlink="http://www.w3.org/1999/xlink" x="0px" y="0px"
	 viewBox="0 0 643.5 233.1" style="enable-background:new 0 0 643.5 233.1;" xml:space="preserve">
<style type="text/css">
	.st0{fill:#3BA428;}
	.st1{fill:#318921;}
	.st2{fill:#379825;}
	.st3{fill:#A01885;}
	.st4{fill:#85146F;}
	.st5{fill:#94167B;}
	.st6{fill:#EBB300;}
	.st7{fill:#C39500;}
	.st8{fill:#D9A500;}
	.st9{fill:#007BBF;}
	.st10{fill:#00669F;}
	.st11{fill:#0071B0;}
	.st12{fill:#DB1B25;}
	.st13{fill:#B6171F;}
	.st14{fill:#CA1922;}
	.st15{fill:#001581;}
	.st16{fill:#00116C;}
	.st17{fill:#001377;}
	.st18{fill:#F15416;}
	.st19{fill:#C84612;}
	.st20{fill:#DE4E14;}
</style>
<g>
	<g>
		<polygon class="st0" points="198.3,113.3 198.2,133.4 179.7,136 179.7,115.9 		"/>
		<polygon class="st1" points="179.7,136 167.1,129.1 167.1,109.1 179.7,115.9 		"/>
		<polygon class="st2" points="179.7,115.9 167.1,109.1 185.7,106.5 198.3,113.3 		"/>
	</g>
	<g>
		<polygon class="st0" points="566.4,123.3 566.3,143.3 547.8,145.9 547.8,125.9 		"/>
		<polygon class="st1" points="547.8,145.9 535.2,139 535.3,119 547.8,125.9 		"/>
		<polygon class="st2" points="547.8,125.9 535.3,119 553.8,116.4 566.4,123.3 		"/>
	</g>
	<g>
		<polygon class="st3" points="152.3,176.6 152.3,196.3 134,198.9 134,179.1 		"/>
		<polygon class="st4" points="134,198.9 121.6,192.1 121.6,172.4 134,179.1 		"/>
		<polygon class="st5" points="134,179.1 121.6,172.4 139.9,169.8 152.3,176.6 		"/>
	</g>
	<g>
		<polygon class="st3" points="405.1,112 405.1,131.8 386.8,134.3 386.8,114.6 		"/>
		<polygon class="st4" points="386.8,134.3 374.3,127.5 374.4,107.8 386.8,114.6 		"/>
		<polygon class="st5" points="386.8,114.6 374.4,107.8 392.7,105.2 405.1,112 		"/>
	</g>
	<g>
		<polygon class="st6" points="31.5,194 31.5,214.3 12.7,216.9 12.8,196.7 		"/>
		<polygon class="st7" points="12.7,216.9 0,210 0,189.7 12.8,196.7 		"/>
		<polygon class="st8" points="12.8,196.7 0,189.7 18.8,187.1 31.5,194 		"/>
	</g>
	<g>
		<polygon class="st6" points="470.9,175.7 470.9,195.9 452.2,198.6 452.2,178.4 		"/>
		<polygon class="st7" points="452.2,198.6 439.4,191.6 439.5,171.4 452.2,178.4 		"/>
		<polygon class="st8" points="452.2,178.4 439.5,171.4 458.2,168.8 470.9,175.7 		"/>
	</g>
	<g>
		<polygon class="st9" points="326.2,219.7 326.2,233.1 307.1,233.1 307.1,222.4 		"/>
		<polygon class="st10" points="307.1,222.4 307.1,233.1 294,233.1 294.1,215.3 		"/>
		<polygon class="st11" points="307.1,222.4 294.1,215.3 313.2,212.6 326.2,219.7 		"/>
	</g>
	<g>
		<polygon class="st9" points="557.6,57.3 557.6,78 538.5,80.7 538.5,60 		"/>
		<polygon class="st10" points="538.5,80.7 525.4,73.6 525.5,52.9 538.5,60 		"/>
		<polygon class="st11" points="538.5,60 525.5,52.9 544.6,50.2 557.6,57.3 		"/>
	</g>
	<g>
		<polygon class="st12" points="611.8,178.2 611.8,198.1 593.3,200.7 593.4,180.8 		"/>
		<polygon class="st13" points="593.3,200.7 580.8,193.9 580.8,174 593.4,180.8 		"/>
		<polygon class="st14" points="593.4,180.8 580.8,174 599.3,171.4 611.8,178.2 		"/>
	</g>
	<g>
		<polygon class="st15" points="398.4,45.5 398.3,65.7 379.8,68.3 379.8,48.1 		"/>
		<polygon class="st16" points="379.8,68.3 367.2,61.4 367.2,41.2 379.8,48.1 		"/>
		<polygon class="st17" points="379.8,48.1 367.2,41.2 385.8,38.5 398.4,45.5 		"/>
	</g>
	<g>
		<polygon class="st18" points="303.4,121.9 303.3,142.1 284.7,144.7 284.7,124.5 		"/>
		<polygon class="st19" points="284.7,144.7 272,137.8 272,117.6 284.7,124.5 		"/>
		<polygon class="st20" points="284.7,124.5 272,117.6 290.7,115 303.4,121.9 		"/>
	</g>
	<g>
		<polygon class="st18" points="643.5,8.7 643.5,28.9 640.4,29.3 640.5,9.1 		"/>
		<polygon class="st19" points="640.4,29.3 627.7,22.4 627.8,2.2 640.5,9.1 		"/>
		<polygon class="st20" points="643.5,0 643.5,8.7 640.5,9.1 627.8,2.2 		"/>
	</g>
</g>
</svg>
