<svg xmlns="http://www.w3.org/2000/svg" width="111.196" height="324.381" viewBox="0 0 111.196 324.381">
  <g id="Group_512" data-name="Group 512" transform="translate(14.196 -7978.325)">
    <g id="Group_488" data-name="Group 488" transform="translate(24.785 8075.738)">
      <g id="Group_173" data-name="Group 173" style="isolation: isolate">
        <g id="Group_170" data-name="Group 170" transform="translate(19.491 10.603)">
          <path id="Path_149" data-name="Path 149" d="M2.8,346.642l-.057,30.941-28.667,4.029.057-30.941Z" transform="translate(25.928 -346.642)" fill="#cfcfcf"/>
        </g>
        <g id="Group_171" data-name="Group 171" transform="translate(0 4.029)">
          <path id="Path_150" data-name="Path 150" d="M-15.554,385.111l-19.491-10.6.057-30.941,19.491,10.6Z" transform="translate(35.045 -343.567)" fill="#acacac"/>
        </g>
        <g id="Group_172" data-name="Group 172" transform="translate(0.057)">
          <path id="Path_151" data-name="Path 151" d="M-15.527,356.314l-19.491-10.6,28.667-4.029,19.491,10.6Z" transform="translate(35.018 -341.682)" fill="#bfbfbf"/>
        </g>
      </g>
    </g>
    <g id="Group_489" data-name="Group 489" transform="translate(24.785 8043.857)">
      <g id="Group_178" data-name="Group 178" style="isolation: isolate">
        <g id="Group_175" data-name="Group 175" transform="translate(19.491 10.603)">
          <path id="Path_152" data-name="Path 152" d="M2.8,331.729,2.739,362.67-25.928,366.7l.057-30.941Z" transform="translate(25.928 -331.729)" fill="#757575"/>
        </g>
        <g id="Group_176" data-name="Group 176" transform="translate(0 4.029)">
          <path id="Path_153" data-name="Path 153" d="M-15.554,370.2l-19.491-10.6.057-30.941,19.491,10.6Z" transform="translate(35.045 -328.654)" fill="#616161"/>
        </g>
        <g id="Group_177" data-name="Group 177" transform="translate(0.057)">
          <path id="Path_154" data-name="Path 154" d="M-15.527,341.4l-19.491-10.6,28.667-4.029,19.491,10.6Z" transform="translate(35.018 -326.769)" fill="#6c6c6c"/>
        </g>
      </g>
    </g>
    <g id="Group_490" data-name="Group 490" transform="translate(24.785 8011.995)">
      <g id="Group_183" data-name="Group 183" style="isolation: isolate">
        <g id="Group_180" data-name="Group 180" transform="translate(19.491 10.603)">
          <path id="Path_155" data-name="Path 155" d="M2.8,316.825l-.057,30.941-28.667,4.029.057-30.941Z" transform="translate(25.928 -316.825)" fill="#4c4c4c"/>
        </g>
        <g id="Group_181" data-name="Group 181" transform="translate(0 4.029)">
          <path id="Path_156" data-name="Path 156" d="M-15.554,355.294l-19.491-10.6.057-30.941,19.491,10.6Z" transform="translate(35.045 -313.75)" fill="#404040"/>
        </g>
        <g id="Group_182" data-name="Group 182" transform="translate(0.057)">
          <path id="Path_157" data-name="Path 157" d="M-15.527,326.5l-19.491-10.6,28.667-4.029,19.491,10.6Z" transform="translate(35.018 -311.865)" fill="#474747"/>
        </g>
      </g>
    </g>
    <g id="Group_491" data-name="Group 491" transform="translate(24.785 7980.133)">
      <g id="Group_188" data-name="Group 188" style="isolation: isolate">
        <g id="Group_185" data-name="Group 185" transform="translate(19.491 10.603)">
          <path id="Path_158" data-name="Path 158" d="M2.8,301.921l-.057,30.941-28.667,4.029.057-30.941Z" transform="translate(25.928 -301.921)" fill="#757575"/>
        </g>
        <g id="Group_186" data-name="Group 186" transform="translate(0 4.029)">
          <path id="Path_159" data-name="Path 159" d="M-15.554,340.39l-19.491-10.6.057-30.941,19.491,10.6Z" transform="translate(35.045 -298.846)" fill="#616161"/>
        </g>
        <g id="Group_187" data-name="Group 187" transform="translate(0.057)">
          <path id="Path_160" data-name="Path 160" d="M-15.527,311.593l-19.491-10.6,28.667-4.029,19.491,10.6Z" transform="translate(35.018 -296.961)" fill="#6c6c6c"/>
        </g>
      </g>
    </g>
    <g id="Group_492" data-name="Group 492" transform="translate(48.785 8257.133)">
      <g id="Group_188-2" data-name="Group 188" style="isolation: isolate">
        <g id="Group_185-2" data-name="Group 185" transform="translate(19.491 10.603)">
          <path id="Path_158-2" data-name="Path 158" d="M2.8,301.921l-.057,30.941-28.667,4.029.057-30.941Z" transform="translate(25.928 -301.921)" fill="#757575"/>
        </g>
        <g id="Group_186-2" data-name="Group 186" transform="translate(0 4.029)">
          <path id="Path_159-2" data-name="Path 159" d="M-15.554,340.39l-19.491-10.6.057-30.941,19.491,10.6Z" transform="translate(35.045 -298.846)" fill="#616161"/>
        </g>
        <g id="Group_187-2" data-name="Group 187" transform="translate(0.057)">
          <path id="Path_160-2" data-name="Path 160" d="M-15.527,311.593l-19.491-10.6,28.667-4.029,19.491,10.6Z" transform="translate(35.018 -296.961)" fill="#6c6c6c"/>
        </g>
      </g>
    </g>
    <g id="Group_493" data-name="Group 493" transform="translate(-14.196 8073.929)">
      <g id="Group_193" data-name="Group 193" style="isolation: isolate">
        <g id="Group_190" data-name="Group 190" transform="translate(19.491 10.603)">
          <path id="Path_161" data-name="Path 161" d="M-15.437,345.8l-.057,30.941-28.667,4.029.057-30.941Z" transform="translate(44.162 -345.796)" fill="#757575"/>
        </g>
        <g id="Group_191" data-name="Group 191" transform="translate(0 4.029)">
          <path id="Path_162" data-name="Path 162" d="M-33.788,384.265l-19.491-10.6.057-30.941,19.491,10.6Z" transform="translate(53.279 -342.721)" fill="#616161"/>
        </g>
        <g id="Group_192" data-name="Group 192" transform="translate(0.057)">
          <path id="Path_163" data-name="Path 163" d="M-33.761,355.468l-19.491-10.6,28.667-4.029,19.491,10.6Z" transform="translate(53.252 -340.836)" fill="#6c6c6c"/>
        </g>
      </g>
    </g>
    <g id="Group_494" data-name="Group 494" transform="translate(-14.196 8042.049)">
      <g id="Group_198" data-name="Group 198" style="isolation: isolate">
        <g id="Group_195" data-name="Group 195" transform="translate(19.491 10.603)">
          <path id="Path_164" data-name="Path 164" d="M-15.437,330.883l-.058,30.959-28.667,4.029.058-30.959Z" transform="translate(44.162 -330.883)" fill="#cfcfcf"/>
        </g>
        <g id="Group_196" data-name="Group 196" transform="translate(0 4.029)">
          <path id="Path_165" data-name="Path 165" d="M-33.788,369.37l-19.491-10.6.057-30.959,19.491,10.6Z" transform="translate(53.279 -327.808)" fill="#acacac"/>
        </g>
        <g id="Group_197" data-name="Group 197" transform="translate(0.058)">
          <path id="Path_166" data-name="Path 166" d="M-33.761,340.555l-19.491-10.6,28.667-4.029,19.491,10.6Z" transform="translate(53.252 -325.923)" fill="#bfbfbf"/>
        </g>
      </g>
    </g>
    <g id="Group_495" data-name="Group 495" transform="translate(48.785 8224.049)">
      <g id="Group_198-2" data-name="Group 198" style="isolation: isolate">
        <g id="Group_195-2" data-name="Group 195" transform="translate(19.491 10.603)">
          <path id="Path_164-2" data-name="Path 164" d="M-15.437,330.883l-.058,30.959-28.667,4.029.058-30.959Z" transform="translate(44.162 -330.883)" fill="#cfcfcf"/>
        </g>
        <g id="Group_196-2" data-name="Group 196" transform="translate(0 4.029)">
          <path id="Path_165-2" data-name="Path 165" d="M-33.788,369.37l-19.491-10.6.057-30.959,19.491,10.6Z" transform="translate(53.279 -327.808)" fill="#acacac"/>
        </g>
        <g id="Group_197-2" data-name="Group 197" transform="translate(0.058)">
          <path id="Path_166-2" data-name="Path 166" d="M-33.761,340.555l-19.491-10.6,28.667-4.029,19.491,10.6Z" transform="translate(53.252 -325.923)" fill="#bfbfbf"/>
        </g>
      </g>
    </g>
    <g id="Group_496" data-name="Group 496" transform="translate(-14.196 8010.187)">
      <g id="Group_203" data-name="Group 203" style="isolation: isolate">
        <g id="Group_200" data-name="Group 200" transform="translate(19.491 10.603)">
          <path id="Path_167" data-name="Path 167" d="M-15.437,315.979l-.057,30.941-28.667,4.029.057-30.941Z" transform="translate(44.162 -315.979)" fill="#757575"/>
        </g>
        <g id="Group_201" data-name="Group 201" transform="translate(0 4.029)">
          <path id="Path_168" data-name="Path 168" d="M-33.788,354.448l-19.491-10.6.057-30.941,19.491,10.6Z" transform="translate(53.279 -312.904)" fill="#616161"/>
        </g>
        <g id="Group_202" data-name="Group 202" transform="translate(0.057)">
          <path id="Path_169" data-name="Path 169" d="M-33.761,325.651l-19.491-10.6,28.667-4.029,19.491,10.6Z" transform="translate(53.252 -311.019)" fill="#6c6c6c"/>
        </g>
      </g>
    </g>
    <g id="Group_497" data-name="Group 497" transform="translate(-14.196 7978.325)">
      <g id="Group_208" data-name="Group 208" style="isolation: isolate">
        <g id="Group_205" data-name="Group 205" transform="translate(19.491 10.603)">
          <path id="Path_170" data-name="Path 170" d="M-15.437,301.075l-.057,30.941-28.667,4.029L-44.1,305.1Z" transform="translate(44.162 -301.075)" fill="#4c4c4c"/>
        </g>
        <g id="Group_206" data-name="Group 206" transform="translate(0 4.029)">
          <path id="Path_171" data-name="Path 171" d="M-33.788,339.544l-19.491-10.6L-53.221,298l19.491,10.6Z" transform="translate(53.279 -298)" fill="#404040"/>
        </g>
        <g id="Group_207" data-name="Group 207" transform="translate(0.057)">
          <path id="Path_172" data-name="Path 172" d="M-33.761,310.747l-19.491-10.6,28.667-4.029,19.491,10.6Z" transform="translate(53.252 -296.115)" fill="#474747"/>
        </g>
      </g>
    </g>
  </g>
</svg>
