<svg xmlns="http://www.w3.org/2000/svg" width="186.163" height="302.314" viewBox="0 0 186.163 302.314">
  <g id="Group_513" data-name="Group 513" transform="translate(-400 -7693.843)">
    <g id="Group_469" data-name="Group 469" transform="translate(537.948 7950.584)">
      <g id="Group_33" data-name="Group 33" transform="translate(0)" style="isolation: isolate">
        <g id="Group_30" data-name="Group 30" transform="translate(19.491 10.603)">
          <path id="Path_65" data-name="Path 65" d="M75.436,342.745l-.057,30.941-28.667,4.029.057-30.941Z" transform="translate(-46.711 -342.745)" fill="#cfcfcf"/>
        </g>
        <g id="Group_31" data-name="Group 31" transform="translate(0 4.029)">
          <path id="Path_66" data-name="Path 66" d="M57.085,381.214l-19.491-10.6.057-30.941,19.491,10.6Z" transform="translate(-37.594 -339.67)" fill="#acacac"/>
        </g>
        <g id="Group_32" data-name="Group 32" transform="translate(0.057)">
          <path id="Path_67" data-name="Path 67" d="M57.112,352.417l-19.491-10.6,28.667-4.029,19.491,10.6Z" transform="translate(-37.621 -337.785)" fill="#bfbfbf"/>
        </g>
      </g>
    </g>
    <g id="Group_470" data-name="Group 470" transform="translate(537.948 7918.703)">
      <g id="Group_38" data-name="Group 38" transform="translate(0)" style="isolation: isolate">
        <g id="Group_35" data-name="Group 35" transform="translate(19.491 10.603)">
          <path id="Path_68" data-name="Path 68" d="M75.436,327.832l-.057,30.941L46.711,362.8l.057-30.941Z" transform="translate(-46.711 -327.832)" fill="#757575"/>
        </g>
        <g id="Group_36" data-name="Group 36" transform="translate(0 4.029)">
          <path id="Path_69" data-name="Path 69" d="M57.085,366.3,37.594,355.7l.057-30.941,19.491,10.6Z" transform="translate(-37.594 -324.757)" fill="#616161"/>
        </g>
        <g id="Group_37" data-name="Group 37" transform="translate(0.057)">
          <path id="Path_70" data-name="Path 70" d="M57.112,337.5,37.621,326.9l28.667-4.029,19.491,10.6Z" transform="translate(-37.621 -322.872)" fill="#6c6c6c"/>
        </g>
      </g>
    </g>
    <g id="Group_471" data-name="Group 471" transform="translate(537.948 7886.842)">
      <g id="Group_43" data-name="Group 43" transform="translate(0)" style="isolation: isolate">
        <g id="Group_40" data-name="Group 40" transform="translate(19.491 10.603)">
          <path id="Path_71" data-name="Path 71" d="M75.436,312.928l-.057,30.941L46.711,347.9l.057-30.941Z" transform="translate(-46.711 -312.928)" fill="#4c4c4c"/>
        </g>
        <g id="Group_41" data-name="Group 41" transform="translate(0 4.029)">
          <path id="Path_72" data-name="Path 72" d="M57.085,351.4l-19.491-10.6.057-30.941,19.491,10.6Z" transform="translate(-37.594 -309.853)" fill="#404040"/>
        </g>
        <g id="Group_42" data-name="Group 42" transform="translate(0.057)">
          <path id="Path_73" data-name="Path 73" d="M57.112,322.6,37.621,312l28.667-4.029,19.491,10.6Z" transform="translate(-37.621 -307.968)" fill="#474747"/>
        </g>
      </g>
    </g>
    <g id="Group_472" data-name="Group 472" transform="translate(537.948 7854.98)">
      <g id="Group_48" data-name="Group 48" transform="translate(0)" style="isolation: isolate">
        <g id="Group_45" data-name="Group 45" transform="translate(19.491 10.603)">
          <path id="Path_74" data-name="Path 74" d="M75.436,298.024l-.057,30.941-28.667,4.029.057-30.941Z" transform="translate(-46.711 -298.024)" fill="#757575"/>
        </g>
        <g id="Group_46" data-name="Group 46" transform="translate(0 4.029)">
          <path id="Path_75" data-name="Path 75" d="M57.085,336.493l-19.491-10.6.057-30.941,19.491,10.6Z" transform="translate(-37.594 -294.949)" fill="#616161"/>
        </g>
        <g id="Group_47" data-name="Group 47" transform="translate(0.057)">
          <path id="Path_76" data-name="Path 76" d="M57.112,307.7l-19.491-10.6,28.667-4.029,19.491,10.6Z" transform="translate(-37.621 -293.064)" fill="#6c6c6c"/>
        </g>
      </g>
    </g>
    <g id="Group_473" data-name="Group 473" transform="translate(537.948 7823.118)">
      <g id="Group_53" data-name="Group 53" transform="translate(0)" style="isolation: isolate">
        <g id="Group_50" data-name="Group 50" transform="translate(19.491 10.603)">
          <path id="Path_77" data-name="Path 77" d="M75.436,283.12l-.057,30.941L46.711,318.09l.057-30.941Z" transform="translate(-46.711 -283.12)" fill="#454545"/>
        </g>
        <g id="Group_51" data-name="Group 51" transform="translate(0 4.029)">
          <path id="Path_78" data-name="Path 78" d="M57.085,321.589l-19.491-10.6.057-30.941,19.491,10.6Z" transform="translate(-37.594 -280.045)" fill="#393939"/>
        </g>
        <g id="Group_52" data-name="Group 52" transform="translate(0.057)">
          <path id="Path_79" data-name="Path 79" d="M57.112,292.792l-19.491-10.6,28.667-4.029,19.491,10.6Z" transform="translate(-37.621 -278.16)" fill="#404040"/>
        </g>
      </g>
    </g>
    <g id="Group_474" data-name="Group 474" transform="translate(537.948 7791.237)">
      <g id="Group_58" data-name="Group 58" transform="translate(0)" style="isolation: isolate">
        <g id="Group_55" data-name="Group 55" transform="translate(19.491 10.603)">
          <path id="Path_80" data-name="Path 80" d="M75.436,268.207l-.057,30.941-28.667,4.029.057-30.941Z" transform="translate(-46.711 -268.207)" fill="#c7c7c7"/>
        </g>
        <g id="Group_56" data-name="Group 56" transform="translate(0 4.029)">
          <path id="Path_81" data-name="Path 81" d="M57.085,306.676l-19.491-10.6.057-30.941,19.491,10.6Z" transform="translate(-37.594 -265.132)" fill="#a6a6a6"/>
        </g>
        <g id="Group_57" data-name="Group 57" transform="translate(0.057)">
          <path id="Path_82" data-name="Path 82" d="M57.112,277.879l-19.491-10.6,28.667-4.029,19.491,10.6Z" transform="translate(-37.621 -263.247)" fill="#b8b8b8"/>
        </g>
      </g>
    </g>
    <g id="Group_475" data-name="Group 475" transform="translate(537.948 7759.375)">
      <g id="Group_63" data-name="Group 63" transform="translate(0)" style="isolation: isolate">
        <g id="Group_60" data-name="Group 60" transform="translate(19.491 10.603)">
          <path id="Path_83" data-name="Path 83" d="M75.436,253.3l-.057,30.941-28.667,4.029.057-30.941Z" transform="translate(-46.711 -253.303)" fill="#757575"/>
        </g>
        <g id="Group_61" data-name="Group 61" transform="translate(0 4.029)">
          <path id="Path_84" data-name="Path 84" d="M57.085,291.772l-19.491-10.6.057-30.941,19.491,10.6Z" transform="translate(-37.594 -250.228)" fill="#616161"/>
        </g>
        <g id="Group_62" data-name="Group 62" transform="translate(0.057)">
          <path id="Path_85" data-name="Path 85" d="M57.112,262.975l-19.491-10.6,28.667-4.029,19.491,10.6Z" transform="translate(-37.621 -248.343)" fill="#6c6c6c"/>
        </g>
      </g>
    </g>
    <g id="Group_476" data-name="Group 476" transform="translate(537.948 7727.513)">
      <g id="Group_68" data-name="Group 68" transform="translate(0)" style="isolation: isolate">
        <g id="Group_65" data-name="Group 65" transform="translate(19.491 10.603)">
          <path id="Path_86" data-name="Path 86" d="M75.436,238.4l-.057,30.941-28.667,4.029.057-30.941Z" transform="translate(-46.711 -238.399)" fill="#757575"/>
        </g>
        <g id="Group_66" data-name="Group 66" transform="translate(0 4.029)">
          <path id="Path_87" data-name="Path 87" d="M57.085,276.868l-19.491-10.6.057-30.941,19.491,10.6Z" transform="translate(-37.594 -235.324)" fill="#616161"/>
        </g>
        <g id="Group_67" data-name="Group 67" transform="translate(0.057)">
          <path id="Path_88" data-name="Path 88" d="M57.112,248.071l-19.491-10.6,28.667-4.029,19.491,10.6Z" transform="translate(-37.621 -233.439)" fill="#6c6c6c"/>
        </g>
      </g>
    </g>
    <g id="Group_477" data-name="Group 477" transform="translate(537.948 7695.651)">
      <g id="Group_73" data-name="Group 73" transform="translate(0)" style="isolation: isolate">
        <g id="Group_70" data-name="Group 70" transform="translate(19.491 10.603)">
          <path id="Path_89" data-name="Path 89" d="M75.436,223.495l-.057,30.941-28.667,4.029.057-30.941Z" transform="translate(-46.711 -223.495)" fill="#181818"/>
        </g>
        <g id="Group_71" data-name="Group 71" transform="translate(0 4.029)">
          <path id="Path_90" data-name="Path 90" d="M57.085,261.964l-19.491-10.6.057-30.941,19.491,10.6Z" transform="translate(-37.594 -220.42)" fill="#141414"/>
        </g>
        <g id="Group_72" data-name="Group 72" transform="translate(0.057)">
          <path id="Path_91" data-name="Path 91" d="M57.112,233.167l-19.491-10.6,28.667-4.029,19.491,10.6Z" transform="translate(-37.621 -218.535)" fill="#161616"/>
        </g>
      </g>
    </g>
    <g id="Group_478" data-name="Group 478" transform="translate(498.967 7948.776)">
      <g id="Group_78" data-name="Group 78" transform="translate(0)" style="isolation: isolate">
        <g id="Group_75" data-name="Group 75" transform="translate(19.491 10.603)">
          <path id="Path_92" data-name="Path 92" d="M57.2,341.9l-.057,30.941-28.667,4.029.057-30.941Z" transform="translate(-28.477 -341.899)" fill="#757575"/>
        </g>
        <g id="Group_76" data-name="Group 76" transform="translate(0 4.029)">
          <path id="Path_93" data-name="Path 93" d="M38.851,380.368l-19.491-10.6.057-30.941,19.491,10.6Z" transform="translate(-19.36 -338.824)" fill="#616161"/>
        </g>
        <g id="Group_77" data-name="Group 77" transform="translate(0.057)">
          <path id="Path_94" data-name="Path 94" d="M38.878,351.571l-19.491-10.6,28.667-4.029,19.491,10.6Z" transform="translate(-19.387 -336.939)" fill="#6c6c6c"/>
        </g>
      </g>
    </g>
    <g id="Group_479" data-name="Group 479" transform="translate(498.967 7916.914)">
      <g id="Group_83" data-name="Group 83" transform="translate(0)" style="isolation: isolate">
        <g id="Group_80" data-name="Group 80" transform="translate(19.491 10.603)">
          <path id="Path_95" data-name="Path 95" d="M57.2,326.995l-.057,30.941-28.667,4.029.057-30.941Z" transform="translate(-28.477 -326.995)" fill="#cfcfcf"/>
        </g>
        <g id="Group_81" data-name="Group 81" transform="translate(0 4.029)">
          <path id="Path_96" data-name="Path 96" d="M38.851,365.464l-19.491-10.6.057-30.941,19.491,10.6Z" transform="translate(-19.36 -323.92)" fill="#acacac"/>
        </g>
        <g id="Group_82" data-name="Group 82" transform="translate(0.057)">
          <path id="Path_97" data-name="Path 97" d="M38.878,336.667l-19.491-10.6,28.667-4.029,19.491,10.6Z" transform="translate(-19.387 -322.035)" fill="#bfbfbf"/>
        </g>
      </g>
    </g>
    <g id="Group_480" data-name="Group 480" transform="translate(498.967 7885.033)">
      <g id="Group_88" data-name="Group 88" transform="translate(0)" style="isolation: isolate">
        <g id="Group_85" data-name="Group 85" transform="translate(19.491 10.603)">
          <path id="Path_98" data-name="Path 98" d="M57.2,312.082l-.057,30.941-28.667,4.029.057-30.941Z" transform="translate(-28.477 -312.082)" fill="#757575"/>
        </g>
        <g id="Group_86" data-name="Group 86" transform="translate(0 4.029)">
          <path id="Path_99" data-name="Path 99" d="M38.851,350.551l-19.491-10.6.057-30.941,19.491,10.6Z" transform="translate(-19.36 -309.007)" fill="#616161"/>
        </g>
        <g id="Group_87" data-name="Group 87" transform="translate(0.057)">
          <path id="Path_100" data-name="Path 100" d="M38.878,321.754l-19.491-10.6,28.667-4.029,19.491,10.6Z" transform="translate(-19.387 -307.122)" fill="#6c6c6c"/>
        </g>
      </g>
    </g>
    <g id="Group_481" data-name="Group 481" transform="translate(498.967 7853.171)">
      <g id="Group_93" data-name="Group 93" transform="translate(0)" style="isolation: isolate">
        <g id="Group_90" data-name="Group 90" transform="translate(19.491 10.603)">
          <path id="Path_101" data-name="Path 101" d="M57.2,297.178l-.057,30.941-28.667,4.029.057-30.941Z" transform="translate(-28.477 -297.178)" fill="#4c4c4c"/>
        </g>
        <g id="Group_91" data-name="Group 91" transform="translate(0 4.029)">
          <path id="Path_102" data-name="Path 102" d="M38.851,335.647l-19.491-10.6.057-30.941,19.491,10.6Z" transform="translate(-19.36 -294.103)" fill="#404040"/>
        </g>
        <g id="Group_92" data-name="Group 92" transform="translate(0.057)">
          <path id="Path_103" data-name="Path 103" d="M38.878,306.85l-19.491-10.6,28.667-4.029,19.491,10.6Z" transform="translate(-19.387 -292.218)" fill="#474747"/>
        </g>
      </g>
    </g>
    <g id="Group_482" data-name="Group 482" transform="translate(498.967 7821.31)">
      <g id="Group_98" data-name="Group 98" transform="translate(0)" style="isolation: isolate">
        <g id="Group_95" data-name="Group 95" transform="translate(19.491 10.603)">
          <path id="Path_104" data-name="Path 104" d="M57.2,282.274l-.057,30.941-28.667,4.029.057-30.941Z" transform="translate(-28.477 -282.274)" fill="#757575"/>
        </g>
        <g id="Group_96" data-name="Group 96" transform="translate(0 4.029)">
          <path id="Path_105" data-name="Path 105" d="M38.851,320.743,19.36,310.14l.057-30.941,19.491,10.6Z" transform="translate(-19.36 -279.199)" fill="#616161"/>
        </g>
        <g id="Group_97" data-name="Group 97" transform="translate(0.057)">
          <path id="Path_106" data-name="Path 106" d="M38.878,291.946l-19.491-10.6,28.667-4.029,19.491,10.6Z" transform="translate(-19.387 -277.314)" fill="#6c6c6c"/>
        </g>
      </g>
    </g>
    <g id="Group_483" data-name="Group 483" transform="translate(498.967 7789.429)">
      <g id="Group_103" data-name="Group 103" style="isolation: isolate">
        <g id="Group_100" data-name="Group 100" transform="translate(19.491 10.603)">
          <path id="Path_107" data-name="Path 107" d="M57.2,267.361l-.058,30.959-28.667,4.029.058-30.959Z" transform="translate(-28.477 -267.361)" fill="#929292"/>
        </g>
        <g id="Group_101" data-name="Group 101" transform="translate(0 4.029)">
          <path id="Path_108" data-name="Path 108" d="M38.851,305.848l-19.491-10.6.058-30.959,19.491,10.6Z" transform="translate(-19.36 -264.286)" fill="#7a7a7a"/>
        </g>
        <g id="Group_102" data-name="Group 102" transform="translate(0.058)">
          <path id="Path_109" data-name="Path 109" d="M38.878,277.033l-19.491-10.6L48.054,262.4,67.545,273Z" transform="translate(-19.387 -262.401)" fill="#878787"/>
        </g>
      </g>
    </g>
    <g id="Group_484" data-name="Group 484" transform="translate(498.967 7757.566)">
      <g id="Group_108" data-name="Group 108" transform="translate(0)" style="isolation: isolate">
        <g id="Group_105" data-name="Group 105" transform="translate(19.491 10.603)">
          <path id="Path_110" data-name="Path 110" d="M57.2,252.457,57.144,283.4l-28.667,4.029.057-30.941Z" transform="translate(-28.477 -252.457)" fill="#757575"/>
        </g>
        <g id="Group_106" data-name="Group 106" transform="translate(0 4.029)">
          <path id="Path_111" data-name="Path 111" d="M38.851,290.926l-19.491-10.6.057-30.941,19.491,10.6Z" transform="translate(-19.36 -249.382)" fill="#616161"/>
        </g>
        <g id="Group_107" data-name="Group 107" transform="translate(0.057)">
          <path id="Path_112" data-name="Path 112" d="M38.878,262.129l-19.491-10.6L48.054,247.5l19.491,10.6Z" transform="translate(-19.387 -247.497)" fill="#6c6c6c"/>
        </g>
      </g>
    </g>
    <g id="Group_485" data-name="Group 485" transform="translate(498.967 7725.705)">
      <g id="Group_113" data-name="Group 113" transform="translate(0)" style="isolation: isolate">
        <g id="Group_110" data-name="Group 110" transform="translate(19.491 10.603)">
          <path id="Path_113" data-name="Path 113" d="M57.2,237.553l-.057,30.941-28.667,4.029.057-30.941Z" transform="translate(-28.477 -237.553)" fill="#bbb"/>
        </g>
        <g id="Group_111" data-name="Group 111" transform="translate(0 4.029)">
          <path id="Path_114" data-name="Path 114" d="M38.851,276.022l-19.491-10.6.057-30.941,19.491,10.6Z" transform="translate(-19.36 -234.478)" fill="#9b9b9b"/>
        </g>
        <g id="Group_112" data-name="Group 112" transform="translate(0.057)">
          <path id="Path_115" data-name="Path 115" d="M38.878,247.225l-19.491-10.6,28.667-4.029,19.491,10.6Z" transform="translate(-19.387 -232.593)" fill="#acacac"/>
        </g>
      </g>
    </g>
    <g id="Group_486" data-name="Group 486" transform="translate(498.967 7693.843)">
      <g id="Group_118" data-name="Group 118" transform="translate(0)" style="isolation: isolate">
        <g id="Group_115" data-name="Group 115" transform="translate(19.491 10.603)">
          <path id="Path_116" data-name="Path 116" d="M57.2,222.649l-.057,30.941-28.667,4.029.057-30.941Z" transform="translate(-28.477 -222.649)" fill="#757575"/>
        </g>
        <g id="Group_116" data-name="Group 116" transform="translate(0 4.029)">
          <path id="Path_117" data-name="Path 117" d="M38.851,261.118l-19.491-10.6.057-30.941,19.491,10.6Z" transform="translate(-19.36 -219.574)" fill="#616161"/>
        </g>
        <g id="Group_117" data-name="Group 117" transform="translate(0.057)">
          <path id="Path_118" data-name="Path 118" d="M38.878,232.321l-19.491-10.6,28.667-4.029,19.491,10.6Z" transform="translate(-19.387 -217.689)" fill="#6c6c6c"/>
        </g>
      </g>
    </g>
    <g id="Group_487" data-name="Group 487" transform="translate(-7 1152)">
      <g id="Group_283" data-name="Group 283" transform="translate(445.98 6796.738)">
        <g id="Group_123" data-name="Group 123" transform="translate(0)" style="isolation: isolate">
          <g id="Group_120" data-name="Group 120" transform="translate(19.491 10.603)">
            <path id="Path_119" data-name="Path 119" d="M145.843,346.642l-.057,30.941-28.667,4.029.057-30.941Z" transform="translate(-117.118 -346.642)" fill="#cfcfcf"/>
          </g>
          <g id="Group_121" data-name="Group 121" transform="translate(0 4.029)">
            <path id="Path_120" data-name="Path 120" d="M127.492,385.111,108,374.508l.057-30.941,19.491,10.6Z" transform="translate(-108.001 -343.567)" fill="#acacac"/>
          </g>
          <g id="Group_122" data-name="Group 122" transform="translate(0.057)">
            <path id="Path_121" data-name="Path 121" d="M127.519,356.314l-19.491-10.6,28.667-4.029,19.491,10.6Z" transform="translate(-108.028 -341.682)" fill="#bfbfbf"/>
          </g>
        </g>
      </g>
      <g id="Group_284" data-name="Group 284" transform="translate(445.98 6764.857)">
        <g id="Group_128" data-name="Group 128" transform="translate(0)" style="isolation: isolate">
          <g id="Group_125" data-name="Group 125" transform="translate(19.491 10.603)">
            <path id="Path_122" data-name="Path 122" d="M145.843,331.729l-.057,30.941L117.118,366.7l.057-30.941Z" transform="translate(-117.118 -331.729)" fill="#757575"/>
          </g>
          <g id="Group_126" data-name="Group 126" transform="translate(0 4.029)">
            <path id="Path_123" data-name="Path 123" d="M127.492,370.2,108,359.595l.057-30.941,19.491,10.6Z" transform="translate(-108.001 -328.654)" fill="#616161"/>
          </g>
          <g id="Group_127" data-name="Group 127" transform="translate(0.057)">
            <path id="Path_124" data-name="Path 124" d="M127.519,341.4l-19.491-10.6,28.667-4.029,19.491,10.6Z" transform="translate(-108.028 -326.769)" fill="#6c6c6c"/>
          </g>
        </g>
      </g>
      <g id="Group_285" data-name="Group 285" transform="translate(445.98 6732.995)">
        <g id="Group_133" data-name="Group 133" transform="translate(0)" style="isolation: isolate">
          <g id="Group_130" data-name="Group 130" transform="translate(19.491 10.603)">
            <path id="Path_125" data-name="Path 125" d="M145.843,316.825l-.057,30.941-28.667,4.029.057-30.941Z" transform="translate(-117.118 -316.825)" fill="#4c4c4c"/>
          </g>
          <g id="Group_131" data-name="Group 131" transform="translate(0 4.029)">
            <path id="Path_126" data-name="Path 126" d="M127.492,355.294,108,344.691l.057-30.941,19.491,10.6Z" transform="translate(-108.001 -313.75)" fill="#404040"/>
          </g>
          <g id="Group_132" data-name="Group 132" transform="translate(0.057)">
            <path id="Path_127" data-name="Path 127" d="M127.519,326.5l-19.491-10.6,28.667-4.029,19.491,10.6Z" transform="translate(-108.028 -311.865)" fill="#474747"/>
          </g>
        </g>
      </g>
      <g id="Group_286" data-name="Group 286" transform="translate(445.98 6701.133)">
        <g id="Group_138" data-name="Group 138" transform="translate(0)" style="isolation: isolate">
          <g id="Group_135" data-name="Group 135" transform="translate(19.491 10.603)">
            <path id="Path_128" data-name="Path 128" d="M145.843,301.921l-.057,30.941-28.667,4.029.057-30.941Z" transform="translate(-117.118 -301.921)" fill="#757575"/>
          </g>
          <g id="Group_136" data-name="Group 136" transform="translate(0 4.029)">
            <path id="Path_129" data-name="Path 129" d="M127.492,340.39,108,329.787l.057-30.941,19.491,10.6Z" transform="translate(-108.001 -298.846)" fill="#616161"/>
          </g>
          <g id="Group_137" data-name="Group 137" transform="translate(0.057)">
            <path id="Path_130" data-name="Path 130" d="M127.519,311.593l-19.491-10.6,28.667-4.029,19.491,10.6Z" transform="translate(-108.028 -296.961)" fill="#6c6c6c"/>
          </g>
        </g>
      </g>
      <g id="Group_287" data-name="Group 287" transform="translate(445.98 6669.271)">
        <g id="Group_143" data-name="Group 143" transform="translate(0)" style="isolation: isolate">
          <g id="Group_140" data-name="Group 140" transform="translate(19.491 10.603)">
            <path id="Path_131" data-name="Path 131" d="M145.843,287.017l-.057,30.941-28.667,4.029.057-30.941Z" transform="translate(-117.118 -287.017)" fill="#454545"/>
          </g>
          <g id="Group_141" data-name="Group 141" transform="translate(0 4.029)">
            <path id="Path_132" data-name="Path 132" d="M127.492,325.486,108,314.883l.057-30.941,19.491,10.6Z" transform="translate(-108.001 -283.942)" fill="#393939"/>
          </g>
          <g id="Group_142" data-name="Group 142" transform="translate(0.057)">
            <path id="Path_133" data-name="Path 133" d="M127.519,296.689l-19.491-10.6,28.667-4.029,19.491,10.6Z" transform="translate(-108.028 -282.057)" fill="#404040"/>
          </g>
        </g>
      </g>
      <g id="Group_288" data-name="Group 288" transform="translate(407 6794.929)">
        <g id="Group_148" data-name="Group 148" style="isolation: isolate">
          <g id="Group_145" data-name="Group 145" transform="translate(19.491 10.603)">
            <path id="Path_134" data-name="Path 134" d="M127.609,345.8l-.057,30.941-28.667,4.029.057-30.941Z" transform="translate(-98.884 -345.796)" fill="#757575"/>
          </g>
          <g id="Group_146" data-name="Group 146" transform="translate(0 4.029)">
            <path id="Path_135" data-name="Path 135" d="M109.258,384.265l-19.491-10.6.057-30.941,19.491,10.6Z" transform="translate(-89.767 -342.721)" fill="#616161"/>
          </g>
          <g id="Group_147" data-name="Group 147" transform="translate(0.057)">
            <path id="Path_136" data-name="Path 136" d="M109.285,355.468l-19.491-10.6,28.667-4.029,19.491,10.6Z" transform="translate(-89.794 -340.836)" fill="#6c6c6c"/>
          </g>
        </g>
      </g>
      <g id="Group_289" data-name="Group 289" transform="translate(407 6763.049)">
        <g id="Group_153" data-name="Group 153" style="isolation: isolate">
          <g id="Group_150" data-name="Group 150" transform="translate(19.491 10.603)">
            <path id="Path_137" data-name="Path 137" d="M127.609,330.883l-.058,30.959-28.667,4.029.057-30.959Z" transform="translate(-98.884 -330.883)" fill="#cfcfcf"/>
          </g>
          <g id="Group_151" data-name="Group 151" transform="translate(0 4.029)">
            <path id="Path_138" data-name="Path 138" d="M109.258,369.37l-19.491-10.6.058-30.959,19.491,10.6Z" transform="translate(-89.767 -327.808)" fill="#acacac"/>
          </g>
          <g id="Group_152" data-name="Group 152" transform="translate(0.058)">
            <path id="Path_139" data-name="Path 139" d="M109.285,340.555l-19.491-10.6,28.667-4.029,19.491,10.6Z" transform="translate(-89.794 -325.923)" fill="#bfbfbf"/>
          </g>
        </g>
      </g>
      <g id="Group_290" data-name="Group 290" transform="translate(407 6731.187)">
        <g id="Group_158" data-name="Group 158" style="isolation: isolate">
          <g id="Group_155" data-name="Group 155" transform="translate(19.491 10.603)">
            <path id="Path_140" data-name="Path 140" d="M127.609,315.979l-.057,30.941-28.667,4.029.057-30.941Z" transform="translate(-98.884 -315.979)" fill="#757575"/>
          </g>
          <g id="Group_156" data-name="Group 156" transform="translate(0 4.029)">
            <path id="Path_141" data-name="Path 141" d="M109.258,354.448l-19.491-10.6.057-30.941,19.491,10.6Z" transform="translate(-89.767 -312.904)" fill="#616161"/>
          </g>
          <g id="Group_157" data-name="Group 157" transform="translate(0.057)">
            <path id="Path_142" data-name="Path 142" d="M109.285,325.651l-19.491-10.6,28.667-4.029,19.491,10.6Z" transform="translate(-89.794 -311.019)" fill="#6c6c6c"/>
          </g>
        </g>
      </g>
      <g id="Group_291" data-name="Group 291" transform="translate(407 6699.325)">
        <g id="Group_163" data-name="Group 163" style="isolation: isolate">
          <g id="Group_160" data-name="Group 160" transform="translate(19.491 10.603)">
            <path id="Path_143" data-name="Path 143" d="M127.609,301.075l-.057,30.941-28.667,4.029.057-30.941Z" transform="translate(-98.884 -301.075)" fill="#4c4c4c"/>
          </g>
          <g id="Group_161" data-name="Group 161" transform="translate(0 4.029)">
            <path id="Path_144" data-name="Path 144" d="M109.258,339.544l-19.491-10.6L89.825,298l19.491,10.6Z" transform="translate(-89.767 -298)" fill="#404040"/>
          </g>
          <g id="Group_162" data-name="Group 162" transform="translate(0.057)">
            <path id="Path_145" data-name="Path 145" d="M109.285,310.747l-19.491-10.6,28.667-4.029,19.491,10.6Z" transform="translate(-89.794 -296.115)" fill="#474747"/>
          </g>
        </g>
      </g>
      <g id="Group_292" data-name="Group 292" transform="translate(407 6667.463)">
        <g id="Group_168" data-name="Group 168" style="isolation: isolate">
          <g id="Group_165" data-name="Group 165" transform="translate(19.491 10.603)">
            <path id="Path_146" data-name="Path 146" d="M127.609,286.171l-.057,30.941-28.667,4.029.057-30.941Z" transform="translate(-98.884 -286.171)" fill="#757575"/>
          </g>
          <g id="Group_166" data-name="Group 166" transform="translate(0 4.029)">
            <path id="Path_147" data-name="Path 147" d="M109.258,324.64l-19.491-10.6.057-30.941,19.491,10.6Z" transform="translate(-89.767 -283.096)" fill="#616161"/>
          </g>
          <g id="Group_167" data-name="Group 167" transform="translate(0.057)">
            <path id="Path_148" data-name="Path 148" d="M109.285,295.843l-19.491-10.6,28.667-4.029,19.491,10.6Z" transform="translate(-89.794 -281.211)" fill="#6c6c6c"/>
          </g>
        </g>
      </g>
    </g>
  </g>
</svg>
