<?xml version="1.0" encoding="utf-8"?>
<!-- Generator: Adobe Illustrator 24.1.2, SVG Export Plug-In . SVG Version: 6.00 Build 0)  -->
<svg version="1.1" id="Слой_1" xmlns="http://www.w3.org/2000/svg" xmlns:xlink="http://www.w3.org/1999/xlink" x="0px" y="0px"
	 viewBox="0 0 223.9 39.7" style="enable-background:new 0 0 223.9 39.7;" xml:space="preserve">
<style type="text/css">
	.st0{fill:#FFFFFF;}
	.st1{fill:#AA198D;}
	.st2{fill:#F9BE00;}
	.st3{fill:#3FAE2A;}
	.st4{fill:#E81D27;}
	.st5{fill:#FF671B;}
	.st6{fill:#009578;}
	.st7{fill:#E7417A;}
	.st8{fill:#0082CA;}
	.st9{clip-path:url(#SVGID_2_);}
	.st10{fill:#001689;}
	.st11{font-family:'ArialMT';}
	.st12{font-size:8.8409px;}
</style>
<g>
	<g>
		<path class="st0" d="M107.7,33l1.7-2.8H106l1.7-2.9h-5l2.5-4.3h2.5l-1.7-2.9h3.3l-1.7-2.8h9l-1.6,2.9h3.3l-1.7,2.9h2.5l2.5,4.3h-5
			l1.7,2.9H115l1.6,2.8H107.7z"/>
		<path class="st0" d="M108.1,32.8l1.7-2.9h-3.3l1.7-2.8h-5l2.2-3.8h2.8l-1.7-2.8h3.3l-1.7-2.9h8.2l-1.7,2.9h3.3l-1.7,2.8h2.7
			l2.2,3.8h-5l1.7,2.8h-3.3l1.7,2.9L108.1,32.8z"/>
		<path class="st1" d="M112.2,26.6l1.7,2.9l1.6,2.8h-6.6l1.7-2.8L112.2,26.6z"/>
		<path class="st2" d="M112.2,23.7l-1.7-2.9l-1.7-2.8h6.6l-1.6,2.8L112.2,23.7z"/>
		<path class="st3" d="M115.5,23.7h-3.3l1.7-2.9h3.3L115.5,23.7z"/>
		<path class="st4" d="M107.2,26.6h-3.3l1.6-2.9h3.3L107.2,26.6z"/>
		<path class="st5" d="M108.9,23.7h3.3l-1.7-2.9h-3.3L108.9,23.7z"/>
		<path class="st6" d="M117.1,26.6h3.3l-1.7-2.9h-3.3L117.1,26.6z"/>
		<path class="st7" d="M108.9,26.6h3.3l-1.7,2.9h-3.3L108.9,26.6z"/>
		<path class="st8" d="M115.5,26.6h-3.3l1.7,2.9h3.3L115.5,26.6z"/>
		<g>
			<defs>
				<rect id="SVGID_1_" x="107.2" y="23.7" width="9.9" height="2.8"/>
			</defs>
			<clipPath id="SVGID_2_">
				<use xlink:href="#SVGID_1_"  style="overflow:visible;"/>
			</clipPath>
			<g class="st9">
				<path class="st10" d="M108.9,23.7l-1.7,2.9h9.9l-1.7-2.9H108.9z"/>
			</g>
		</g>
		<path class="st10" d="M113.8,20.9h-3.3l0.8,1.4l0.8,1.4l0.8-1.4L113.8,20.9z"/>
		<path class="st10" d="M110.5,29.5h3.3l-1.7-2.9L110.5,29.5z"/>
		<path class="st10" d="M219.3,20.9H217l-3.2,4.1l3.3,4.5h3l-3.7-4.9L219.3,20.9z M211,29.5h2.6v-8.6H211V29.5z M206.9,25v1l0,0
			c-0.1-0.3-0.3-0.7-0.5-1l-2.9-4.2h-2.7v8.6h1.9v-5.6l0,0c0.1,0.3,0.3,0.6,0.5,0.8l3.5,4.8h2.3v-8.6H207L206.9,25L206.9,25z
			 M196,20.9l3.6,8.5h-2.7l-0.9-2.1h-3.9l-1,2.1h-1.9l3.9-8.6L196,20.9z M195.5,26l-1-2.2c-0.1-0.3-0.2-0.7-0.3-1l0,0
			c-0.1,0.3-0.3,0.6-0.4,1l-1,2.2L195.5,26L195.5,26z M157.9,25.6L157.9,25.6c1.1-0.3,1.9-1.3,1.9-2.4c0-1.6-1.3-2.3-3.2-2.3h-4.7
			v8.6h2.6v-7.4h0.9c1,0,1.7,0.3,1.7,1.5c0,0.8-0.6,1.5-1.4,1.6c-0.1,0-0.2,0-0.3,0h-0.6l3.2,4.4h2.9c0,0-2.2-3-2.4-3.2
			C158.3,26,157.9,25.7,157.9,25.6 M142.9,29.4h-2.7l-0.9-2.1h-3.9l-1,2.1h-1.9l3.9-8.6h2.8L142.9,29.4z M138.7,26l-1-2.2
			c-0.1-0.3-0.2-0.7-0.3-1l0,0c-0.1,0.3-0.3,0.6-0.4,1l-1,2.2L138.7,26L138.7,26z M141.8,22.4h3.2v7.1h2.6v-7.1h3.2v-1.5h-8.9
			L141.8,22.4L141.8,22.4z M161.9,29.4h2.6v-8.6h-2.6V29.4z M172.3,20.9l3.6,8.6h-2.7l-0.9-2.1h-3.9l-1,2.1h-1.9l3.9-8.6H172.3z
			 M171.7,26l-1-2.2c-0.1-0.3-0.2-0.7-0.3-1l0,0c-0.1,0.3-0.3,0.6-0.4,1l-1,2.2L171.7,26L171.7,26z M127.9,22h0.8
			c1,0,1.9,0.3,1.9,1.5c0,1-0.7,1.6-1.8,1.6h-0.4l0.9,1.3c1,0.2,4.1-0.3,4-2.9c0-1.6-1.3-2.6-3.2-2.6h-4.7v8.6h2.6L127.9,22z
			 M189,26.4c0.4,1.5-0.4,2.8-2.6,3h0c-0.3,0-0.5,0-0.8,0h-4.7v-8.6h4.7c1.9,0,2.9,0.8,2.7,2.4c-0.1,0.8-0.8,1.5-1.6,1.6
			c0.5,0,1.1,0.2,1.5,0.5l0,0C188.6,25.6,188.9,25.9,189,26.4 M184.3,22.1h-0.8v2.5h1.1c0.7,0,1.3-0.6,1.3-1.3
			C185.8,22.4,185.3,22.1,184.3,22.1 M183.5,28.3h1.5c0,0,1.3,0.1,1.4-1.1V27c0-0.1,0-0.3-0.1-0.4c-0.3-1-1.8-1-1.8-1h-1L183.5,28.3
			z M222.1,23.5c-0.9,0-1.6-0.7-1.7-1.6c0,0,0,0,0,0l0,0c0-0.9,0.7-1.7,1.6-1.7c0.9,0,1.7,0.7,1.7,1.6l0,0v0.1
			C223.8,22.7,223,23.5,222.1,23.5C222.1,23.5,222.1,23.5,222.1,23.5L222.1,23.5 M222.1,20.4c-0.8-0.1-1.5,0.5-1.5,1.3
			c-0.1,0.8,0.5,1.5,1.3,1.5c0.8,0.1,1.5-0.5,1.5-1.3c0,0,0-0.1,0-0.1C223.4,21.1,222.8,20.4,222.1,20.4 M222.4,22.6L222.4,22.6
			l-0.6-0.9h0.1c0.2,0,0.3-0.1,0.3-0.3c0-0.2-0.2-0.3-0.4-0.3h-0.2v1.5h-0.4v-1.7h0.7c0.3,0,0.6,0.1,0.6,0.4c0,0.2-0.2,0.4-0.4,0.5
			l0.5,0.8L222.4,22.6z"/>
		<g>
			<text transform="matrix(1 0 0 1 102.6992 13.5793)" class="st10 st11 st12">o inițiati</text>
			<text transform="matrix(1 0 0 1 132.6064 13.5793)" class="st10 st11 st12">v</text>
			<text transform="matrix(1 0 0 1 136.6543 13.5793)" class="st10 st11 st12">ă </text>
			<text transform="matrix(1 0 0 1 143.3672 13.5793)" class="st10 st11 st12">r</text>
			<text transform="matrix(1 0 0 1 146.709 13.5793)" class="st10 st11 st12">ealizată și susținută</text>
		</g>
	</g>
	<path d="M86.4,0.2c0-0.1,0.1-0.2,0.2-0.2h2.1c0.1,0,0.2,0.1,0.2,0.2v37.5c0,0.1-0.1,0.2-0.2,0.2h-2.1c-0.1,0-0.2-0.1-0.2-0.2V0.2z"
		/>
	<g>
		<path d="M0.3,3.4c0-0.1,0.1-0.2,0.2-0.2h2.3c0.1,0,0.3,0.1,0.3,0.2l4.5,8h0.1v-8c0-0.1,0.1-0.2,0.2-0.2c0,0,0,0,0,0h2.1
			c0.1,0,0.2,0.1,0.2,0.2c0,0,0,0,0,0v12.3c0,0.1-0.1,0.2-0.2,0.2H7.7c-0.1,0-0.3-0.1-0.3-0.2L2.9,7.7H2.8v7.9
			c0,0.1-0.1,0.2-0.2,0.2H0.5c-0.1,0-0.2-0.1-0.2-0.2c0,0,0,0,0,0V3.4z"/>
		<path d="M12.6,3.4c0-0.1,0.1-0.2,0.2-0.2c0,0,0,0,0,0h2.4c0.1,0,0.2,0.1,0.2,0.2v12.3c0,0.1-0.1,0.2-0.2,0.2h-2.4
			c-0.1,0-0.2-0.1-0.2-0.2c0,0,0,0,0,0L12.6,3.4L12.6,3.4z"/>
		<path d="M17.1,14.3c-0.1-0.1-0.1-0.2,0-0.3l1.4-1.6c0.1-0.1,0.2-0.1,0.3,0c0,0,0,0,0,0l0,0c0.9,0.8,2.1,1.3,3.3,1.3
			c1.3,0,2.1-0.6,2.1-1.5c0-0.7-0.4-1.2-1.9-1.4l-0.7-0.1c-2.6-0.4-4-1.6-4-3.8S19.3,3,22,3c1.5,0,3,0.4,4.3,1.3
			c0.1,0.1,0.1,0.1,0,0.3l-1.1,1.7c-0.1,0.1-0.2,0.1-0.3,0.1l0,0c-0.9-0.6-1.9-0.9-2.9-1c-1.1,0-1.7,0.6-1.7,1.4s0.5,1.2,2,1.4
			l0.7,0.1c2.6,0.4,4,1.5,4,3.8s-1.7,4-5,4C20.2,16.1,18.4,15.5,17.1,14.3z M20.9,20V17c0-0.1,0.1-0.2,0.2-0.2c0,0,0,0,0,0h1.9
			c0.1,0,0.2,0.1,0.2,0.2c0,0,0,0,0,0v1.5c0,0.1,0,0.3-0.2,0.4l-1.6,1.3c-0.1,0.1-0.2,0.1-0.3,0.2C20.9,20.3,20.8,20.2,20.9,20
			L20.9,20L20.9,20z"/>
		<path d="M31.3,15.8c-0.1,0-0.2-0.1-0.2-0.2V5.7c0-0.1,0-0.1-0.1-0.1h-3.2c-0.1,0-0.2-0.1-0.2-0.1c0,0,0,0,0,0V3.4
			c0-0.1,0.1-0.2,0.2-0.2c0,0,0,0,0,0h9.4c0.1,0,0.2,0.1,0.2,0.2c0,0,0,0,0,0v2.1c0,0.1-0.1,0.2-0.2,0.2c0,0,0,0,0,0H34
			c-0.1,0-0.1,0-0.1,0.1c0,0,0,0,0,0v9.9c0,0.1-0.1,0.2-0.2,0.2c0,0,0,0,0,0H31.3L31.3,15.8z"/>
		<path d="M38.9,3.4c0-0.1,0.1-0.2,0.2-0.2h8.1c0.1,0,0.2,0.1,0.2,0.2c0,0,0,0,0,0l0,0v2c0,0.1-0.1,0.2-0.2,0.2c0,0,0,0,0,0h-5.5
			c-0.1,0-0.1,0-0.1,0.1l0,0v2.5c0,0.1,0,0.1,0.1,0.1h4.6c0.1,0,0.2,0.1,0.2,0.2c0,0,0,0,0,0v2c0,0.1-0.1,0.2-0.2,0.2h-4.6
			c-0.1,0-0.1,0-0.1,0.1v2.6c0,0.1,0,0.1,0.1,0.1c0,0,0,0,0,0h5.5c0.1,0,0.2,0.1,0.2,0.2c0,0,0,0,0,0l0,0v2c0,0.1-0.1,0.2-0.2,0.2
			c0,0,0,0,0,0h-8.1c-0.1,0-0.2-0.1-0.2-0.2L38.9,3.4L38.9,3.4z"/>
		<path d="M0.4,32.4c-0.5-2.3-0.5-4.6,0-6.9c0.6-2,2.4-3.1,4.6-3.1s4,1,4.6,3.1c0.5,2.3,0.5,4.6,0,6.9c-0.6,2-2.4,3.1-4.6,3.1
			S1,34.4,0.4,32.4z M7,31.6c0.3-1.8,0.3-3.6,0-5.4c-0.4-1.1-1.6-1.7-2.7-1.3c-0.6,0.2-1,0.7-1.3,1.3c-0.3,1.8-0.3,3.6,0,5.4
			c0.4,1.1,1.6,1.7,2.7,1.3C6.3,32.7,6.7,32.2,7,31.6z"/>
		<path d="M19,35.2c-0.1,0-0.2-0.1-0.3-0.2l-2.2-4.6h-1.7c-0.1,0-0.1,0-0.1,0.1c0,0,0,0,0,0V35c0,0.1-0.1,0.2-0.2,0.2c0,0,0,0,0,0
			h-2.4c-0.1,0-0.2-0.1-0.2-0.2c0,0,0,0,0,0V22.8c0-0.1,0.1-0.2,0.2-0.2c0,0,0,0,0,0h5c2.6,0,4.3,1.6,4.3,3.9c0,1.5-0.8,2.9-2.3,3.5
			l2.5,5c0,0.1,0,0.2,0,0.2c0,0,0,0,0,0c0,0-0.1,0-0.1,0L19,35.2z M18.8,26.5c0-0.8-0.7-1.6-1.5-1.6c0,0,0,0,0,0c-0.1,0-0.1,0-0.2,0
			h-2.2c-0.1,0-0.1,0-0.1,0.1c0,0,0,0,0,0V28c0,0.1,0,0.1,0.1,0.1c0,0,0,0,0,0h2.3c0.8,0.1,1.6-0.5,1.7-1.4
			C18.8,26.7,18.8,26.6,18.8,26.5z"/>
		<path d="M27.1,22.8c0-0.1,0.1-0.2,0.2-0.2h2.3c0.1,0,0.2,0.1,0.2,0.2L34.2,35c0,0.1,0,0.2-0.1,0.2h-2.4c-0.1,0-0.2-0.1-0.2-0.2
			l-0.7-2.2h-4.4L25.5,35c0,0.1-0.1,0.2-0.2,0.2h-2.4c-0.1,0-0.2-0.1-0.1-0.2L27.1,22.8z M25.6,19c0-0.1,0.1-0.2,0.2-0.2
			c0,0,0,0,0,0h1.1c0.1,0,0.2,0.1,0.2,0.2c0.2,0.5,0.8,0.9,1.3,0.8c0.6,0.1,1.1-0.2,1.3-0.8c0.1-0.2,0.1-0.2,0.3-0.2h1.1
			c0.1,0,0.2,0.1,0.2,0.2c0,0,0,0,0,0l0,0c-0.1,1.4-1.2,2.4-2.8,2.4S25.6,20.4,25.6,19L25.6,19z M29.9,30.5l-1.4-4.4h-0.1L27,30.5
			H29.9z"/>
		<path d="M35,33.7c-0.1-0.1-0.1-0.2,0-0.3l1.4-1.6c0.1-0.1,0.2-0.1,0.3,0l0,0c0.9,0.8,2.1,1.3,3.3,1.3c1.3,0,2.1-0.6,2.1-1.5
			c0-0.8-0.4-1.2-2-1.4l-0.7-0.1c-2.6-0.3-4-1.6-4-3.8s1.7-3.9,4.5-3.9c1.5,0,3,0.4,4.3,1.3c0.1,0.1,0.1,0.2,0,0.3l-1.1,1.7
			c0,0.1-0.2,0.1-0.2,0.1c0,0,0,0,0,0l0,0c-0.9-0.6-1.9-0.9-2.9-1c-1.1,0-1.7,0.6-1.7,1.4c0,0.8,0.5,1.2,2,1.4l0.7,0.1
			c2.6,0.4,4,1.5,4,3.8s-1.7,4-5,4C38.1,35.5,36.4,34.9,35,33.7z M38.8,39.4v-3.1c0-0.1,0.1-0.2,0.2-0.2c0,0,0,0,0,0h1.9
			c0.1,0,0.2,0.1,0.2,0.2v1.5c0,0.1,0,0.3-0.2,0.4l-1.6,1.3c-0.1,0.1-0.2,0.1-0.3,0.2C38.9,39.7,38.8,39.6,38.8,39.4L38.8,39.4
			L38.8,39.4L38.8,39.4z"/>
		<path d="M46.7,22.8c0-0.1,0.1-0.2,0.2-0.2c0,0,0,0,0,0H55c0.1,0,0.2,0.1,0.2,0.2c0,0,0,0,0,0v2c0,0.1-0.1,0.2-0.2,0.2c0,0,0,0,0,0
			h-5.5c-0.1,0-0.1,0-0.1,0.1v2.5c0,0.1,0,0.1,0.1,0.1h4.6c0.1,0,0.2,0.1,0.2,0.2v2c0,0.1-0.1,0.2-0.2,0.2h-4.6
			c-0.1,0-0.1,0-0.1,0.1c0,0,0,0,0,0v2.6c0,0.1,0,0.1,0.1,0.1H55c0.1,0,0.2,0.1,0.2,0.2c0,0,0,0,0,0v2c0,0.1-0.1,0.2-0.2,0.2
			c0,0,0,0,0,0h-8.1c-0.1,0-0.2-0.1-0.2-0.2L46.7,22.8L46.7,22.8z"/>
		<path d="M57.2,22.8c0-0.1,0.1-0.2,0.2-0.2c0,0,0,0,0,0h2.3c0.1,0,0.3,0.1,0.3,0.2l4.5,7.9h0.1v-7.9c0-0.1,0.1-0.2,0.2-0.2
			c0,0,0,0,0,0h2.1c0.1,0,0.2,0.1,0.2,0.2V35c0,0.1-0.1,0.2-0.2,0.2h-2.2c-0.1,0-0.3-0.1-0.3-0.2l-4.5-7.9h-0.1V35
			c0,0.1-0.1,0.2-0.2,0.2c0,0,0,0,0,0h-2.1c-0.1,0-0.2-0.1-0.2-0.2c0,0,0,0,0,0L57.2,22.8L57.2,22.8z"/>
		<path d="M69.4,22.8c0-0.1,0.1-0.2,0.2-0.2c0,0,0,0,0,0H72c0.1,0,0.2,0.1,0.2,0.2c0,0,0,0,0,0V35c0,0.1-0.1,0.2-0.2,0.2h-2.4
			c-0.1,0-0.2-0.1-0.2-0.2c0,0,0,0,0,0V22.8z"/>
	</g>
</g>
</svg>
