<?xml version="1.0" encoding="utf-8"?>
<!-- Generator: Adobe Illustrator 24.1.2, SVG Export Plug-In . SVG Version: 6.00 Build 0)  -->
<svg version="1.1" id="Слой_1" xmlns="http://www.w3.org/2000/svg" xmlns:xlink="http://www.w3.org/1999/xlink" x="0px" y="0px"
	 viewBox="0 0 120.8 66.8" style="enable-background:new 0 0 120.8 66.8;" xml:space="preserve">
<style type="text/css">
	.st0{font-family:'ArialMT';}
	.st1{font-size:25px;}
</style>
<g>
	<!--<g>-->
		<!--<text transform="matrix(1 0 0 1 155.7392 24.58)" class="st0 st1">inițiati</text>-->
		<!--<text transform="matrix(1 0 0 1 221.4392 24.58)" class="st0 st1">v</text>-->
		<!--<text transform="matrix(1 0 0 1 232.8891 24.58)" class="st0 st1">a pentru susține</text>-->
		<!--<text transform="matrix(1 0 0 1 405.6292 24.58)" class="st0 st1">r</text>-->
		<!--<text transform="matrix(1 0 0 1 415.0792 24.58)" class="st0 st1">ea</text>-->
		<!--<text transform="matrix(1 0 0 1 155.7392 49.58)" class="st0 st1">mig</text>-->
		<!--<text transform="matrix(1 0 0 1 195.9892 49.58)" class="st0 st1">r</text>-->
		<!--<text transform="matrix(1 0 0 1 205.2891 49.58)" class="st0 st1">ației din urban în ru</text>-->
		<!--<text transform="matrix(1 0 0 1 413.3292 49.58)" class="st0 st1">r</text>-->
		<!--<text transform="matrix(1 0 0 1 422.6292 49.58)" class="st0 st1">al</text>-->
	<!--</g>-->
	<path d="M138.1,0.3c0-0.2,0.1-0.3,0.2-0.3h2.9c0.1,0,0.2,0.1,0.2,0.3v57.2c0,0.2-0.1,0.3-0.2,0.3h-2.9c-0.1,0-0.2-0.1-0.2-0.3V0.3z
		"/>
	<path d="M0.5,4.5c0-0.2,0.1-0.3,0.3-0.3h3.6c0.2,0,0.4,0.1,0.5,0.3l7.1,12.6h0.2V4.5c0-0.1,0.1-0.3,0.2-0.3c0,0,0,0,0,0h3.4
		c0.2,0,0.3,0.1,0.3,0.3c0,0,0,0,0,0V24c0,0.2-0.1,0.3-0.3,0.3h-3.5c-0.2,0-0.4-0.1-0.5-0.3L4.6,11.4H4.5V24c0,0.2-0.1,0.3-0.3,0.3
		H0.8c-0.2,0-0.3-0.1-0.3-0.3c0,0,0,0,0,0V4.5z"/>
	<path d="M19.9,4.5c0-0.1,0.1-0.3,0.2-0.3c0,0,0,0,0,0h3.8c0.2,0,0.3,0.1,0.3,0.3V24c0,0.2-0.1,0.3-0.3,0.3h-3.8
		c-0.1,0-0.3-0.1-0.3-0.2c0,0,0,0,0,0L19.9,4.5L19.9,4.5z"/>
	<path d="M27.1,21.9c-0.1-0.1-0.1-0.4,0-0.5l2.2-2.6c0.1-0.1,0.3-0.1,0.4,0c0,0,0,0,0,0l0,0c1.5,1.3,3.3,2,5.2,2.1
		c2.1,0,3.3-1,3.3-2.4c0-1.2-0.7-1.9-3.1-2.2l-1.1-0.2c-4.1-0.6-6.3-2.5-6.3-6S30.5,4,34.9,4c2.4-0.1,4.8,0.7,6.8,2.1
		c0.2,0.1,0.2,0.2,0.1,0.4l-1.8,2.6c-0.1,0.1-0.3,0.2-0.4,0.1l0,0c-1.4-1-3-1.5-4.7-1.5c-1.8,0-2.7,0.9-2.7,2.2s0.8,1.9,3.1,2.2
		l1.1,0.2c4.1,0.6,6.3,2.4,6.3,6.1s-2.7,6.3-7.9,6.3C32,24.6,29.2,23.7,27.1,21.9z M33.1,30.9V26c0-0.2,0.1-0.3,0.3-0.3c0,0,0,0,0,0
		h3c0.2,0,0.3,0.1,0.3,0.3c0,0,0,0,0,0v2.4c0,0.2-0.1,0.4-0.2,0.6L33.8,31c-0.1,0.1-0.3,0.2-0.5,0.2C33.2,31.3,33,31.1,33.1,30.9
		L33.1,30.9L33.1,30.9z"/>
	<path d="M49.7,24.3c-0.2,0-0.3-0.1-0.3-0.3V8.2c0-0.1-0.1-0.2-0.1-0.2h-5.1c-0.1,0-0.3-0.1-0.3-0.2c0,0,0,0,0,0V4.5
		c0-0.1,0.1-0.3,0.2-0.3c0,0,0,0,0,0H59c0.1,0,0.3,0.1,0.3,0.2c0,0,0,0,0,0v3.3c0,0.1-0.1,0.3-0.2,0.3c0,0,0,0,0,0h-5.1
		c-0.1,0-0.2,0-0.2,0.1c0,0,0,0,0,0V24c0,0.2-0.1,0.3-0.3,0.3c0,0,0,0,0,0H49.7L49.7,24.3z"/>
	<path d="M61.7,4.5c0-0.2,0.1-0.3,0.3-0.3h12.9c0.1,0,0.3,0.1,0.3,0.2c0,0,0,0,0,0l0,0v3.2c0,0.1-0.1,0.3-0.2,0.3c0,0,0,0,0,0h-8.7
		c-0.1,0-0.2,0-0.2,0.1l0,0v4c0,0.1,0.1,0.2,0.1,0.2h7.2c0.1,0,0.3,0.1,0.3,0.2c0,0,0,0,0,0v3.2c0,0.2-0.1,0.3-0.3,0.3h-7.2
		c-0.1,0-0.2,0-0.2,0.1v4.2c0,0.1,0,0.2,0.1,0.2c0,0,0,0,0,0h8.7c0.1,0,0.3,0.1,0.3,0.2c0,0,0,0,0,0l0,0V24c0,0.1-0.1,0.3-0.2,0.3
		c0,0,0,0,0,0H62c-0.2,0-0.3-0.1-0.3-0.3L61.7,4.5L61.7,4.5z"/>
	<path d="M0.6,50.5c-0.7-3.6-0.7-7.4,0-11c1-3.2,3.8-4.9,7.3-4.9s6.3,1.6,7.3,4.9c0.8,3.6,0.8,7.4,0,11c-1,3.3-3.8,4.9-7.3,4.9
		S1.6,53.7,0.6,50.5z M11,49.3c0.4-2.9,0.4-5.8,0-8.6c-0.6-1.7-2.6-2.6-4.3-2c-0.9,0.3-1.7,1.1-2,2c-0.4,2.9-0.4,5.8,0,8.6
		c0.6,1.7,2.6,2.6,4.3,2C10,51,10.7,50.2,11,49.3z"/>
	<path d="M30.2,55c-0.2,0-0.4-0.1-0.4-0.3l-3.4-7.3h-2.7c-0.1,0-0.2,0-0.2,0.1c0,0,0,0,0,0v7.2c0,0.2-0.1,0.3-0.3,0.3c0,0,0,0,0,0
		h-3.8c-0.1,0-0.3-0.1-0.3-0.2c0,0,0,0,0,0V35.3c0-0.1,0.1-0.3,0.2-0.3c0,0,0,0,0,0h8c4.1,0,6.8,2.6,6.8,6.2
		c0.1,2.4-1.3,4.6-3.6,5.6l4,7.9c0.1,0.1,0,0.2-0.1,0.3c0,0,0,0,0,0c0,0-0.1,0-0.2,0L30.2,55z M29.8,41.2c0-1.3-1-2.5-2.4-2.5
		c0,0,0,0,0,0c-0.1,0-0.2,0-0.3,0h-3.5c-0.1,0-0.2,0-0.2,0.1c0,0,0,0,0,0v4.7c0,0.1,0,0.2,0.1,0.2c0,0,0,0,0,0h3.6
		c1.3,0.1,2.5-0.8,2.7-2.2C29.8,41.4,29.8,41.3,29.8,41.2z"/>
	<path d="M42.9,35.3c0-0.2,0.2-0.3,0.4-0.3H47c0.2,0,0.3,0.1,0.4,0.3l6.8,19.5c0.1,0.2,0,0.3-0.2,0.3h-3.8c-0.2,0-0.4-0.1-0.4-0.3
		l-1.1-3.5h-7l-1.1,3.5c0,0.2-0.2,0.3-0.4,0.3h-3.9C36,55,36,54.9,36,54.7L42.9,35.3z M40.6,29.3c0-0.2,0.1-0.3,0.2-0.3c0,0,0,0,0,0
		h1.8c0.2,0,0.4,0.1,0.4,0.3c0.3,0.8,1.2,1.4,2.1,1.2c0.9,0.1,1.8-0.4,2.1-1.2c0.1-0.2,0.2-0.3,0.4-0.3h1.7c0.2,0,0.3,0.1,0.3,0.3
		c0,0,0,0,0,0l0,0c-0.1,2.2-1.9,3.9-4.5,3.9S40.6,31.4,40.6,29.3L40.6,29.3z M47.4,47.6l-2.3-7h-0.1l-2.3,7H47.4z"/>
	<path d="M55.5,52.6c-0.1-0.1-0.1-0.4,0-0.5l2.2-2.6c0.1-0.1,0.3-0.1,0.4,0l0,0c1.5,1.3,3.3,2,5.3,2.1c2.1,0,3.3-1,3.3-2.4
		c0-1.2-0.7-1.9-3.1-2.3l-1.1-0.2c-4.1-0.6-6.3-2.5-6.3-6s2.8-6.1,7.1-6.1c2.4-0.1,4.8,0.7,6.8,2.1c0.2,0.1,0.2,0.2,0.1,0.4
		l-1.8,2.7C68.3,40,68.2,40.1,68,40c0,0,0,0,0,0l0,0c-1.4-1-3-1.5-4.6-1.5c-1.8,0-2.7,0.9-2.7,2.2s0.8,1.9,3.1,2.2l1.1,0.2
		c4.1,0.6,6.3,2.4,6.3,6.1s-2.7,6.3-7.9,6.3C60.5,55.4,57.7,54.4,55.5,52.6z M61.5,61.7v-4.9c0-0.2,0.1-0.3,0.3-0.3c0,0,0,0,0,0h3
		c0.2,0,0.3,0.1,0.3,0.3v2.4c0,0.2-0.1,0.4-0.2,0.6l-2.6,2.1C62.2,61.9,62,62,61.8,62C61.7,62,61.5,61.9,61.5,61.7L61.5,61.7
		L61.5,61.7L61.5,61.7z"/>
	<path d="M74.1,35.3c0-0.2,0.1-0.3,0.3-0.3c0,0,0,0,0,0h12.9c0.1,0,0.3,0.1,0.3,0.2c0,0,0,0,0,0v3.2c0,0.1-0.1,0.3-0.2,0.3
		c0,0,0,0,0,0h-8.7c-0.1,0-0.2,0-0.2,0.1v4c0,0.1,0.1,0.2,0.1,0.2h7.2c0.2,0,0.3,0.1,0.3,0.3v3.2c0,0.2-0.1,0.3-0.3,0.3h-7.2
		c-0.1,0-0.2,0-0.2,0.1c0,0,0,0,0,0v4.2c0,0.1,0.1,0.2,0.1,0.2h8.7c0.1,0,0.3,0.1,0.3,0.2c0,0,0,0,0,0v3.2c0,0.1-0.1,0.3-0.2,0.3
		c0,0,0,0,0,0H74.4c-0.2,0-0.3-0.1-0.3-0.3L74.1,35.3L74.1,35.3z"/>
	<path d="M90.8,35.3c0-0.2,0.1-0.3,0.3-0.3c0,0,0,0,0,0h3.6c0.2,0,0.4,0.1,0.5,0.3l7.1,12.6h0.1V35.3c0-0.2,0.1-0.3,0.3-0.3
		c0,0,0,0,0,0h3.3c0.2,0,0.3,0.1,0.3,0.3v19.5c0,0.2-0.1,0.3-0.3,0.3h-3.5c-0.2,0-0.4-0.1-0.5-0.3l-7.1-12.6h-0.1v12.6
		c0,0.1-0.1,0.3-0.2,0.3c0,0,0,0,0,0H91c-0.2,0-0.3-0.1-0.3-0.3c0,0,0,0,0,0L90.8,35.3L90.8,35.3z"/>
	<path d="M110.1,35.3c0-0.2,0.1-0.3,0.3-0.3c0,0,0,0,0,0h3.8c0.1,0,0.3,0.1,0.3,0.2c0,0,0,0,0,0v19.5c0,0.2-0.1,0.3-0.3,0.3h-3.8
		c-0.2,0-0.3-0.1-0.3-0.3c0,0,0,0,0,0V35.3z"/>
</g>
</svg>
