<?xml version="1.0" encoding="utf-8"?>
<!-- Generator: Adobe Illustrator 24.1.2, SVG Export Plug-In . SVG Version: 6.00 Build 0)  -->
<svg version="1.1" id="Слой_1" xmlns="http://www.w3.org/2000/svg" xmlns:xlink="http://www.w3.org/1999/xlink" x="0px" y="0px"
	 viewBox="0 0 612 136.3" style="enable-background:new 0 0 612 136.3;" xml:space="preserve">
<style type="text/css">
	.st0{fill:#FFFFFF;}
	.st1{fill:#AA198D;}
	.st2{fill:#F9BE00;}
	.st3{fill:#3FAE2A;}
	.st4{fill:#E81D27;}
	.st5{fill:#FF671B;}
	.st6{fill:#009578;}
	.st7{fill:#E7417A;}
	.st8{fill:#0082CA;}
	.st9{clip-path:url(#SVGID_2_);}
	.st10{fill:#001689;}
	.st11{font-family:'ArialMT';}
	.st12{font-size:44.6555px;}
</style>
<g>
	<path class="st0" d="M25.1,136.3l8.4-14.4H16.7l8.4-14.4H0l12.5-21.6h12.8l-8.4-14.4h16.8l-8.4-14.4h45.4l-8.3,14.5h16.7L70.7,86
		h12.8l12.4,21.6H70.7L79,122H62.4l8.3,14.3H25.1z"/>
	<path class="st0" d="M27.1,135.3l8.4-14.4H18.7l8.4-14.4H1.9L13,87.2h14l-8.4-14.4h16.7l-8.4-14.4h41.7l-8.4,14.4h16.7l-8.4,14.4
		h13.8l11.3,19.3H68.7l8.4,14.4H60.4l8.4,14.4L27.1,135.3z"/>
	<path class="st1" d="M47.9,104.1l8.4,14.4l8.2,14.4H31.2l8.4-14.4L47.9,104.1z"/>
	<path class="st2" d="M47.9,89.5l-8.4-14.4l-8.4-14.4h33.3l-8.2,14.4L47.9,89.5z"/>
	<path class="st3" d="M64.4,89.5H47.9l8.4-14.4h16.5L64.4,89.5z"/>
	<path class="st4" d="M22.8,104.1H6.3l8.2-14.6h16.7L22.8,104.1z"/>
	<path class="st5" d="M31.2,89.5h16.7l-8.4-14.4H22.8L31.2,89.5z"/>
	<path class="st6" d="M72.8,104.1h16.7l-8.4-14.6H64.4L72.8,104.1z"/>
	<path class="st7" d="M31.2,104.1h16.7l-8.4,14.4H22.8L31.2,104.1z"/>
	<path class="st8" d="M64.4,104.1H47.9l8.4,14.4h16.5L64.4,104.1z"/>
	<g>
		<defs>
			<rect id="SVGID_1_" x="22.8" y="89.5" width="50" height="14.4"/>
		</defs>
		<clipPath id="SVGID_2_">
			<use xlink:href="#SVGID_1_"  style="overflow:visible;"/>
		</clipPath>
		<g class="st9">
			<path class="st10" d="M31.2,89.5l-8.4,14.6h50l-8.4-14.6H31.2z"/>
		</g>
	</g>
	<path class="st10" d="M56.3,75.1H39.5l4.1,7.2l4.3,7.2l4.1-7.2L56.3,75.1z"/>
	<path class="st10" d="M39.5,118.5h16.7l-8.4-14.4L39.5,118.5z"/>
	<path class="st10" d="M589.2,75.1h-12.1l-15.9,20.6l16.7,22.6h15.2l-18.9-24.5L589.2,75.1z M547.2,118.5h13V75.1h-13V118.5z
		 M526.2,96.2v5.3l0,0c-0.7-1.7-1.6-3.4-2.7-4.9l-14.5-21.3h-13.8v43.2h9.6V90.1l0,0c0.6,1.4,1.4,2.8,2.3,4.1l17.7,24.3h11.5V75.1
		h-9.6v21L526.2,96.2z M471.5,75.2l18.3,43.2H476l-4.5-10.5h-19.7l-4.8,10.5h-9.8l19.9-43.2L471.5,75.2z M468.6,101.1l-4.9-11.3
		c-0.6-1.7-1.1-3.3-1.6-5.1l0,0c-0.4,1.8-1.3,3.2-1.9,5.3l-5.1,11.3h13.6L468.6,101.1z M278.8,99.1L278.8,99.1
		c5.7-1.4,9.6-6.5,9.6-12.3c0-8-6.8-11.5-16.1-11.5h-23.8v43.2h13V81.1h4.7c5.1,0,8.8,1.8,8.8,7.4c0.2,4.2-3.1,7.8-7.3,8
		c-0.4,0-0.9,0-1.3,0h-3.2l15.9,22h14.6c0,0-11.3-15.4-12.1-16.4C280.9,101.2,278.9,99.3,278.8,99.1 M203,118.5h-13.8l-4.5-10.5
		h-19.7l-4.9,10.5h-9.6l19.9-43.2h14.4L203,118.5z M181.6,100.9l-4.8-11.3c-0.6-1.7-1.2-3.3-1.6-5.1l0,0c-0.4,1.8-1.4,3.2-1.9,5.3
		l-5.1,11.4h13.6L181.6,100.9z M197.4,82.7h16.4v35.8h13V82.7h15.9v-7.4h-45v7.4L197.4,82.7z M299,118.5h13V75.1h-13V118.5z
		 M351.7,75.1l18.3,43.2h-13.8l-4.5-10.5h-19.7l-4.8,10.5h-9.6l19.8-43.2H351.7z M348.5,100.9l-4.9-11.3c-0.6-1.7-1.1-3.3-1.6-5.1
		l0,0c-0.4,1.8-1.3,3.2-1.9,5.3l-5,11.4h13.6L348.5,100.9z M127.4,81.1h3.9c5.1,0,9.3,1.8,9.3,7.4c0,4.9-3.5,8-9.2,8h-2.2l4.7,6.4
		c5.2,0.8,20.6-1.5,20.4-14.6c-0.2-8-6.8-13-16.1-13h-23.6v43.2h13L127.4,81.1z M436.1,102.9c2.1,7.4-1.9,14-13.2,15.4h-0.2
		c-1.4,0.2-2.7,0.2-4.1,0.2H395V75.1h23.5c9.3,0,14.4,4.3,13.8,12.2c-0.7,4.2-4,7.4-8.2,8c2.8,0.1,5.5,1,7.8,2.6l0,0
		C434,98.9,435.5,100.7,436.1,102.9 M412,81.1h-3.9v12.8h5.5c3.6-0.1,6.4-3,6.4-6.6C419.9,82.8,417,81.2,412,81.1 M408.1,112.5h7.4
		c0,0,6.8,0.4,7.2-5.6v-0.8c0-0.7-0.2-1.5-0.4-2.1c-1.5-5.1-8.9-4.9-8.9-4.9h-5.3L408.1,112.5z M603.1,88.2c-4.6,0-8.3-3.6-8.4-8.2
		c0,0,0,0,0,0l0,0c-0.1-4.6,3.6-8.4,8.2-8.5c4.6-0.1,8.4,3.6,8.5,8.2l0,0V80c0.1,4.6-3.6,8.3-8.1,8.4c0,0,0,0-0.1,0h-0.2
		 M603.1,72.8c-4-0.3-7.5,2.6-7.8,6.6c-0.3,4,2.6,7.5,6.6,7.8c4,0.3,7.5-2.6,7.8-6.6c0-0.2,0-0.4,0-0.6
		C609.8,76.2,606.8,73,603.1,72.8 M604.8,83.9L604.8,83.9l-2.9-4.5h0.6c1.1,0,1.8-0.6,1.8-1.5c0-1-0.8-1.4-1.9-1.4h-0.8v7.4h-2.1
		v-8.4h3.7c1.8,0,3.2,0.6,3.2,2.1c0,1.2-0.8,2.2-1.9,2.4l2.7,3.9L604.8,83.9z"/>
	<g>
		<text transform="matrix(1 0 0 1 0 38.3213)" class="st10 st11 st12">o inițiati</text>
		<text transform="matrix(1 0 0 1 151.0645 38.3213)" class="st10 st11 st12">v</text>
		<text transform="matrix(1 0 0 1 171.5098 38.3213)" class="st10 st11 st12">ă </text>
		<text transform="matrix(1 0 0 1 205.416 38.3213)" class="st10 st11 st12">r</text>
		<text transform="matrix(1 0 0 1 222.2891 38.3213)" class="st10 st11 st12">ealizată și susținută</text>
	</g>
</g>
</svg>
