<?xml version="1.0" encoding="utf-8"?>
<!-- Generator: Adobe Illustrator 24.1.2, SVG Export Plug-In . SVG Version: 6.00 Build 0)  -->
<svg version="1.1" id="Слой_1" xmlns="http://www.w3.org/2000/svg" xmlns:xlink="http://www.w3.org/1999/xlink" x="0px" y="0px"
	 viewBox="0 0 228.8 57.9" style="enable-background:new 0 0 228.8 57.9;" xml:space="preserve">
<style type="text/css">
	.st0{fill:#FFFFFF;}
	.st1{fill:#AA198D;}
	.st2{fill:#F9BE00;}
	.st3{fill:#3FAE2A;}
	.st4{fill:#E81D27;}
	.st5{fill:#FF671B;}
	.st6{fill:#009578;}
	.st7{fill:#E7417A;}
	.st8{fill:#0082CA;}
	.st9{clip-path:url(#SVGID_2_);}
	.st10{fill:#001689;}
	.st11{font-family:'ArialMT';}
	.st12{font-size:14px;}
</style>
<g>
	<path class="st0" d="M44.9,50l2.6-4.5h-5.3l2.6-4.5h-7.9l3.9-6.8h4l-2.6-4.5h5.3L45,25.1h14.2l-2.6,4.5h5.3l-2.6,4.5h4l3.9,6.8
		h-7.9l2.6,4.5h-5.2l2.6,4.5H44.9z"/>
	<path class="st0" d="M45.6,49.6l2.6-4.5h-5.3l2.6-4.5h-7.9l3.5-6h4.4l-2.6-4.5h5.3l-2.6-4.5h13.1L56,30.1h5.3l-2.6,4.5H63l3.5,6
		h-7.9l2.6,4.5H56l2.6,4.5L45.6,49.6z"/>
	<path class="st1" d="M52.1,39.9l2.6,4.5l2.6,4.5H46.8l2.6-4.5L52.1,39.9z"/>
	<path class="st2" d="M52.1,35.3l-2.6-4.5l-2.6-4.5h10.4l-2.6,4.5L52.1,35.3z"/>
	<path class="st3" d="M57.3,35.3h-5.2l2.6-4.5h5.2L57.3,35.3z"/>
	<path class="st4" d="M44.2,39.9H39l2.6-4.6h5.3L44.2,39.9z"/>
	<path class="st5" d="M46.8,35.3h5.2l-2.6-4.5h-5.3L46.8,35.3z"/>
	<path class="st6" d="M59.9,39.9h5.2l-2.6-4.6h-5.3L59.9,39.9z"/>
	<path class="st7" d="M46.8,39.9h5.2l-2.6,4.5h-5.3L46.8,39.9z"/>
	<path class="st8" d="M57.3,39.9h-5.2l2.6,4.5h5.2L57.3,39.9z"/>
	<g>
		<defs>
			<rect id="SVGID_1_" x="44.2" y="35.3" width="15.7" height="4.5"/>
		</defs>
		<clipPath id="SVGID_2_">
			<use xlink:href="#SVGID_1_"  style="overflow:visible;"/>
		</clipPath>
		<g class="st9">
			<path class="st10" d="M46.8,35.3l-2.6,4.6h15.7l-2.6-4.6H46.8z"/>
		</g>
	</g>
	<path class="st10" d="M54.7,30.8h-5.3l1.3,2.3l1.3,2.3l1.3-2.3L54.7,30.8z"/>
	<path class="st10" d="M49.5,44.4h5.3l-2.6-4.5L49.5,44.4z"/>
	<path class="st10" d="M221.8,30.8H218l-5,6.5l5.2,7.1h4.8l-5.9-7.7L221.8,30.8z M208.6,44.4h4.1V30.8h-4.1V44.4z M202,37.4V39l0,0
		c-0.2-0.5-0.5-1.1-0.9-1.5l-4.6-6.7h-4.3v13.5h3v-8.9l0,0c0.2,0.5,0.4,0.9,0.7,1.3l5.5,7.6h3.6V30.8h-3v6.6L202,37.4z M184.9,30.8
		l5.7,13.5h-4.3l-1.4-3.3h-6.2l-1.5,3.3h-3.1l6.2-13.5L184.9,30.8z M184,38.9l-1.5-3.5c-0.2-0.5-0.4-1-0.5-1.6l0,0
		c-0.1,0.5-0.4,1-0.6,1.6l-1.6,3.5L184,38.9L184,38.9z M124.5,38.3L124.5,38.3c1.8-0.4,3-2,3-3.9c0-2.5-2.1-3.6-5.1-3.6H115v13.5
		h4.1V32.7h1.5c1.6,0,2.8,0.5,2.8,2.3c0.1,1.3-1,2.4-2.3,2.5c-0.1,0-0.3,0-0.4,0h-1l5,6.9h4.6c0,0-3.5-4.8-3.8-5.1
		S124.5,38.4,124.5,38.3 M100.7,44.4h-4.3L95,41.1h-6.2l-1.5,3.3h-3l6.2-13.5H95L100.7,44.4z M94,38.9l-1.5-3.5
		c-0.2-0.5-0.4-1-0.5-1.6l0,0c-0.1,0.5-0.4,1-0.6,1.6L89.8,39L94,38.9L94,38.9z M98.9,33.2h5.1v11.2h4.1V33.2h5v-2.3H99.1v2.3
		L98.9,33.2z M130.8,44.4h4.1V30.8h-4.1V44.4z M147.3,30.8l5.7,13.5h-4.3l-1.4-3.3h-6.2l-1.5,3.3h-3l6.2-13.5H147.3z M146.3,38.9
		l-1.5-3.5c-0.2-0.5-0.4-1-0.5-1.6l0,0c-0.1,0.5-0.4,1-0.6,1.6l-1.6,3.6L146.3,38.9L146.3,38.9z M77,32.7h1.2c1.6,0,2.9,0.5,2.9,2.3
		c0,1.5-1.1,2.5-2.9,2.5h-0.7l1.5,2c1.6,0.3,6.5-0.5,6.4-4.6c-0.1-2.5-2.1-4.1-5.1-4.1H73v13.5h4.1L77,32.7z M173.8,39.5
		c0.7,2.3-0.6,4.4-4.1,4.8h-0.1c-0.4,0-0.9,0.1-1.3,0.1h-7.4V30.8h7.4c2.9,0,4.5,1.3,4.3,3.8c-0.2,1.3-1.2,2.3-2.6,2.5
		c0.9,0,1.7,0.3,2.4,0.8l0,0C173.1,38.2,173.6,38.8,173.8,39.5 M166.2,32.7H165v4h1.7c1.1,0,2-1,2-2.1
		C168.7,33.2,167.8,32.7,166.2,32.7 M165,42.5h2.3c0,0,2.1,0.1,2.3-1.8v-0.2c0-0.2-0.1-0.5-0.1-0.7c-0.5-1.6-2.8-1.5-2.8-1.5H165
		L165,42.5z M226.1,34.9c-1.4,0-2.6-1.1-2.6-2.6c0,0,0,0,0,0l0,0c0-1.4,1.1-2.6,2.6-2.7c1.4,0,2.6,1.1,2.7,2.6l0,0v0.1
		C228.8,33.7,227.6,34.9,226.1,34.9C226.2,34.9,226.2,34.9,226.1,34.9L226.1,34.9 M226.1,30.1c-1.2-0.1-2.3,0.8-2.5,2.1
		c-0.1,1.2,0.8,2.3,2.1,2.5c1.2,0.1,2.3-0.8,2.5-2.1c0-0.1,0-0.1,0-0.2C228.2,31.1,227.3,30.1,226.1,30.1 M226.7,33.5L226.7,33.5
		l-0.9-1.4h0.2c0.4,0,0.5-0.2,0.5-0.5s-0.3-0.4-0.6-0.4h-0.3v2.3H225v-2.6h1.2c0.5,0,1,0.2,1,0.7c0,0.4-0.3,0.7-0.6,0.7l0.9,1.2
		L226.7,33.5z"/>
	<g>
		<text transform="matrix(1 0 0 1 37.0699 19.2501)" class="st10 st11 st12">o inițiati</text>
		<text transform="matrix(1 0 0 1 84.4299 19.2501)" class="st10 st11 st12">v</text>
		<text transform="matrix(1 0 0 1 90.8399 19.2501)" class="st10 st11 st12">ă </text>
		<text transform="matrix(1 0 0 1 101.4699 19.2501)" class="st10 st11 st12">r</text>
		<text transform="matrix(1 0 0 1 106.7599 19.2501)" class="st10 st11 st12">ealizată și susținută</text>
	</g>
	<path d="M0,0.3C0,0.1,0.1,0,0.2,0h2.9c0.1,0,0.2,0.1,0.2,0.3v57.2c0,0.2-0.1,0.3-0.2,0.3H0.2c-0.1,0-0.2-0.1-0.2-0.3V0.3z"/>
</g>
</svg>
