<svg xmlns="http://www.w3.org/2000/svg" width="512" height="512" viewBox="0 0 512 512">
    <g>
        <path d="M415.547 116.304C372.406 98.052 315.745 88 256 88S139.594 98.052 96.453 116.304C44.573 138.254 16 170.819 16 208a239.763 239.763 0 0 0 70.226 169.54A157.587 157.587 0 0 0 198.392 424h115.216a157.587 157.587 0 0 0 112.166-46.46A239.763 239.763 0 0 0 496 208c0-37.181-28.572-69.746-80.453-91.696zm-312.86 14.735C143.901 113.603 198.348 104 256 104s112.1 9.603 153.313 27.04C454.895 150.324 480 177.656 480 208s-25.104 57.675-70.688 76.96C368.1 302.398 313.653 312 256 312s-112.1-9.603-153.313-27.04C57.104 265.676 32 238.344 32 208s25.104-57.675 70.687-76.96zm360.28 162.592a222.662 222.662 0 0 1-48.506 72.595A141.696 141.696 0 0 1 313.608 408H198.392A141.696 141.696 0 0 1 97.54 366.226a224.008 224.008 0 0 1-59.08-104.813c13.58 14.762 33.093 27.748 57.994 38.283C139.594 317.948 196.255 328 256 328s116.406-10.052 159.547-28.304c24.9-10.535 44.415-23.52 57.995-38.283a224.213 224.213 0 0 1-10.575 32.218z"/>
        <path d="M105.805 277.593C146.055 294.623 199.395 304 256 304s109.945-9.378 150.195-26.407C448.63 259.64 472 234.925 472 208s-23.37-51.64-65.805-69.593C365.945 121.377 312.605 112 256 112s-109.945 9.378-150.195 26.407C63.37 156.36 40 181.075 40 208s23.37 51.64 65.805 69.593zm69.25 3.393C187.672 267.756 216.725 256 256 256s68.328 11.755 80.945 24.986A454.261 454.261 0 0 1 256 288a454.26 454.26 0 0 1-80.945-7.014zM112.04 153.143C150.361 136.929 201.488 128 256 128s105.639 8.93 143.96 25.143C435.576 168.209 456 188.205 456 208s-20.425 39.79-56.04 54.857a281.911 281.911 0 0 1-45.59 14.517C340.33 255.084 301.436 240 256 240s-84.33 15.084-98.37 37.374a281.913 281.913 0 0 1-45.59-14.517C76.424 247.791 56 227.795 56 208s20.425-39.79 56.04-54.857z"/>
    </g>
</svg>
