<svg xmlns="http://www.w3.org/2000/svg" enable-background="new 0 0 512 512" viewBox="0 0 512 512">
    <path d="M127.692 383.89c-18.848.014-34.118 15.302-34.108 34.15.009 18.848 15.294 34.121 34.142 34.117 18.848-.005 34.125-15.285 34.125-34.133-.026-18.851-15.309-34.123-34.159-34.134zm0 51.2c-9.422-.014-17.051-7.661-17.042-17.083.009-9.422 7.653-17.055 17.075-17.05 9.422.005 17.058 7.644 17.058 17.067-.015 9.428-7.662 17.064-17.091 17.066zM401.117 383.89c-18.849.009-34.123 15.296-34.116 34.145s15.29 34.125 34.139 34.122c18.849-.003 34.128-15.284 34.128-34.133-.03-18.847-15.305-34.114-34.151-34.134zm0 51.2c-9.423-.009-17.056-7.655-17.05-17.078.006-9.423 7.649-17.058 17.072-17.055 9.423.003 17.061 7.643 17.061 17.067-.016 9.425-7.658 17.059-17.083 17.066z"/>
    <path d="M486.4 264.423h-8.533v-47.188c-.041-3.96-.964-7.861-2.7-11.421l-23.887-47.608-12.288-24.662c-4.368-8.654-13.214-14.133-22.908-14.188h-74.917c-9.421.011-17.056 7.645-17.067 17.067v136.533h-18.472c1.012-2.733 1.544-5.62 1.572-8.533V51.09c-.015-14.132-11.468-25.585-25.6-25.6h-256C11.468 25.505.015 36.958 0 51.09v213.333c.02 6.319 2.394 12.404 6.658 17.067C2.394 286.153.02 292.238 0 298.557v51.2c-.001 2.263.898 4.434 2.499 6.035 1.6 1.6 3.771 2.499 6.035 2.499H25.6v42.667c.015 14.132 11.468 25.585 25.6 25.6h8.776c4.294 34.132 33.319 59.733 67.72 59.733 34.401 0 63.425-25.601 67.72-59.733h17.693c.011 9.421 7.645 17.056 17.067 17.067h51.25c9.421-.011 17.056-7.645 17.067-17.067h34.901c3.294 26.812 22.085 49.16 47.934 57.007 25.848 7.846 53.893-.285 71.535-20.741 17.642-20.456 21.565-49.391 10.006-73.806l12.248-30.727H486.4c14.132-.015 25.585-11.468 25.6-25.6v-42.667c-.015-14.133-11.468-25.585-25.6-25.601zm-196.267-209.8V260.89L187 157.757 290.133 54.623zm-12.066 218.334H29.133l103.131-103.131 3.235 3.235c10.006 9.974 26.196 9.972 36.2-.004l3.234-3.233 103.134 103.133zm-.001-230.4L159.633 160.986c-3.332 3.33-8.732 3.332-12.067.004L29.133 42.557h248.933zM17.067 54.624l103.131 103.135L17.067 260.89V54.624zm0 286.599v-42.667c.005-4.711 3.822-8.529 8.533-8.533h298.5v42.75l.082 8.45H191.267l-23.1-23.1c-1.6-1.601-3.77-2.501-6.034-2.5H93.867c-2.263 0-4.434.899-6.033 2.5l-23.1 23.1H17.067zm110.625 128c-27.723-.029-50.396-22.101-51.171-49.813.373-.887.373-1.887 0-2.774.75-28.104 24.014-50.35 52.123-49.844 28.109.506 50.557 23.575 50.296 51.687-.262 28.113-23.134 50.761-51.248 50.744zm102.483-42.666v-34.133h51.25l.006 25.569-.006.031.006.031.002 8.502h-51.258zm170.942 42.666c-28.27-.028-51.168-22.963-51.15-51.233.018-28.27 22.946-51.176 51.217-51.167 28.271.009 51.183 22.93 51.183 51.2-.046 28.278-22.973 51.182-51.25 51.2zm50.209-97.332c-12.891-14.093-31.109-22.125-50.209-22.135-34.384.046-63.384 25.624-67.723 59.733h-34.901v-17.067c-.011-9.421-7.645-17.056-17.067-17.067h-51.25c-9.421.011-17.056 7.645-17.067 17.067v17.067h-17.693c-4.294-34.132-33.319-59.733-67.72-59.733-34.401 0-63.425 25.601-67.72 59.733H51.2c-4.711-.005-8.529-3.823-8.533-8.533V358.29h25.6c2.263 0 4.434-.899 6.033-2.5l23.1-23.1h61.2l23.1 23.1c1.6 1.601 3.77 2.501 6.034 2.5h144.925l.071-.014.071.014h8.533c2.263 0 4.434-.899 6.033-2.5l23.1-23.1h61.2l23.1 23.1c.69.652 1.485 1.183 2.351 1.572l-5.792 14.529zm9.474-34.201l-19.567-19.567c-1.6-1.601-3.77-2.5-6.033-2.5h-68.267c-2.263 0-4.433.899-6.033 2.5l-19.683 19.683-.014-55.67c.017-.225.13-.417.13-.647 0-.23-.113-.423-.131-.648l-.036-144.418h74.917c3.236.024 6.186 1.856 7.642 4.746l6.142 12.321h-45.95c-9.421.011-17.056 7.646-17.067 17.067v51.2c.011 9.421 7.646 17.056 17.067 17.067h34.133c1.742 0 42.75.388 42.75 34.133v64.733zm0-101.87c-12.371-9.154-27.36-14.085-42.75-14.063h-34.133v-51.2h54.471l21.412 42.675c.621 1.246.962 2.612 1 4.004v18.584zm34.133 96.87c-.005 4.711-3.822 8.529-8.533 8.533h-8.533V281.49h8.533c4.711.005 8.529 3.823 8.533 8.533v42.667z"/>
    <path d="M392.442 264.423h-25.617c-4.713 0-8.533 3.82-8.533 8.533s3.821 8.533 8.533 8.533h25.617c4.713 0 8.533-3.82 8.533-8.533s-3.82-8.533-8.533-8.533z"/>
</svg>
