<svg xmlns="http://www.w3.org/2000/svg" width="511pt" height="511pt" viewBox="-10 0 511 511.999">
    <path d="M213.422 301.11c24.035 0 40.973-2.114 42.898-2.364 6.743-.883 12.047-6.187 12.93-12.93.133-1.03.805-6.39 1.395-14.84 2.57.051 5.218.083 7.96.083 18.387 0 40.438-1.227 63.063-5.266 41.937-7.492 74.562-22.656 96.973-45.066 64.988-64.989 52.117-200.184 51.539-205.907-.72-7.09-6.325-12.695-13.41-13.414-5.727-.578-140.922-13.449-205.91 51.54-13.465 13.464-24.313 30.667-32.462 51.347-4.976-7.652-10.66-14.84-17.171-21.348-64.989-64.992-200.188-52.12-205.91-51.543-7.087.72-12.692 6.325-13.41 13.414-.579 5.723-13.45 140.918 51.538 205.907 42.735 42.734 114.223 50.386 159.977 50.386zm-72.09-109.07H50.117c-15.824-36.435-19.285-80.892-19.515-110.731zm41.316 77.726c-61.226-5.239-92.52-24.782-107.992-40.254-2.363-2.364-4.597-4.864-6.719-7.477h103.391l48.942 48.945c-10.895.188-23.82-.035-37.622-1.214zm234.782-70.25c-37.387 37.386-106.317 42.144-145.625 41.476l91.949-91.949h83.156c-8.734 25.238-19.926 40.918-29.48 50.473zm42.062-110.594c-1.133 10.965-2.68 20.969-4.527 30.125H393.75l67.77-67.77c-.082 10.938-.606 23.848-2.028 37.645zm-129.949 51.91V49.617c36.437-15.82 80.89-19.285 110.73-19.515zM292.07 74.156c2.364-2.363 4.867-4.597 7.477-6.719v103.391l-30.184 30.188c-2.027-18.254-5.676-37.672-11.906-56.356 6.84-30.637 18.465-54.355 34.613-70.504zm-64.586 75.469c.176.629.391 1.238.649 1.832 11.8 33.715 13.773 71.961 13.324 98.29l-91.914-91.915v-83.16c25.238 8.738 40.918 19.926 50.473 29.48 12.425 12.426 21.25 28.32 27.468 45.473zM119.547 66.617v61.215L51.78 60.066c10.938.082 23.844.602 37.64 2.028 10.966 1.133 20.97 2.676 30.126 4.523zm0 0M143.055 357.664c6.5 0 10.25-6.75 10.25-14.5 0-6.75-3.25-14-10.25-14H54.062c-7.25 0-14.246 3.5-14.246 10.25v162.234c0 6.75 6.996 10.25 14.246 10.25h88.993c7 0 10.25-7.25 10.25-14 0-7.746-3.75-14.496-10.25-14.496H72.312v-50.246h37.997c7 0 10.25-6.75 10.25-12.5 0-6.75-3.75-12.996-10.25-12.996H72.313v-49.996zm0 0M241.797 356.262c23.746 0 25.496 17 25.996 24.75.25 7.5 7 10.25 16.25 10.25 11 0 16.246-3 16.246-16 0-28.996-24.746-47.496-59.492-47.496-31.5 0-57.746 15.5-57.746 57.246v69.742c0 41.746 25.996 57.246 57.496 57.246 34.996 0 59.742-19.25 59.742-49.496 0-12.75-5.246-16-16.496-16-8.5 0-15.5 2.5-16 10.25-.75 10.5-2.75 26.746-25.496 26.746-17.25 0-26.75-9.246-26.75-28.746v-69.742c0-19.5 9.5-28.75 26.25-28.75zm0 0M391.281 327.766c-33 0-58.496 15.5-58.496 57.246v69.742c0 41.746 25.496 57.246 58.496 57.246 32.996 0 58.742-15.5 58.742-57.246v-69.742c0-41.746-25.746-57.246-58.742-57.246zm26.246 126.988c0 19.75-10 28.746-26.246 28.746-16.5 0-26-8.996-26-28.746v-69.742c0-19.75 9.5-28.75 26-28.75 16.246 0 26.246 9 26.246 28.75zm0 0"/>
</svg>
