<svg xmlns="http://www.w3.org/2000/svg" width="512" height="512" viewBox="0 0 512 512">
    <g>
        <path d="M213.386 166.24l-161.33 91.42 7.888 13.92 161.33-91.42a32.03 32.03 0 0 1 34.824 2.126l139.14 103.068 9.524-12.857-139.14-103.068a48.037 48.037 0 0 0-52.236-3.19z"/>
        <path d="M155.261 248.312h16v183.127h-16z" transform="rotate(-48.93 163.427 339.966)"/>
        <path d="M189.632 228.164h16V407.88h-16z" transform="rotate(-49.83 197.537 318.033)"/>
        <path d="M223.972 208.02h16.001v176.298h-16.001z" transform="rotate(-50.73 231.795 296.138)"/>
        <path d="M258.278 187.879h16v172.87h-16z" transform="rotate(-51.61 266.197 274.216)"/>
        <path d="M292.657 167.693h16v169.708h-16z" transform="rotate(-52.55 300.433 252.47)"/>
        <path d="M461.138 16a42.952 42.952 0 0 0-28.293 10.63 419.655 419.655 0 0 0-90.757 112.34l-3.284 5.91-32.264 6.453-40.878-30.28a48.034 48.034 0 0 0-52.235-3.19L37.948 217.301a42.715 42.715 0 0 0-21.589 32.588 44.232 44.232 0 0 0-.265 6.111H16v46.357a48.107 48.107 0 0 0 15.635 35.447l147.856 135a47.913 47.913 0 0 0 58.99 4.49L410.626 362.53A47.902 47.902 0 0 0 432 322.593v-50.517c.006-.195.025-.387.03-.582a51.225 51.225 0 0 0-20.967-42.736L392 214.637v-36.499a316.42 316.42 0 0 1 79.823-91.421l10.719-8.337A34.862 34.862 0 0 0 461.138 16zM401.75 349.218L229.606 463.981a31.943 31.943 0 0 1-39.327-2.994L42.423 325.988A32.07 32.07 0 0 1 32 302.357v-13.932l147.268 135.94a47.807 47.807 0 0 0 59.477 4.47l170.536-115.524h.001a53.253 53.253 0 0 0 6.718-5.409v14.69a31.937 31.937 0 0 1-14.249 26.626zm14.282-78.06a35.412 35.412 0 0 1-15.724 28.906L229.77 415.588a31.87 31.87 0 0 1-39.65-2.98L40.807 274.781a27.143 27.143 0 0 1 5.029-43.56l175.478-99.438a32.025 32.025 0 0 1 34.824 2.127L401.54 241.615a35.413 35.413 0 0 1 14.493 29.542zM472.72 65.75L462 74.087a332.417 332.417 0 0 0-84.947 97.944A8.004 8.004 0 0 0 376 176v26.785l-52.115-38.603 21.684-4.337a8 8 0 0 0 5.424-3.96l5.081-9.145A403.723 403.723 0 0 1 443.38 38.672 26.962 26.962 0 0 1 461.138 32a18.862 18.862 0 0 1 11.58 33.751z"/>
    </g>
</svg>
