<svg xmlns="http://www.w3.org/2000/svg" width="512" height="512" viewBox="0 0 512 512">
    <g>
        <path d="M101.62 387.066c-9.226-17.302-7.072-39.644 6.066-62.909 13.792-24.422 37.792-46.622 67.58-62.509 41.64-22.211 88.386-27.835 119.094-14.326l6.443-14.644c-35.567-15.65-86.556-9.956-133.068 14.853-32.438 17.301-58.712 41.72-73.981 68.759-15.923 28.195-18.144 56.005-6.253 78.304z"/>
        <circle cx="296" cy="200" r="8"/>
        <circle cx="456" cy="64" r="8"/>
        <circle cx="328" cy="216" r="8"/>
        <path d="M454.06 24a41.666 41.666 0 0 0-29.658 12.284L399.917 60.77a89.767 89.767 0 0 0-21.577 34.91l-3.859 11.579a73.684 73.684 0 0 1-17.711 28.657 72.901 72.901 0 0 1-39.789 20.477l-20.795 3.465a158.61 158.61 0 0 0-27.976-5.614c-42.158-4.701-89.668 5.25-133.772 28.034-44.105 22.785-79.716 55.768-100.276 92.874-21.141 38.156-23.984 76.203-8.005 107.134a90.603 90.603 0 0 0 15.062 21.077l13.686 15.62a153.98 153.98 0 0 0 134.991 51.342l14.408-1.8A210.941 210.941 0 0 0 361.29 363.865 154.034 154.034 0 0 0 368 224.17v-9.91a65.056 65.056 0 0 1 40.893-60.4l12.156-4.862a80.617 80.617 0 0 0 27.21-17.942l35.457-35.456A41.942 41.942 0 0 0 454.059 24zM48.156 282.906c19.046-34.374 52.296-65.062 93.625-86.413 34.694-17.923 71.46-27.393 105.474-27.393a172.843 172.843 0 0 1 19.18 1.046c33.93 3.787 60.136 17.565 74.89 39.114.35.509.684 1.026 1.026 1.54 1.312 2.022 2.535 4.105 3.648 6.258 13.444 26.024 10.68 58.71-7.786 92.036-19.045 34.374-52.295 65.062-93.624 86.413-41.327 21.35-85.592 30.71-124.653 26.347-37.864-4.226-66.121-20.886-79.565-46.912-13.444-26.024-10.68-58.71 7.785-92.036zm299.241 73.023a194.946 194.946 0 0 1-145.079 96.718l-14.407 1.801a137.91 137.91 0 0 1-91.295-20.54 163.213 163.213 0 0 0 21.545 3.848 188.443 188.443 0 0 0 20.89 1.14c36.584 0 75.93-10.085 112.882-29.174 44.105-22.784 79.716-55.768 100.276-92.874a154.661 154.661 0 0 0 13.35-31.57 137.876 137.876 0 0 1-18.162 70.65zM472.402 84.284l-35.456 35.456a64.71 64.71 0 0 1-21.84 14.402l-12.155 4.86a81.109 81.109 0 0 0-49.46 59.703 96.754 96.754 0 0 0-30.23-27.218 88.77 88.77 0 0 0 44.822-24.257 89.767 89.767 0 0 0 21.577-34.91l3.859-11.579a73.684 73.684 0 0 1 17.711-28.657l24.486-24.485a25.94 25.94 0 0 1 36.686 36.685z"/>
    </g>
</svg>
