<svg xmlns="http://www.w3.org/2000/svg" width="511pt" height="511pt" viewBox="0 0 511.998 511">
    <g fill="rgb(0%,0%,0%)">
        <path d="M511.84 226.781v-.004c-.836-7.976-4.969-15.328-11.336-20.199l-29.14-22.687 10.952-36.141c2.336-7.71 1.368-16.137-2.66-23.121-4.031-6.98-10.844-12.031-18.691-13.867l-36.66-8.559-4.68-37.351c-1.004-8-5.316-15.305-11.832-20.032-6.523-4.746-14.809-6.593-22.719-5.07l-36.972 7.09-19.473-32.223C320.879 1.793 304.605-3.05 290.785 3.34c-.973.45-1.91.988-2.726 1.566l-32.09 22.352-30.895-21.52c-6.613-4.601-14.922-6.277-22.804-4.605-7.883 1.672-14.797 6.594-18.965 13.492L163.84 46.844l-36.977-7.094c-7.918-1.516-16.195.332-22.707 5.066C97.633 49.555 93.32 56.86 92.32 64.852l-4.68 37.355-38.773 9.05-1.82.595-.672.293c-14.086 6.16-21.133 21.136-16.75 35.605l10.95 36.14-30.391 23.641-1.762 1.531-.496.543c-10.2 11.141-10.598 27.993-.95 39.258l23.794 28.453-19.286 34.997-.77 1.75-.222.652c-4.808 14.37 1.742 29.988 15.235 36.32l34.078 15.992-3.192 37.508c-.683 8.035 2.02 16.078 7.41 22.063 5.391 5.988 13.106 9.515 21.168 9.68l37.637.75 12.344 35.558c2.64 7.617 8.379 13.867 15.738 17.14 7.36 3.278 15.84 3.364 23.278.235l34.69-14.621 27.231 29.058 1.426 1.27.55.41c5.38 3.973 11.665 5.918 17.892 5.918 7.878 0 15.66-3.117 21.351-9.191l25.742-27.465 34.696 14.625c7.421 3.125 15.898 3.039 23.257-.235 7.368-3.277 13.106-9.527 15.747-17.14l12.347-35.563 39.813-.793 1.89-.207.68-.136c14.844-3.028 25.09-16.508 23.828-31.352l-3.187-37.512 34.082-15.992c7.293-3.422 12.906-9.781 15.398-17.45 2.488-7.663 1.688-16.108-2.203-23.167l-18.242-33.102 23.797-28.453c5.199-6.074 7.703-14.113 6.867-22.082zm-59.043 37.668c-4.715 5.567-5.52 13.57-1.992 19.965l21.925 39.79-41.128 19.3c-6.668 3.133-10.727 10.168-10.106 17.508l3.848 45.265-45.422.907c-7.363.148-13.938 4.921-16.352 11.882l-14.898 42.918-41.86-17.644c-6.789-2.86-14.734-1.176-19.777 4.203l-31.066 33.148-31.067-33.152c-3.402-3.633-8.132-5.578-12.937-5.578-2.309 0-4.633.45-6.832 1.379l-41.867 17.644-14.895-42.906c-2.41-6.965-8.984-11.746-16.355-11.894l-45.426-.907 3.847-45.265c.626-7.34-3.437-14.375-10.105-17.508l-41.125-19.3 21.926-39.786c3.531-6.402 2.722-14.402-1.996-19.973l-28.86-34.511 35.36-27.508c5.789-4.465 8.25-12.137 6.125-19.13L58.59 139.82l44.246-10.336c7.168-1.675 12.602-7.707 13.523-15.02l5.649-45.077 44.625 8.558c7.234 1.383 14.648-1.922 18.46-8.222l23.493-38.883 37.277 25.96c6.047 4.212 14.172 4.216 20.215 0l37.277-25.964 23.497 38.875c3.804 6.309 11.234 9.617 18.468 8.23l44.618-8.558 5.648 45.074c.914 7.309 6.348 13.348 13.527 15.027l44.242 10.332-13.175 43.477c-2.121 7.008.343 14.676 6.132 19.137l35.344 27.52zm0 0"/>
        <path d="M257.563 128.781c-70.301 0-127.497 57.192-127.497 127.496 0 70.301 57.196 127.496 127.496 127.496 70.305 0 127.5-57.195 127.5-127.496 0-70.304-57.199-127.496-127.5-127.496zm0 224.969c-53.747 0-97.477-43.727-97.477-97.473 0-53.75 43.73-97.476 97.476-97.476 53.75 0 97.477 43.726 97.477 97.476 0 53.746-43.726 97.473-97.476 97.473zm0 0"/>
        <path d="M294.21 216.691l-59.222 59.22-16.07-16.075c-5.863-5.86-15.367-5.86-21.227 0-5.863 5.863-5.863 15.367 0 21.23l26.684 26.684c2.93 2.934 6.773 4.398 10.613 4.398s7.684-1.464 10.614-4.398l69.835-69.832c5.86-5.863 5.86-15.367 0-21.227-5.863-5.863-15.367-5.863-21.226 0zm0 0"/>
    </g>
</svg>
