<svg xmlns="http://www.w3.org/2000/svg" width="512" height="512" viewBox="0 0 512 512">
    <g>
        <circle cx="144" cy="344" r="8"/>
        <path d="M485.433 18.127a7.999 7.999 0 0 0-8.167-1.645A432.956 432.956 0 0 0 320.13 116.554L178.343 258.343 27.716 408.97A39.742 39.742 0 0 0 16 437.255V456a40 40 0 0 0 80 0 30.423 30.423 0 0 1 8.97-21.656l84.687-84.687 24.338-24.338a31.117 31.117 0 0 1 44.01 0l12.338 12.338a8.003 8.003 0 0 0 11.314 0l58.322-58.321A577.268 577.268 0 0 0 487.708 26.142a8.002 8.002 0 0 0-2.275-8.015zM176 340.687l-82.344 82.342A46.321 46.321 0 0 0 80 456a24 24 0 0 1-48 0v-18.745a23.843 23.843 0 0 1 7.03-16.97L176 283.312zm48.571-39.076a47.132 47.132 0 0 0-21.89 12.394L192 324.685v-57.37l139.445-139.446a416.885 416.885 0 0 1 106.502-76.952 538.775 538.775 0 0 1-126.254 200.134l-54.32 54.32a47.346 47.346 0 0 0-32.802-3.76zm104.093-33.59L276 320.687l-5.656-5.658 52.664-52.664A554.688 554.688 0 0 0 458.052 41.422q4.83-2.123 9.709-4.12a561.305 561.305 0 0 1-139.097 230.72z"/>
        <path d="M208 264h16v24h-16z"/>
        <path d="M243.029 219.999h33.941V236h-33.941z" transform="rotate(-45 259.978 228.064)"/>
        <path d="M283.029 179.999h33.941V196h-33.941z" transform="rotate(-45 299.988 188.069)"/>
        <circle cx="56" cy="456" r="8"/>
    </g>
</svg>
