<svg xmlns="http://www.w3.org/2000/svg" width="512" height="512" viewBox="0 0 512 512">
    <path d="M433.855 16a30.19 30.19 0 0 0-22.395 9.967L266.39 186.979a8 8 0 0 0 .287 11.011l2.325 2.325a430.567 430.567 0 0 0-96.48 173.847 80.885 80.885 0 0 0-8.982-4.217C147.507 363.532 126.362 360 104 360s-43.507 3.532-59.54 9.945C26.107 377.285 16 387.959 16 400v12.759A83.24 83.24 0 0 0 99.24 496h9.52A83.241 83.241 0 0 0 192 412.759V400a23.429 23.429 0 0 0-5.833-15.073l.413-1.546a414.46 414.46 0 0 1 93.75-171.738l1.68 1.68a8 8 0 0 0 11.011.287L454.033 68.54A30.145 30.145 0 0 0 433.855 16zm-273.44 439.806A67.058 67.058 0 0 1 108.759 480h-9.518a67.229 67.229 0 0 1-66.219-55.585 76.78 76.78 0 0 0 11.438 5.64C60.493 436.468 81.638 440 104 440s43.507-3.532 59.54-9.945a76.78 76.78 0 0 0 11.438-5.64 67.376 67.376 0 0 1-14.563 31.39zM104 424c-43.952 0-72-14.214-72-24s28.048-24 72-24 72 14.214 72 24-28.048 24-72 24zM443.323 56.653L287.953 196.64l-4.593-4.594 139.987-155.37a14.145 14.145 0 1 1 19.976 19.977z"/>
</svg>
