<svg xmlns="http://www.w3.org/2000/svg" width="512" height="512" viewBox="0 0 512 512">
    <path d="M447.251 168H440c0-14.752-14.355-27.236-42.668-37.106-23.96-8.353-57.433-14.44-94.398-17.183A82.201 82.201 0 0 0 280 106.167v-6.709c9.836-4.288 16-11.269 16-19.458 0-13.683-17.196-24-40-24s-40 10.317-40 24c0 8.19 6.164 15.17 16 19.458v6.71a82.209 82.209 0 0 0-22.934 7.543c-36.965 2.743-70.439 8.83-94.398 17.183C86.355 140.764 72 153.248 72 168h-8a48.04 48.04 0 0 0-47.987 49.142C16.618 242.979 38.48 264 64.749 264H72v104a88.1 88.1 0 0 0 88 88h192a88.1 88.1 0 0 0 88-88V264h8a48.04 48.04 0 0 0 47.987-49.142C495.382 189.021 473.52 168 447.251 168zM440 208h7.59a8.235 8.235 0 0 1 8.409 7.936A7.976 7.976 0 0 1 448 224h-8zM256 72c15.488 0 24 6.009 24 8s-8.512 8-24 8-24-6.009-24-8 8.512-8 24-8zm-8 56v-24.443a72.437 72.437 0 0 0 16 0V128h16v-5.499c15.54 3.47 24 9.737 24 13.499 0 5.64-18.224 16-48 16s-48-10.36-48-16c0-3.762 8.461-10.028 24-13.499V128zm-55.361 3.239A18.373 18.373 0 0 0 192 136c0 5.682 2.76 16.396 21.25 24.321C224.8 165.273 239.983 168 256 168s31.2-2.727 42.75-7.679C317.24 152.396 320 141.681 320 136a18.373 18.373 0 0 0-.639-4.761C390.62 138.76 424 157 424 168c0 3.485-3.61 7.733-10.166 11.96-8.06 5.197-20.333 10.13-35.49 14.263C345.77 203.107 302.32 208 256 208s-89.77-4.893-122.345-13.777c-15.156-4.133-27.428-9.066-35.489-14.263C91.61 175.733 88 171.485 88 168c0-11 33.38-29.239 104.639-36.761zM64.41 224a8.235 8.235 0 0 1-8.409-7.934A7.976 7.976 0 0 1 64 208h8v16zm-32.401-7.232A32.04 32.04 0 0 1 64 184h8v8h-8a23.978 23.978 0 0 0-23.999 24.191A24.275 24.275 0 0 0 64.411 240H92a4 4 0 0 1 0 8H64.749c-17.65 0-32.337-14.01-32.74-31.232zM424 368a72.081 72.081 0 0 1-72 72H160a72.081 72.081 0 0 1-72-72V264h4a20 20 0 0 0 0-40h-4v-31.668C118.375 213.205 187.502 224 256 224c47.701 0 92.646-5.093 126.555-14.34q27.074-7.385 41.445-17.164V224h-4a20 20 0 0 0 0 40h4zm46.88-129.653A31.748 31.748 0 0 1 448 248h-28a4 4 0 0 1 0-8h28a23.978 23.978 0 0 0 23.999-24.191A24.275 24.275 0 0 0 447.589 192H440v-8h7.251c17.65 0 32.337 14.01 32.74 31.232a31.76 31.76 0 0 1-9.11 23.115z"/>
</svg>
