<svg xmlns="http://www.w3.org/2000/svg" width="511pt" height="511pt" viewBox="-72 1 511 511.999">
    <path d="M183.668 257.488c-31.856 0-57.773 25.922-57.773 57.782 0 16.433 6.953 31.867 18.937 42.734v38.848c0 21.414 17.422 38.835 38.836 38.835 21.41 0 38.832-17.421 38.832-38.835v-38.848c11.984-10.867 18.938-26.3 18.938-42.734 0-31.86-25.918-57.782-57.77-57.782zm14.73 80.051l-6.937 4.602v54.71c0 4.301-3.496 7.797-7.793 7.797s-7.793-3.496-7.793-7.796V342.14l-6.938-4.602c-7.515-4.988-12-13.312-12-22.27 0-14.746 11.993-26.738 26.731-26.738s26.727 11.992 26.727 26.739c0 8.957-4.485 17.28-11.997 22.27zm0 0"/>
    <path d="M321.426 186.547V130.03C321.426 58.332 263.09 0 191.39 0h-15.45C104.242 0 45.906 58.332 45.906 130.031v56.516C19.305 197.395.5 223.527.5 253.984v185.207C.5 479.34 33.16 512 73.305 512h220.722c40.145 0 72.805-32.66 72.805-72.809V253.984c0-30.457-18.805-56.59-45.406-67.437zM76.949 130.03c0-54.582 44.41-98.988 98.992-98.988h15.45c54.586 0 98.992 44.406 98.992 98.988v51.149h-33.031V130.03c0-36.37-29.59-65.957-65.961-65.957h-15.45c-36.37 0-65.96 29.586-65.96 65.957v51.149H76.948zm149.36 51.149h-85.286V130.03c0-19.25 15.664-34.918 34.918-34.918h15.45c19.254 0 34.918 15.668 34.918 34.918zm109.48 258.011c0 23.032-18.734 41.766-41.762 41.766H73.305c-23.028 0-41.762-18.734-41.762-41.766V253.984c0-23.027 18.734-41.761 41.762-41.761h220.722c23.028 0 41.762 18.734 41.762 41.761zm0 0"/>
</svg>
