<?xml version="1.0" encoding="utf-8"?><svg viewBox="0 0 512 512" xmlns="http://www.w3.org/2000/svg" xmlns:xlink="http://www.w3.org/1999/xlink"><style>:root>svg{display:none}:root>svg:target{display:block}</style><svg viewBox="0 0 512 512" id="bowl" xmlns="http://www.w3.org/2000/svg"><path d="M415.547 116.304C372.406 98.052 315.745 88 256 88S139.594 98.052 96.453 116.304C44.573 138.254 16 170.819 16 208a239.763 239.763 0 0070.226 169.54A157.587 157.587 0 00198.392 424h115.216a157.587 157.587 0 00112.166-46.46A239.763 239.763 0 00496 208c0-37.181-28.572-69.746-80.453-91.696zm-312.86 14.735C143.901 113.603 198.348 104 256 104s112.1 9.603 153.313 27.04C454.895 150.324 480 177.656 480 208s-25.104 57.675-70.688 76.96C368.1 302.398 313.653 312 256 312s-112.1-9.603-153.313-27.04C57.104 265.676 32 238.344 32 208s25.104-57.675 70.687-76.96zm360.28 162.592a222.662 222.662 0 01-48.506 72.595A141.696 141.696 0 01313.608 408H198.392A141.696 141.696 0 0197.54 366.226a224.008 224.008 0 01-59.08-104.813c13.58 14.762 33.093 27.748 57.994 38.283C139.594 317.948 196.255 328 256 328s116.406-10.052 159.547-28.304c24.9-10.535 44.415-23.52 57.995-38.283a224.213 224.213 0 01-10.575 32.218z"/><path d="M105.805 277.593C146.055 294.623 199.395 304 256 304s109.945-9.378 150.195-26.407C448.63 259.64 472 234.925 472 208s-23.37-51.64-65.805-69.593C365.945 121.377 312.605 112 256 112s-109.945 9.378-150.195 26.407C63.37 156.36 40 181.075 40 208s23.37 51.64 65.805 69.593zm69.25 3.393C187.672 267.756 216.725 256 256 256s68.328 11.755 80.945 24.986A454.261 454.261 0 01256 288a454.26 454.26 0 01-80.945-7.014zM112.04 153.143C150.361 136.929 201.488 128 256 128s105.639 8.93 143.96 25.143C435.576 168.209 456 188.205 456 208s-20.425 39.79-56.04 54.857a281.911 281.911 0 01-45.59 14.517C340.33 255.084 301.436 240 256 240s-84.33 15.084-98.37 37.374a281.913 281.913 0 01-45.59-14.517C76.424 247.791 56 227.795 56 208s20.425-39.79 56.04-54.857z"/></svg><svg viewBox="0 0 329.269 329" id="close" xmlns="http://www.w3.org/2000/svg"><path d="M194.8 164.77L323.013 36.555c8.343-8.34 8.343-21.825 0-30.164-8.34-8.34-21.825-8.34-30.164 0L164.633 134.605 36.422 6.391c-8.344-8.34-21.824-8.34-30.164 0-8.344 8.34-8.344 21.824 0 30.164l128.21 128.215L6.259 292.984c-8.344 8.34-8.344 21.825 0 30.164a21.266 21.266 0 0015.082 6.25c5.46 0 10.922-2.09 15.082-6.25l128.21-128.214 128.216 128.214a21.273 21.273 0 0015.082 6.25c5.46 0 10.922-2.09 15.082-6.25 8.343-8.34 8.343-21.824 0-30.164zm0 0"/></svg><svg viewBox="-10 0 511 511.999" id="eco" xmlns="http://www.w3.org/2000/svg"><path d="M213.422 301.11c24.035 0 40.973-2.114 42.898-2.364a15.003 15.003 0 0012.93-12.93c.133-1.03.805-6.39 1.395-14.84 2.57.051 5.218.083 7.96.083 18.387 0 40.438-1.227 63.063-5.266 41.937-7.492 74.562-22.656 96.973-45.066 64.988-64.989 52.117-200.184 51.539-205.907a15.005 15.005 0 00-13.41-13.414c-5.727-.578-140.922-13.449-205.91 51.54-13.465 13.464-24.313 30.667-32.462 51.347-4.976-7.652-10.66-14.84-17.171-21.348-64.989-64.992-200.188-52.12-205.91-51.543a15.003 15.003 0 00-13.41 13.414c-.579 5.723-13.45 140.918 51.538 205.907 42.735 42.734 114.223 50.386 159.977 50.386zm-72.09-109.07H50.117c-15.824-36.435-19.285-80.892-19.515-110.731zm41.316 77.726c-61.226-5.239-92.52-24.782-107.992-40.254a97.504 97.504 0 01-6.719-7.477h103.391l48.942 48.945c-10.895.188-23.82-.035-37.622-1.214zm234.782-70.25c-37.387 37.386-106.317 42.144-145.625 41.476l91.949-91.949h83.156c-8.734 25.238-19.926 40.918-29.48 50.473zm42.062-110.594c-1.133 10.965-2.68 20.969-4.527 30.125H393.75l67.77-67.77c-.082 10.938-.606 23.848-2.028 37.645zm-129.949 51.91V49.617c36.437-15.82 80.89-19.285 110.73-19.515zM292.07 74.156a98.072 98.072 0 017.477-6.719v103.391l-30.184 30.188c-2.027-18.254-5.676-37.672-11.906-56.356 6.84-30.637 18.465-54.355 34.613-70.504zm-64.586 75.469c.176.629.391 1.238.649 1.832 11.8 33.715 13.773 71.961 13.324 98.29l-91.914-91.915v-83.16c25.238 8.738 40.918 19.926 50.473 29.48 12.425 12.426 21.25 28.32 27.468 45.473zM119.547 66.617v61.215L51.78 60.066c10.938.082 23.844.602 37.64 2.028 10.966 1.133 20.97 2.676 30.126 4.523zm23.508 291.047c6.5 0 10.25-6.75 10.25-14.5 0-6.75-3.25-14-10.25-14H54.062c-7.25 0-14.246 3.5-14.246 10.25v162.234c0 6.75 6.996 10.25 14.246 10.25h88.993c7 0 10.25-7.25 10.25-14 0-7.746-3.75-14.496-10.25-14.496H72.312v-50.246h37.997c7 0 10.25-6.75 10.25-12.5 0-6.75-3.75-12.996-10.25-12.996H72.313v-49.996zm98.742-1.402c23.746 0 25.496 17 25.996 24.75.25 7.5 7 10.25 16.25 10.25 11 0 16.246-3 16.246-16 0-28.996-24.746-47.496-59.492-47.496-31.5 0-57.746 15.5-57.746 57.246v69.742c0 41.746 25.996 57.246 57.496 57.246 34.996 0 59.742-19.25 59.742-49.496 0-12.75-5.246-16-16.496-16-8.5 0-15.5 2.5-16 10.25-.75 10.5-2.75 26.746-25.496 26.746-17.25 0-26.75-9.246-26.75-28.746v-69.742c0-19.5 9.5-28.75 26.25-28.75zm149.484-28.496c-33 0-58.496 15.5-58.496 57.246v69.742c0 41.746 25.496 57.246 58.496 57.246 32.996 0 58.742-15.5 58.742-57.246v-69.742c0-41.746-25.746-57.246-58.742-57.246zm26.246 126.988c0 19.75-10 28.746-26.246 28.746-16.5 0-26-8.996-26-28.746v-69.742c0-19.75 9.5-28.75 26-28.75 16.246 0 26.246 9 26.246 28.75zm0 0"/></svg><svg viewBox="0 0 330 330" id="exchange" xmlns="http://www.w3.org/2000/svg"><path d="M79.393 325.606a14.996 14.996 0 0021.213 0l75-75c5.858-5.857 5.858-15.355 0-21.213-5.858-5.857-15.356-5.857-21.213 0L105 278.787V15c0-8.284-6.716-15-15-15S75 6.716 75 15v263.787l-49.393-49.394c-5.857-5.858-15.354-5.858-21.213 0-5.858 5.857-5.858 15.355 0 21.213l74.999 75zm150-321.212l-75 75c-5.858 5.857-5.858 15.355 0 21.213 5.857 5.857 15.355 5.857 21.213 0L225 51.213V315c0 8.284 6.716 15 15 15 8.284 0 15-6.716 15-15V51.213l49.394 49.394C307.322 103.535 311.161 105 315 105s7.678-1.465 10.607-4.394c5.858-5.857 5.858-15.355 0-21.213l-75-75c-5.858-5.857-15.356-5.857-21.214.001z"/></svg><svg viewBox="0 0 512 512" id="frying-pan" xmlns="http://www.w3.org/2000/svg"><path d="M101.62 387.066c-9.226-17.302-7.072-39.644 6.066-62.909 13.792-24.422 37.792-46.622 67.58-62.509 41.64-22.211 88.386-27.835 119.094-14.326l6.443-14.644c-35.567-15.65-86.556-9.956-133.068 14.853-32.438 17.301-58.712 41.72-73.981 68.759-15.923 28.195-18.144 56.005-6.253 78.304z"/><circle cx="296" cy="200" r="8"/><circle cx="456" cy="64" r="8"/><circle cx="328" cy="216" r="8"/><path d="M454.06 24a41.666 41.666 0 00-29.658 12.284L399.917 60.77a89.767 89.767 0 00-21.577 34.91l-3.859 11.579a73.684 73.684 0 01-17.711 28.657 72.901 72.901 0 01-39.789 20.477l-20.795 3.465a158.61 158.61 0 00-27.976-5.614c-42.158-4.701-89.668 5.25-133.772 28.034-44.105 22.785-79.716 55.768-100.276 92.874-21.141 38.156-23.984 76.203-8.005 107.134a90.603 90.603 0 0015.062 21.077l13.686 15.62a153.98 153.98 0 00134.991 51.342l14.408-1.8a210.941 210.941 0 00156.986-104.66A154.034 154.034 0 00368 224.17v-9.91a65.056 65.056 0 0140.893-60.4l12.156-4.862a80.617 80.617 0 0027.21-17.942L483.716 95.6A41.942 41.942 0 00454.059 24zM48.156 282.906c19.046-34.374 52.296-65.062 93.625-86.413 34.694-17.923 71.46-27.393 105.474-27.393a172.843 172.843 0 0119.18 1.046c33.93 3.787 60.136 17.565 74.89 39.114.35.509.684 1.026 1.026 1.54a73.565 73.565 0 013.648 6.258c13.444 26.024 10.68 58.71-7.786 92.036-19.045 34.374-52.295 65.062-93.624 86.413-41.327 21.35-85.592 30.71-124.653 26.347-37.864-4.226-66.121-20.886-79.565-46.912-13.444-26.024-10.68-58.71 7.785-92.036zm299.241 73.023a194.946 194.946 0 01-145.079 96.718l-14.407 1.801a137.91 137.91 0 01-91.295-20.54 163.213 163.213 0 0021.545 3.848 188.443 188.443 0 0020.89 1.14c36.584 0 75.93-10.085 112.882-29.174 44.105-22.784 79.716-55.768 100.276-92.874a154.661 154.661 0 0013.35-31.57 137.876 137.876 0 01-18.162 70.65zM472.402 84.284l-35.456 35.456a64.71 64.71 0 01-21.84 14.402l-12.155 4.86a81.109 81.109 0 00-49.46 59.703 96.754 96.754 0 00-30.23-27.218 88.77 88.77 0 0044.822-24.257 89.767 89.767 0 0021.577-34.91l3.859-11.579a73.684 73.684 0 0117.711-28.657l24.486-24.485a25.94 25.94 0 0136.686 36.685z"/></svg><svg viewBox="0 0 511.998 511" id="guarantee" xmlns="http://www.w3.org/2000/svg"><path d="M511.84 226.781v-.004c-.836-7.976-4.969-15.328-11.336-20.199l-29.14-22.687 10.952-36.141a29.389 29.389 0 00-2.66-23.121 29.39 29.39 0 00-18.691-13.867l-36.66-8.559-4.68-37.351c-1.004-8-5.316-15.305-11.832-20.032a29.335 29.335 0 00-22.719-5.07l-36.972 7.09-19.473-32.223C320.879 1.793 304.605-3.05 290.785 3.34c-.973.45-1.91.988-2.726 1.566l-32.09 22.352-30.895-21.52a29.389 29.389 0 00-22.804-4.605c-7.883 1.672-14.797 6.594-18.965 13.492L163.84 46.844l-36.977-7.094a29.365 29.365 0 00-22.707 5.066A29.364 29.364 0 0092.32 64.852l-4.68 37.355-38.773 9.05-1.82.595-.672.293c-14.086 6.16-21.133 21.136-16.75 35.605l10.95 36.14-30.391 23.641-1.762 1.531-.496.543c-10.2 11.141-10.598 27.993-.95 39.258l23.794 28.453-19.286 34.997-.77 1.75-.222.652c-4.808 14.37 1.742 29.988 15.235 36.32l34.078 15.992-3.192 37.508a29.372 29.372 0 007.41 22.063 29.391 29.391 0 0021.168 9.68l37.637.75 12.344 35.558a29.342 29.342 0 0015.738 17.14c7.36 3.278 15.84 3.364 23.278.235l34.69-14.621 27.231 29.058 1.426 1.27.55.41c5.38 3.973 11.665 5.918 17.892 5.918 7.878 0 15.66-3.117 21.351-9.191l25.742-27.465 34.696 14.625a29.377 29.377 0 0023.257-.235 29.355 29.355 0 0015.747-17.14l12.347-35.563 39.813-.793 1.89-.207.68-.136c14.844-3.028 25.09-16.508 23.828-31.352l-3.187-37.512 34.082-15.992a29.367 29.367 0 0015.398-17.45 29.375 29.375 0 00-2.203-23.167l-18.242-33.102 23.797-28.453a29.367 29.367 0 006.867-22.082zm-59.043 37.668c-4.715 5.567-5.52 13.57-1.992 19.965l21.925 39.79-41.128 19.3c-6.668 3.133-10.727 10.168-10.106 17.508l3.848 45.265-45.422.907c-7.363.148-13.938 4.921-16.352 11.882l-14.898 42.918-41.86-17.644c-6.789-2.86-14.734-1.176-19.777 4.203l-31.066 33.148-31.067-33.152c-3.402-3.633-8.132-5.578-12.937-5.578-2.309 0-4.633.45-6.832 1.379l-41.867 17.644-14.895-42.906c-2.41-6.965-8.984-11.746-16.355-11.894l-45.426-.907 3.847-45.265c.626-7.34-3.437-14.375-10.105-17.508l-41.125-19.3 21.926-39.786c3.531-6.402 2.722-14.402-1.996-19.973l-28.86-34.511 35.36-27.508c5.789-4.465 8.25-12.137 6.125-19.13L58.59 139.82l44.246-10.336c7.168-1.675 12.602-7.707 13.523-15.02l5.649-45.077 44.625 8.558c7.234 1.383 14.648-1.922 18.46-8.222l23.493-38.883 37.277 25.96c6.047 4.212 14.172 4.216 20.215 0l37.277-25.964 23.497 38.875c3.804 6.309 11.234 9.617 18.468 8.23l44.618-8.558 5.648 45.074c.914 7.309 6.348 13.348 13.527 15.027l44.242 10.332-13.175 43.477c-2.121 7.008.343 14.676 6.132 19.137l35.344 27.52zm0 0"/><path d="M257.563 128.781c-70.301 0-127.497 57.192-127.497 127.496 0 70.301 57.196 127.496 127.496 127.496 70.305 0 127.5-57.195 127.5-127.496 0-70.304-57.199-127.496-127.5-127.496zm0 224.969c-53.747 0-97.477-43.727-97.477-97.473 0-53.75 43.73-97.476 97.476-97.476 53.75 0 97.477 43.726 97.477 97.476 0 53.746-43.726 97.473-97.476 97.473zm0 0"/><path d="M294.21 216.691l-59.222 59.22-16.07-16.075c-5.863-5.86-15.367-5.86-21.227 0-5.863 5.863-5.863 15.367 0 21.23l26.684 26.684c2.93 2.934 6.773 4.398 10.613 4.398s7.684-1.464 10.614-4.398l69.835-69.832c5.86-5.863 5.86-15.367 0-21.227-5.863-5.863-15.367-5.863-21.226 0zm0 0"/></svg><svg viewBox="0 -28 512.001 512" id="heart" xmlns="http://www.w3.org/2000/svg"><path d="M256 455.516a30.022 30.022 0 01-19.793-7.438c-20.684-18.086-40.625-35.082-58.219-50.074l-.09-.078c-51.582-43.957-96.125-81.918-127.117-119.313C16.137 236.81 0 197.172 0 153.871c0-42.07 14.426-80.883 40.617-109.293C67.121 15.832 103.488 0 143.031 0c29.555 0 56.621 9.344 80.446 27.77C235.5 37.07 246.398 48.453 256 61.73c9.605-13.277 20.5-24.66 32.527-33.96C312.352 9.344 339.418 0 368.973 0c39.539 0 75.91 15.832 102.414 44.578C497.578 72.988 512 111.801 512 153.871c0 43.3-16.133 82.938-50.777 124.738-30.993 37.399-75.532 75.356-127.106 119.309-17.625 15.016-37.597 32.039-58.328 50.168a30.047 30.047 0 01-19.789 7.43zM143.031 29.992c-31.066 0-59.605 12.399-80.367 34.914-21.07 22.856-32.676 54.45-32.676 88.965 0 36.418 13.535 68.988 43.883 105.606 29.332 35.394 72.961 72.574 123.477 115.625l.093.078c17.66 15.05 37.68 32.113 58.516 50.332 20.961-18.254 41.012-35.344 58.707-50.418 50.512-43.051 94.137-80.223 123.469-115.617 30.344-36.618 43.879-69.188 43.879-105.606 0-34.516-11.606-66.11-32.676-88.965-20.758-22.515-49.3-34.914-80.363-34.914-22.758 0-43.653 7.235-62.102 21.5-16.441 12.719-27.894 28.797-34.61 40.047-3.452 5.785-9.53 9.238-16.261 9.238s-12.809-3.453-16.262-9.238c-6.71-11.25-18.164-27.328-34.61-40.047-18.448-14.265-39.343-21.5-62.097-21.5zm0 0"/></svg><svg viewBox="0 0 512 512" id="knife" xmlns="http://www.w3.org/2000/svg"><circle cx="144" cy="344" r="8"/><path d="M485.433 18.127a7.999 7.999 0 00-8.167-1.645A432.956 432.956 0 00320.13 116.554L178.343 258.343 27.716 408.97A39.742 39.742 0 0016 437.255V456a40 40 0 0080 0 30.423 30.423 0 018.97-21.656l84.687-84.687 24.338-24.338a31.117 31.117 0 0144.01 0l12.338 12.338a8.003 8.003 0 0011.314 0l58.322-58.321A577.268 577.268 0 00487.708 26.142a8.002 8.002 0 00-2.275-8.015zM176 340.687l-82.344 82.342A46.321 46.321 0 0080 456a24 24 0 01-48 0v-18.745a23.843 23.843 0 017.03-16.97L176 283.312zm48.571-39.076a47.132 47.132 0 00-21.89 12.394L192 324.685v-57.37l139.445-139.446a416.885 416.885 0 01106.502-76.952 538.775 538.775 0 01-126.254 200.134l-54.32 54.32a47.346 47.346 0 00-32.802-3.76zm104.093-33.59L276 320.687l-5.656-5.658 52.664-52.664A554.688 554.688 0 00458.052 41.422q4.83-2.123 9.709-4.12a561.305 561.305 0 01-139.097 230.72z"/><path d="M208 264h16v24h-16zM242.29 234.346l24-24 11.315 11.314-24 24zM282.29 194.354l24-24 11.314 11.315-24 24z"/><circle cx="56" cy="456" r="8"/></svg><svg viewBox="0 0 512 512" id="ladle" xmlns="http://www.w3.org/2000/svg"><path d="M433.855 16a30.19 30.19 0 00-22.395 9.967L266.39 186.979a8 8 0 00.287 11.011l2.325 2.325a430.567 430.567 0 00-96.48 173.847 80.885 80.885 0 00-8.982-4.217C147.507 363.532 126.362 360 104 360s-43.507 3.532-59.54 9.945C26.107 377.285 16 387.959 16 400v12.759A83.24 83.24 0 0099.24 496h9.52A83.241 83.241 0 00192 412.759V400a23.429 23.429 0 00-5.833-15.073l.413-1.546a414.46 414.46 0 0193.75-171.738l1.68 1.68a8 8 0 0011.011.287L454.033 68.54A30.145 30.145 0 00433.855 16zm-273.44 439.806A67.058 67.058 0 01108.759 480h-9.518a67.229 67.229 0 01-66.219-55.585 76.78 76.78 0 0011.438 5.64C60.493 436.468 81.638 440 104 440s43.507-3.532 59.54-9.945a76.78 76.78 0 0011.438-5.64 67.376 67.376 0 01-14.563 31.39zM104 424c-43.952 0-72-14.214-72-24s28.048-24 72-24 72 14.214 72 24-28.048 24-72 24zM443.323 56.653L287.953 196.64l-4.593-4.594 139.987-155.37a14.145 14.145 0 1119.976 19.977z"/></svg><svg viewBox="0 0 512 512" id="mail" xmlns="http://www.w3.org/2000/svg"><path d="M10.688 95.156C80.958 154.667 204.26 259.365 240.5 292.01c4.865 4.406 10.083 6.646 15.5 6.646 5.406 0 10.615-2.219 15.469-6.604 36.271-32.677 159.573-137.385 229.844-196.896 4.375-3.698 5.042-10.198 1.5-14.719C494.625 69.99 482.417 64 469.333 64H42.667c-13.083 0-25.292 5.99-33.479 16.438-3.542 4.52-2.875 11.02 1.5 14.718z"/><path d="M505.813 127.406a10.618 10.618 0 00-11.375 1.542C416.51 195.01 317.052 279.688 285.76 307.885c-17.563 15.854-41.938 15.854-59.542-.021-33.354-30.052-145.042-125-208.656-178.917a10.674 10.674 0 00-11.375-1.542A10.674 10.674 0 000 137.083v268.25C0 428.865 19.135 448 42.667 448h426.667C492.865 448 512 428.865 512 405.333v-268.25a10.66 10.66 0 00-6.187-9.677z"/></svg><svg viewBox="0 0 504 504" id="mastercard" xmlns="http://www.w3.org/2000/svg"><path fill="#FFB600" d="M504 252c0 83.2-67.2 151.2-151.2 151.2-83.2 0-151.2-68-151.2-151.2S268.8 100.8 352 100.8c84.8 0 152 68 152 151.2z"/><path fill="#F7981D" d="M352.8 100.8c83.2 0 151.2 68 151.2 151.2s-67.2 151.2-151.2 151.2c-83.2 0-151.2-68-151.2-151.2"/><path fill="#FF8500" d="M352.8 100.8c83.2 0 151.2 68 151.2 151.2s-67.2 151.2-151.2 151.2"/><path fill="#FF5050" d="M149.6 100.8C67.2 101.6 0 168.8 0 252s67.2 151.2 151.2 151.2c39.2 0 74.4-15.2 101.6-39.2 5.6-4.8 10.4-10.4 15.2-16h-31.2c-4-4.8-8-10.4-11.2-15.2h53.6c3.2-4.8 6.4-10.4 8.8-16h-71.2c-2.4-4.8-4.8-10.4-6.4-16h83.2c4.8-15.2 8-31.2 8-48 0-11.2-1.6-21.6-3.2-32h-92.8c.8-5.6 2.4-10.4 4-16h83.2c-1.6-5.6-4-11.2-6.4-16H216c2.4-5.6 5.6-10.4 8.8-16h53.6c-3.2-5.6-7.2-11.2-12-16h-29.6c4.8-5.6 9.6-10.4 15.2-15.2-26.4-24.8-62.4-39.2-101.6-39.2 0-1.6 0-1.6-.8-1.6z"/><path fill="#E52836" d="M0 252c0 83.2 67.2 151.2 151.2 151.2 39.2 0 74.4-15.2 101.6-39.2 5.6-4.8 10.4-10.4 15.2-16h-31.2c-4-4.8-8-10.4-11.2-15.2h53.6c3.2-4.8 6.4-10.4 8.8-16h-71.2c-2.4-4.8-4.8-10.4-6.4-16h83.2c4.8-15.2 8-31.2 8-48 0-11.2-1.6-21.6-3.2-32h-92.8c.8-5.6 2.4-10.4 4-16h83.2c-1.6-5.6-4-11.2-6.4-16H216c2.4-5.6 5.6-10.4 8.8-16h53.6c-3.2-5.6-7.2-11.2-12-16h-29.6c4.8-5.6 9.6-10.4 15.2-15.2-26.4-24.8-62.4-39.2-101.6-39.2h-.8"/><path fill="#CB2026" d="M151.2 403.2c39.2 0 74.4-15.2 101.6-39.2 5.6-4.8 10.4-10.4 15.2-16h-31.2c-4-4.8-8-10.4-11.2-15.2h53.6c3.2-4.8 6.4-10.4 8.8-16h-71.2c-2.4-4.8-4.8-10.4-6.4-16h83.2c4.8-15.2 8-31.2 8-48 0-11.2-1.6-21.6-3.2-32h-92.8c.8-5.6 2.4-10.4 4-16h83.2c-1.6-5.6-4-11.2-6.4-16H216c2.4-5.6 5.6-10.4 8.8-16h53.6c-3.2-5.6-7.2-11.2-12-16h-29.6c4.8-5.6 9.6-10.4 15.2-15.2-26.4-24.8-62.4-39.2-101.6-39.2h-.8"/><path d="M204.8 290.4l2.4-13.6c-.8 0-2.4.8-4 .8-5.6 0-6.4-3.2-5.6-4.8l4.8-28h8.8l2.4-15.2h-8l1.6-9.6h-16s-9.6 52.8-9.6 59.2c0 9.6 5.6 13.6 12.8 13.6 4.8 0 8.8-1.6 10.4-2.4zm5.6-25.6c0 22.4 15.2 28 28 28 12 0 16.8-2.4 16.8-2.4l3.2-15.2s-8.8 4-16.8 4c-17.6 0-14.4-12.8-14.4-12.8H260s2.4-10.4 2.4-14.4c0-10.4-5.6-23.2-23.2-23.2-16.8-1.6-28.8 16-28.8 36zm28-23.2c8.8 0 7.2 10.4 7.2 11.2H228c0-.8 1.6-11.2 10.4-11.2zM340 290.4l3.2-17.6s-8 4-13.6 4c-11.2 0-16-8.8-16-18.4 0-19.2 9.6-29.6 20.8-29.6 8 0 14.4 4.8 14.4 4.8l2.4-16.8s-9.6-4-18.4-4c-18.4 0-36.8 16-36.8 46.4 0 20 9.6 33.6 28.8 33.6 6.4 0 15.2-2.4 15.2-2.4zm-223.2-63.2c-11.2 0-19.2 3.2-19.2 3.2L95.2 244s7.2-3.2 17.6-3.2c5.6 0 10.4.8 10.4 5.6 0 3.2-.8 4-.8 4h-7.2c-13.6 0-28.8 5.6-28.8 24 0 14.4 9.6 17.6 15.2 17.6 11.2 0 16-7.2 16.8-7.2l-.8 6.4H132l6.4-44c0-19.2-16-20-21.6-20zm3.2 36c0 2.4-1.6 15.2-11.2 15.2-4.8 0-6.4-4-6.4-6.4 0-4 2.4-9.6 14.4-9.6 2.4.8 3.2.8 3.2.8zm33.6 28.8c4 0 24 .8 24-20.8 0-20-19.2-16-19.2-24 0-4 3.2-5.6 8.8-5.6 2.4 0 11.2.8 11.2.8l2.4-14.4s-5.6-1.6-15.2-1.6c-12 0-24 4.8-24 20.8 0 18.4 20 16.8 20 24 0 4.8-5.6 5.6-9.6 5.6-7.2 0-14.4-2.4-14.4-2.4l-2.4 14.4c.8 1.6 4.8 3.2 18.4 3.2zm319.2-77.6l-3.2 21.6s-6.4-8-15.2-8c-14.4 0-27.2 17.6-27.2 38.4 0 12.8 6.4 26.4 20 26.4 9.6 0 15.2-6.4 15.2-6.4l-.8 5.6h16l12-76.8-16.8-.8zm-7.2 42.4c0 8.8-4 20-12.8 20-5.6 0-8.8-4.8-8.8-12.8 0-12.8 5.6-20.8 12.8-20.8 5.6 0 8.8 4 8.8 13.6zm-436 34.4l9.6-57.6 1.6 57.6H52l20.8-57.6-8.8 57.6h16.8l12.8-76.8H67.2l-16 47.2-.8-47.2H27.2l-12.8 76.8h15.2zm248 0c4.8-26.4 5.6-48 16.8-44 1.6-10.4 4-14.4 5.6-18.4h-3.2c-7.2 0-12.8 9.6-12.8 9.6l1.6-8.8h-15.2L260 292h17.6v-.8zm99.2-64c-11.2 0-19.2 3.2-19.2 3.2l-2.4 13.6s7.2-3.2 17.6-3.2c5.6 0 10.4.8 10.4 5.6 0 3.2-.8 4-.8 4h-7.2c-13.6 0-28.8 5.6-28.8 24 0 14.4 9.6 17.6 15.2 17.6 11.2 0 16-7.2 16.8-7.2l-.8 6.4H392l6.4-44c.8-19.2-16-20-21.6-20zm4 36c0 2.4-1.6 15.2-11.2 15.2-4.8 0-6.4-4-6.4-6.4 0-4 2.4-9.6 14.4-9.6 2.4.8 2.4.8 3.2.8zm31.2 28c4.8-26.4 5.6-48 16.8-44 1.6-10.4 4-14.4 5.6-18.4h-3.2c-7.2 0-12.8 9.6-12.8 9.6l1.6-8.8h-15.2L394.4 292H412v-.8z" fill="#fff"/><path d="M180 279.2c0 9.6 5.6 13.6 12.8 13.6 5.6 0 10.4-1.6 12-2.4l2.4-13.6c-.8 0-2.4.8-4 .8-5.6 0-6.4-3.2-5.6-4.8l4.8-28h8.8l2.4-15.2h-8l1.6-9.6m11.2 44.8c0 22.4 7.2 28 20 28 12 0 16.8-2.4 16.8-2.4l3.2-15.2s-8.8 4-16.8 4c-17.6 0-14.4-12.8-14.4-12.8H260s2.4-10.4 2.4-14.4c0-10.4-5.6-23.2-23.2-23.2-16.8-1.6-20.8 16-20.8 36zm20-23.2c8.8 0 10.4 10.4 10.4 11.2H228c0-.8 1.6-11.2 10.4-11.2zM340 290.4l3.2-17.6s-8 4-13.6 4c-11.2 0-16-8.8-16-18.4 0-19.2 9.6-29.6 20.8-29.6 8 0 14.4 4.8 14.4 4.8l2.4-16.8s-9.6-4-18.4-4c-18.4 0-28.8 16-28.8 46.4 0 20 1.6 33.6 20.8 33.6 6.4 0 15.2-2.4 15.2-2.4zM95.2 244.8s7.2-3.2 17.6-3.2c5.6 0 10.4.8 10.4 5.6 0 3.2-.8 4-.8 4h-7.2c-13.6 0-28.8 5.6-28.8 24 0 14.4 9.6 17.6 15.2 17.6 11.2 0 16-7.2 16.8-7.2l-.8 6.4H132l6.4-44c0-18.4-16-19.2-22.4-19.2m12 34.4c0 2.4-9.6 15.2-19.2 15.2-4.8 0-6.4-4-6.4-6.4 0-4 2.4-9.6 14.4-9.6 2.4.8 11.2.8 11.2.8zm8 27.2s4.8 1.6 18.4 1.6c4 0 24 .8 24-20.8 0-20-19.2-16-19.2-24 0-4 3.2-5.6 8.8-5.6 2.4 0 11.2.8 11.2.8l2.4-14.4s-5.6-1.6-15.2-1.6c-12 0-16 4.8-16 20.8 0 18.4 12 16.8 12 24 0 4.8-5.6 5.6-9.6 5.6M469.6 236s-6.4-8-15.2-8c-14.4 0-19.2 17.6-19.2 38.4 0 12.8-1.6 26.4 12 26.4 9.6 0 15.2-6.4 15.2-6.4l-.8 5.6h16l12-76.8m-20.8 41.6c0 8.8-7.2 20-16 20-5.6 0-8.8-4.8-8.8-12.8 0-12.8 5.6-20.8 12.8-20.8 5.6 0 12 4 12 13.6zM29.6 291.2l9.6-57.6 1.6 57.6H52l20.8-57.6-8.8 57.6h16.8l12.8-76.8h-20l-22.4 47.2-.8-47.2h-8.8l-27.2 76.8h15.2zm231.2 0h16.8c4.8-26.4 5.6-48 16.8-44 1.6-10.4 4-14.4 5.6-18.4h-3.2c-7.2 0-12.8 9.6-12.8 9.6l1.6-8.8m69.6 15.2s7.2-3.2 17.6-3.2c5.6 0 10.4.8 10.4 5.6 0 3.2-.8 4-.8 4h-7.2c-13.6 0-28.8 5.6-28.8 24 0 14.4 9.6 17.6 15.2 17.6 11.2 0 16-7.2 16.8-7.2l-.8 6.4H392l6.4-44c0-18.4-16-19.2-22.4-19.2m12 34.4c0 2.4-9.6 15.2-19.2 15.2-4.8 0-6.4-4-6.4-6.4 0-4 2.4-9.6 14.4-9.6 3.2.8 11.2.8 11.2.8zm7.2 28H412c4.8-26.4 5.6-48 16.8-44 1.6-10.4 4-14.4 5.6-18.4h-3.2c-7.2 0-12.8 9.6-12.8 9.6l1.6-8.8" fill="#DCE5E5"/></svg><svg viewBox="0 0 384.97 384.97" id="menu" xmlns="http://www.w3.org/2000/svg"><path d="M12.03 120.303h360.909c6.641 0 12.03-5.39 12.03-12.03 0-6.641-5.39-12.03-12.03-12.03H12.03c-6.641 0-12.03 5.39-12.03 12.03s5.39 12.03 12.03 12.03zM372.939 180.455H12.03c-6.641 0-12.03 5.39-12.03 12.03s5.39 12.03 12.03 12.03h360.909c6.641 0 12.03-5.39 12.03-12.03s-5.389-12.03-12.03-12.03zM372.939 264.667H132.333c-6.641 0-12.03 5.39-12.03 12.03 0 6.641 5.39 12.03 12.03 12.03h240.606c6.641 0 12.03-5.39 12.03-12.03.001-6.641-5.389-12.03-12.03-12.03z"/></svg><svg viewBox="0 0 512 512" id="pot" xmlns="http://www.w3.org/2000/svg"><path d="M447.251 168H440c0-14.752-14.355-27.236-42.668-37.106-23.96-8.353-57.433-14.44-94.398-17.183A82.201 82.201 0 00280 106.167v-6.709c9.836-4.288 16-11.269 16-19.458 0-13.683-17.196-24-40-24s-40 10.317-40 24c0 8.19 6.164 15.17 16 19.458v6.71a82.209 82.209 0 00-22.934 7.543c-36.965 2.743-70.439 8.83-94.398 17.183C86.355 140.764 72 153.248 72 168h-8a48.04 48.04 0 00-47.987 49.142C16.618 242.979 38.48 264 64.749 264H72v104a88.1 88.1 0 0088 88h192a88.1 88.1 0 0088-88V264h8a48.04 48.04 0 0047.987-49.142C495.382 189.021 473.52 168 447.251 168zM440 208h7.59a8.235 8.235 0 018.409 7.936A7.976 7.976 0 01448 224h-8zM256 72c15.488 0 24 6.009 24 8s-8.512 8-24 8-24-6.009-24-8 8.512-8 24-8zm-8 56v-24.443a72.437 72.437 0 0016 0V128h16v-5.499c15.54 3.47 24 9.737 24 13.499 0 5.64-18.224 16-48 16s-48-10.36-48-16c0-3.762 8.461-10.028 24-13.499V128zm-55.361 3.239A18.373 18.373 0 00192 136c0 5.682 2.76 16.396 21.25 24.321C224.8 165.273 239.983 168 256 168s31.2-2.727 42.75-7.679C317.24 152.396 320 141.681 320 136a18.373 18.373 0 00-.639-4.761C390.62 138.76 424 157 424 168c0 3.485-3.61 7.733-10.166 11.96-8.06 5.197-20.333 10.13-35.49 14.263C345.77 203.107 302.32 208 256 208s-89.77-4.893-122.345-13.777c-15.156-4.133-27.428-9.066-35.489-14.263C91.61 175.733 88 171.485 88 168c0-11 33.38-29.239 104.639-36.761zM64.41 224a8.235 8.235 0 01-8.409-7.934A7.976 7.976 0 0164 208h8v16zm-32.401-7.232A32.04 32.04 0 0164 184h8v8h-8a23.978 23.978 0 00-23.999 24.191A24.275 24.275 0 0064.411 240H92a4 4 0 010 8H64.749c-17.65 0-32.337-14.01-32.74-31.232zM424 368a72.081 72.081 0 01-72 72H160a72.081 72.081 0 01-72-72V264h4a20 20 0 000-40h-4v-31.668C118.375 213.205 187.502 224 256 224c47.701 0 92.646-5.093 126.555-14.34q27.074-7.385 41.445-17.164V224h-4a20 20 0 000 40h4zm46.88-129.653A31.748 31.748 0 01448 248h-28a4 4 0 010-8h28a23.978 23.978 0 0023.999-24.191A24.275 24.275 0 00447.589 192H440v-8h7.251c17.65 0 32.337 14.01 32.74 31.232a31.76 31.76 0 01-9.11 23.115z"/></svg><svg viewBox="0 0 512 512" id="price-tag" xmlns="http://www.w3.org/2000/svg"><path d="M203.556 345.012l70.71-212.133c2.619-7.859-1.628-16.354-9.487-18.974-7.858-2.619-16.354 1.628-18.974 9.487l-70.71 212.133c-2.619 7.859 1.628 16.354 9.487 18.974 1.573.524 3.173.773 4.745.773 6.28.001 12.133-3.974 14.229-10.26zm105.977-65.809c24.813 0 45-20.187 45-45s-20.187-45-45-45-45 20.187-45 45 20.187 45 45 45zm0-60c8.271 0 15 6.729 15 15s-6.729 15-15 15-15-6.729-15-15 6.729-15 15-15zm-169.706-30c-24.813 0-45 20.187-45 45s20.187 45 45 45 45-20.187 45-45-20.186-45-45-45zm0 60c-8.271 0-15-6.729-15-15s6.729-15 15-15 15 6.729 15 15-6.728 15-15 15z"/><path d="M509 186l-52.307-69.743 2.041-14.283a15 15 0 00-4.243-12.728l-31.82-31.82 31.819-31.82c5.858-5.857 5.858-15.355 0-21.213-5.857-5.857-15.355-5.857-21.213 0l-31.819 31.82-31.82-31.82A15.016 15.016 0 00356.91.15L208.417 21.363a15 15 0 00-8.485 4.243L16.084 209.454c-21.445 21.444-21.445 56.338 0 77.782L171.647 442.8A54.866 54.866 0 00182 450.918V457c0 30.327 24.673 55 55 55h220c30.327 0 55-24.673 55-55V195c0-3.245-1.053-6.404-3-9zM37.297 266.023c-9.748-9.748-9.748-25.608 0-35.356L217.609 50.355 353.727 30.91l26.517 26.517-21.213 21.213-10.607-10.607c-5.857-5.857-15.355-5.857-21.213 0s-5.858 15.355 0 21.213l42.427 42.427c2.929 2.929 6.768 4.394 10.606 4.394s7.678-1.465 10.606-4.394c5.858-5.857 5.858-15.355 0-21.213l-10.607-10.607 21.213-21.213 26.517 26.517-19.446 136.118-180.311 180.312c-4.722 4.722-11 7.322-17.678 7.322s-12.956-2.601-17.678-7.322zM482 457c0 13.785-11.215 25-25 25H237c-13.164 0-23.976-10.228-24.925-23.154 13.567-.376 27.022-5.714 37.353-16.046l183.848-183.848a15 15 0 004.243-8.485l13.173-92.21L482 200z"/></svg><svg viewBox="0 0 330 330" id="search" xmlns="http://www.w3.org/2000/svg"><path d="M325.606 304.394L223.329 202.117c16.706-21.256 26.682-48.04 26.682-77.111C250.011 56.077 193.934 0 125.005 0 56.077 0 0 56.077 0 125.005S56.077 250.01 125.005 250.01c29.07 0 55.855-9.975 77.111-26.681l102.278 102.277A14.946 14.946 0 00315 330c3.839 0 7.678-1.464 10.606-4.394 5.858-5.857 5.858-15.355 0-21.212zM30 125.005C30 72.619 72.619 30 125.005 30c52.386 0 95.006 42.619 95.006 95.005 0 52.386-42.62 95.005-95.006 95.005S30 177.391 30 125.005z"/></svg><svg viewBox="-72 1 511 511.999" id="secured" xmlns="http://www.w3.org/2000/svg"><path d="M183.668 257.488c-31.856 0-57.773 25.922-57.773 57.782a57.6 57.6 0 0018.937 42.734v38.848c0 21.414 17.422 38.835 38.836 38.835 21.41 0 38.832-17.421 38.832-38.835v-38.848a57.6 57.6 0 0018.938-42.734c0-31.86-25.918-57.782-57.77-57.782zm14.73 80.051l-6.937 4.602v54.71c0 4.301-3.496 7.797-7.793 7.797s-7.793-3.496-7.793-7.796V342.14l-6.938-4.602c-7.515-4.988-12-13.312-12-22.27 0-14.746 11.993-26.738 26.731-26.738s26.727 11.992 26.727 26.739c0 8.957-4.485 17.28-11.997 22.27zm0 0"/><path d="M321.426 186.547V130.03C321.426 58.332 263.09 0 191.39 0h-15.45C104.242 0 45.906 58.332 45.906 130.031v56.516C19.305 197.395.5 223.527.5 253.984v185.207C.5 479.34 33.16 512 73.305 512h220.722c40.145 0 72.805-32.66 72.805-72.809V253.984c0-30.457-18.805-56.59-45.406-67.437zM76.949 130.03c0-54.582 44.41-98.988 98.992-98.988h15.45c54.586 0 98.992 44.406 98.992 98.988v51.149h-33.031V130.03c0-36.37-29.59-65.957-65.961-65.957h-15.45c-36.37 0-65.96 29.586-65.96 65.957v51.149H76.948zm149.36 51.149h-85.286V130.03c0-19.25 15.664-34.918 34.918-34.918h15.45c19.254 0 34.918 15.668 34.918 34.918zm109.48 258.011c0 23.032-18.734 41.766-41.762 41.766H73.305c-23.028 0-41.762-18.734-41.762-41.766V253.984c0-23.027 18.734-41.761 41.762-41.761h220.722c23.028 0 41.762 18.734 41.762 41.761zm0 0"/></svg><svg viewBox="-35 0 512 512.001" id="shopping-bag" xmlns="http://www.w3.org/2000/svg"><path d="M443.055 495.172L404.14 124.598c-.817-7.758-7.356-13.649-15.157-13.649h-73.14V94.273C315.844 42.293 273.55 0 221.57 0c-51.984 0-94.277 42.293-94.277 94.273v16.676h-73.14c-7.801 0-14.34 5.89-15.157 13.649L.082 495.172a15.259 15.259 0 003.832 11.789A15.248 15.248 0 0015.238 512h412.657c4.32 0 8.437-1.832 11.324-5.04a15.236 15.236 0 003.836-11.788zM157.77 94.273c0-35.175 28.62-63.796 63.8-63.796 35.176 0 63.797 28.62 63.797 63.796v16.676H157.77zM32.16 481.523l35.715-340.097h59.418v33.582c0 8.414 6.824 15.238 15.238 15.238s15.239-6.824 15.239-15.238v-33.582h127.597v33.582c0 8.414 6.824 15.238 15.238 15.238 8.415 0 15.239-6.824 15.239-15.238v-33.582h59.418l35.715 340.097zm0 0"/></svg><svg viewBox="0 -31 512 512" id="shopping-cart" xmlns="http://www.w3.org/2000/svg"><path d="M164.96 300.004h.024c.02 0 .04-.004.059-.004H437a15.003 15.003 0 0014.422-10.879l60-210a15.003 15.003 0 00-2.445-13.152A15.005 15.005 0 00497 60H130.367l-10.722-48.254A15.005 15.005 0 00105 0H15C6.715 0 0 6.715 0 15s6.715 15 15 15h77.969c1.898 8.55 51.312 230.918 54.156 243.71C131.184 280.64 120 296.536 120 315c0 24.812 20.188 45 45 45h272c8.285 0 15-6.715 15-15s-6.715-15-15-15H165c-8.27 0-15-6.73-15-15 0-8.258 6.707-14.977 14.96-14.996zM477.114 90l-51.43 180H177.032l-40-180zM150 405c0 24.813 20.188 45 45 45s45-20.188 45-45-20.188-45-45-45-45 20.188-45 45zm45-15c8.27 0 15 6.73 15 15s-6.73 15-15 15-15-6.73-15-15 6.73-15 15-15zm167 15c0 24.813 20.188 45 45 45s45-20.188 45-45-20.188-45-45-45-45 20.188-45 45zm45-15c8.27 0 15 6.73 15 15s-6.73 15-15 15-15-6.73-15-15 6.73-15 15-15zm0 0"/></svg><svg viewBox="0 0 446.853 446.853" id="shopping-cart-2" xmlns="http://www.w3.org/2000/svg"><path d="M444.274 93.36a14.332 14.332 0 00-11.145-6.123L155.942 75.289c-7.953-.348-14.599 5.792-14.939 13.708-.338 7.913 5.792 14.599 13.707 14.939l258.421 11.14L362.32 273.61H136.205L95.354 51.179a14.336 14.336 0 00-8.861-10.753L19.586 14.141c-7.374-2.887-15.695.735-18.591 8.1-2.891 7.369.73 15.695 8.1 18.591l59.491 23.371 41.572 226.335a14.341 14.341 0 0014.104 11.746h6.896l-15.747 43.74a11.927 11.927 0 001.468 10.916 11.947 11.947 0 009.772 5.078h11.045c-6.844 7.617-11.045 17.646-11.045 28.675 0 23.718 19.299 43.012 43.012 43.012s43.012-19.294 43.012-43.012c0-11.028-4.201-21.058-11.044-28.675h93.777c-6.847 7.617-11.047 17.646-11.047 28.675 0 23.718 19.294 43.012 43.012 43.012 23.719 0 43.012-19.294 43.012-43.012 0-11.028-4.2-21.058-11.042-28.675h13.432c6.6 0 11.948-5.349 11.948-11.947 0-6.6-5.349-11.948-11.948-11.948H143.651l12.902-35.843h216.221a14.332 14.332 0 0013.651-9.96l59.739-186.387a14.306 14.306 0 00-1.89-12.573zm-274.61 316.454c-10.543 0-19.117-8.573-19.117-19.116s8.574-19.117 19.117-19.117 19.116 8.574 19.116 19.117-8.573 19.116-19.116 19.116zm157.709 0c-10.543 0-19.116-8.573-19.116-19.116s8.573-19.117 19.116-19.117 19.116 8.574 19.116 19.117-8.573 19.116-19.116 19.116z"/></svg><svg viewBox="0 0 511.999 511.999" id="telephone" xmlns="http://www.w3.org/2000/svg"><path d="M498.827 377.633l-63.649-63.649c-17.548-17.547-46.102-17.547-63.649 0l-28.931 28.931c-13.294 13.294-34.926 13.29-48.215.005l-125.4-125.507c-13.325-13.325-13.327-34.892 0-48.219l28.931-28.931c17.471-17.47 17.715-45.935-.017-63.665l-63.632-63.432C116.717-4.381 88.164-4.381 70.663 13.12L47.471 36.111c-63.28 63.279-63.28 166.242-.003 229.519L246.16 464.426c63.428 63.429 166.088 63.434 229.521 0l23.146-23.145c17.548-17.548 17.548-46.1 0-63.648zM91.833 34.382c5.849-5.849 15.365-5.85 21.233.016l63.632 63.432c5.863 5.863 5.863 15.352 0 21.216l-10.609 10.608-84.81-84.81 10.554-10.462zM267.38 443.213L68.687 244.415c-48.958-48.958-51.649-125.833-8.276-178.006l84.564 84.564c-22.22 25.189-21.294 63.572 2.787 87.653l125.396 125.501.004.004c24.055 24.056 62.436 25.042 87.656 2.792l84.566 84.566c-52.007 43.298-128.709 41.019-178.004-8.276zm210.232-23.148l-10.609 10.609-84.865-84.866 10.607-10.608c5.85-5.849 15.367-5.85 21.217 0l63.649 63.649c5.85 5.85 5.85 15.368.001 21.216z"/></svg><svg viewBox="0 0 407.436 407.436" id="up-chevron" xmlns="http://www.w3.org/2000/svg"><path d="M203.718 91.567L0 294.621l21.179 21.248 182.539-181.945 182.54 181.945 21.178-21.248z"/></svg><svg viewBox="0 0 504 504" id="visa" xmlns="http://www.w3.org/2000/svg"><path fill="#3C58BF" d="M184.8 324.4l25.6-144h40l-24.8 144z"/><path fill="#293688" d="M184.8 324.4l32.8-144h32.8l-24.8 144z"/><path fill="#3C58BF" d="M370.4 182c-8-3.2-20.8-6.4-36.8-6.4-40 0-68.8 20-68.8 48.8 0 21.6 20 32.8 36 40s20.8 12 20.8 18.4c0 9.6-12.8 14.4-24 14.4-16 0-24.8-2.4-38.4-8l-5.6-2.4-5.6 32.8c9.6 4 27.2 8 45.6 8 42.4 0 70.4-20 70.4-50.4 0-16.8-10.4-29.6-34.4-40-14.4-7.2-23.2-11.2-23.2-18.4 0-6.4 7.2-12.8 23.2-12.8 13.6 0 23.2 2.4 30.4 5.6l4 1.6 6.4-31.2z"/><path fill="#293688" d="M370.4 182c-8-3.2-20.8-6.4-36.8-6.4-40 0-61.6 20-61.6 48.8 0 21.6 12.8 32.8 28.8 40s20.8 12 20.8 18.4c0 9.6-12.8 14.4-24 14.4-16 0-24.8-2.4-38.4-8l-5.6-2.4-5.6 32.8c9.6 4 27.2 8 45.6 8 42.4 0 70.4-20 70.4-50.4 0-16.8-10.4-29.6-34.4-40-14.4-7.2-23.2-11.2-23.2-18.4 0-6.4 7.2-12.8 23.2-12.8 13.6 0 23.2 2.4 30.4 5.6l4 1.6 6.4-31.2z"/><path fill="#3C58BF" d="M439.2 180.4c-9.6 0-16.8.8-20.8 10.4l-60 133.6h43.2l8-24h51.2l4.8 24H504l-33.6-144h-31.2zm-18.4 96c2.4-7.2 16-42.4 16-42.4s3.2-8.8 5.6-14.4l2.4 13.6s8 36 9.6 44h-33.6v-.8z"/><path fill="#293688" d="M448.8 180.4c-9.6 0-16.8.8-20.8 10.4l-69.6 133.6h43.2l8-24h51.2l4.8 24H504l-33.6-144h-21.6zm-28 96c3.2-8 16-42.4 16-42.4s3.2-8.8 5.6-14.4l2.4 13.6s8 36 9.6 44h-33.6v-.8z"/><path fill="#3C58BF" d="M111.2 281.2l-4-20.8c-7.2-24-30.4-50.4-56-63.2l36 128h43.2l64.8-144H152l-40.8 100z"/><path fill="#293688" d="M111.2 281.2l-4-20.8c-7.2-24-30.4-50.4-56-63.2l36 128h43.2l64.8-144H160l-48.8 100z"/><path fill="#FFBC00" d="M0 180.4l7.2 1.6c51.2 12 86.4 42.4 100 78.4l-14.4-68c-2.4-9.6-9.6-12-18.4-12H0z"/><path fill="#F7981D" d="M0 180.4c51.2 12 93.6 43.2 107.2 79.2l-13.6-56.8c-2.4-9.6-10.4-15.2-19.2-15.2L0 180.4z"/><path fill="#ED7C00" d="M0 180.4c51.2 12 93.6 43.2 107.2 79.2l-9.6-31.2c-2.4-9.6-5.6-19.2-16.8-23.2L0 180.4z"/><path d="M151.2 276.4L124 249.2l-12.8 30.4-3.2-20c-7.2-24-30.4-50.4-56-63.2l36 128h43.2l20-48zm74.4 48l-34.4-35.2-6.4 35.2zm92-49.6c3.2 3.2 4.8 5.6 4 8.8 0 9.6-12.8 14.4-24 14.4-16 0-24.8-2.4-38.4-8l-5.6-2.4-5.6 32.8c9.6 4 27.2 8 45.6 8 25.6 0 46.4-7.2 58.4-20l-34.4-33.6zm46.4 49.6h37.6l8-24h51.2l4.8 24H504L490.4 266l-48-46.4 2.4 12.8s8 36 9.6 44h-33.6c3.2-8 16-42.4 16-42.4s3.2-8.8 5.6-14.4" fill="#051244"/></svg></svg>