<?xml version="1.0" encoding="utf-8"?><svg viewBox="0 0 1083 512.22" xmlns="http://www.w3.org/2000/svg" xmlns:xlink="http://www.w3.org/1999/xlink"><style>:root>svg{display:none}:root>svg:target{display:block}</style><svg viewBox="0 0 504 504" id="american-express" xmlns="http://www.w3.org/2000/svg"><path fill="#2FABF7" d="M43.2 207.6h17.6L52 185.2z"/><path fill="#228FE0" d="M261.6 188.4c-1.6-.8-4-.8-6.4-.8h-16v12.8h16c2.4 0 4.8 0 6.4-.8s2.4-3.2 2.4-5.6c.8-3.2-.8-4.8-2.4-5.6z"/><path fill="#0571C1" d="M432.8 164.4v9.6l-4.8-9.6h-37.6v9.6l-4.8-9.6h-51.2c-8.8 0-16 1.6-22.4 4.8v-4.8h-36v4.8c-4-3.2-8.8-4.8-15.2-4.8H132l-8.8 20-8.8-20H73.6v9.6l-4.8-9.6H34.4l-16 37.6L0 243.6h40.8l4.8-12.8h11.2l4.8 12.8H108V234l4 9.6h23.2l4-9.6v9.6h111.2v-20.8h1.6c1.6 0 1.6 0 1.6 2.4v17.6h57.6V238c4.8 2.4 12 4.8 21.6 4.8h24l4.8-12.8h11.2l4.8 12.8H424v-12l7.2 12h37.6v-78.4h-36zm-270.4 67.2h-13.6v-44l-19.2 44h-12l-19.2-44v44H71.2l-5.6-12H38.4l-4.8 12.8H18.4l24-56.8h20l22.4 53.6v-53.6h21.6L124 214l16-38.4h22.4v56zm54.4-44h-31.2V198H216v11.2h-30.4v11.2h31.2v12H172v-56.8h44.8v12zm60 23.2c1.6 3.2 2.4 5.6 2.4 10.4v11.2h-13.6v-7.2c0-3.2 0-8-2.4-11.2-2.4-2.4-4.8-2.4-9.6-2.4h-14.4v20.8h-13.6v-56.8H256c7.2 0 12 0 16 2.4s6.4 6.4 6.4 12.8c0 8.8-5.6 13.6-9.6 15.2 4 .8 6.4 3.2 8 4.8zm24 20.8h-13.6v-56.8h13.6v56.8zm157.6 0h-19.2l-25.6-42.4v42.4h-27.2l-4.8-12h-28l-4.8 12.8h-15.2c-6.4 0-14.4-1.6-19.2-6.4s-7.2-11.2-7.2-21.6c0-8 1.6-16 7.2-22.4 4-4.8 11.2-6.4 20-6.4h12.8v12h-12.8c-4.8 0-7.2.8-10.4 3.2-2.4 2.4-4 7.2-4 12.8 0 6.4.8 10.4 4 13.6 2.4 2.4 5.6 3.2 9.6 3.2h5.6l18.4-44h20L400 230v-53.6h20l23.2 39.2v-39.2h13.6v55.2h1.6z"/><path d="M358.4 207.6h18.4l-8.8-22.4zm-136 115.2v-45.6l-20.8 22.4z" fill="#228FE0"/><path fill="#2FABF7" d="M136.8 282.8v10.4h29.6v11.2h-29.6v12h32.8l15.2-16.8-14.4-16.8z"/><path fill="#228FE0" d="M252.8 282.8H236v14.4h17.6c4.8 0 8-2.4 8-7.2-.8-4.8-4-7.2-8.8-7.2z"/><path fill="#0571C1" d="M500 296.4v-36h-33.6c-7.2 0-12.8 1.6-16.8 4.8v-4.8h-36.8c-5.6 0-12.8 1.6-16 4.8v-4.8H332v4.8c-4.8-4-13.6-4.8-17.6-4.8h-43.2v4.8c-4-4-13.6-4.8-18.4-4.8h-48l-11.2 12-10.4-12h-72v78.4h70.4l11.2-12 10.4 12h43.2v-18.4h5.6c5.6 0 12.8 0 18.4-2.4v21.6h36v-20.8h1.6c2.4 0 2.4 0 2.4 2.4v18.4h108.8c7.2 0 14.4-1.6 18.4-4.8v4.8H472c7.2 0 14.4-.8 19.2-4 8-4.8 12.8-13.6 12.8-24 0-5.6-1.6-11.2-4-15.2zm-248 12.8h-16v19.2h-25.6l-16-18.4-16.8 18.4h-52.8v-56.8h53.6l16 18.4 16.8-18.4h42.4c10.4 0 22.4 3.2 22.4 18.4-.8 16-12 19.2-24 19.2zm80-3.2c1.6 2.4 2.4 5.6 2.4 10.4v11.2h-13.6v-7.2c0-3.2 0-8.8-2.4-11.2-1.6-2.4-4.8-2.4-9.6-2.4h-14.4v20.8h-13.6v-56.8h30.4c6.4 0 12 0 16 2.4s7.2 6.4 7.2 12.8c0 8.8-5.6 13.6-9.6 15.2 4 1.6 6.4 3.2 7.2 4.8zm55.2-23.2H356v10.4h30.4v11.2H356v11.2h31.2v12h-44.8v-56.8h44.8v12zm33.6 44.8h-25.6v-12h25.6c2.4 0 4 0 5.6-1.6.8-.8 1.6-2.4 1.6-4s-.8-3.2-1.6-4-2.4-1.6-4.8-1.6c-12.8-.8-28 0-28-17.6 0-8 4.8-16.8 19.2-16.8h26.4v13.6h-24.8c-2.4 0-4 0-5.6.8s-1.6 2.4-1.6 4c0 2.4 1.6 3.2 3.2 4s3.2.8 4.8.8h7.2c7.2 0 12 1.6 15.2 4.8 2.4 2.4 4 6.4 4 12 0 12-7.2 17.6-20.8 17.6zm68.8-5.6c-3.2 3.2-8.8 5.6-16.8 5.6h-25.6v-12h25.6c2.4 0 4 0 5.6-1.6.8-.8 1.6-2.4 1.6-4s-.8-3.2-1.6-4-2.4-1.6-4.8-1.6c-12.8-.8-28 0-28-17.6 0-8 4.8-16.8 19.2-16.8h26.4v13.6h-24c-2.4 0-4 0-5.6.8s-1.6 2.4-1.6 4c0 2.4.8 3.2 3.2 4 1.6.8 3.2.8 4.8.8h7.2c7.2 0 12 1.6 15.2 4.8.8 0 .8.8.8.8 2.4 3.2 3.2 7.2 3.2 11.2 0 4.8-1.6 8.8-4.8 12z"/><path fill="#228FE0" d="M317.6 284.4c-1.6-.8-4-.8-6.4-.8h-16v12.8h16c2.4 0 4.8 0 6.4-.8s2.4-3.2 2.4-5.6c.8-3.2-.8-4.8-2.4-5.6zM261.6 188.4c-1.6-.8-4-.8-6.4-.8h-16v12.8h16c2.4 0 4.8 0 6.4-.8s2.4-3.2 2.4-5.6c.8-3.2-.8-4.8-2.4-5.6zm96.8 19.2h18.4l-8.8-22.4zm-136 115.2v-45.6l-20.8 22.4z"/><path fill="#228FE0" d="M252.8 282.8H236v14.4h17.6c4.8 0 8-2.4 8-7.2-.8-4.8-4-7.2-8.8-7.2zm64.8 1.6c-1.6-.8-4-.8-6.4-.8h-16v12.8h16c2.4 0 4.8 0 6.4-.8s2.4-3.2 2.4-5.6c.8-3.2-.8-4.8-2.4-5.6z"/><g fill="#2FABF7"><path d="M247.2 326L236 314v13.6h-26.4l-16-18.4-17.6 18.4h-52.8v-56h53.6l16.8 18.4 8-9.6-20-20h-70.4v78.4h70.4l12-12 10.4 12h43.2zM164 242.8l-10.4-11.2h-4.8v-4.8l-12-12-8 16.8h-11.2l-19.2-44v44H71.2l-5.6-12H38.4l-5.6 12H18.4l24-56h20l22.4 53.6v-53.6h12l-11.2-11.2h-12v9.6l-4-9.6H34.4l-16 37.6L0 242.8H41.6l4.8-12h11.2l5.6 12H108v-9.6l4 9.6h23.2l4-9.6v9.6z"/><path d="M127.2 206l-12.8-12.8L124 214z"/></g><g fill="#228FE0"><path d="M491.2 334.8c7.2-4.8 12-12.8 12.8-21.6L492.8 302c.8 2.4 1.6 4.8 1.6 8 0 4.8-1.6 8.8-4.8 12s-8.8 5.6-16.8 5.6h-25.6v-12h25.6c2.4 0 4 0 5.6-1.6.8-.8 1.6-2.4 1.6-4s-.8-3.2-1.6-4-2.4-1.6-4.8-1.6c-12.8-.8-28 0-28-17.6 0-8 4.8-15.2 16.8-16.8l-8.8-8.8c-1.6.8-2.4 1.6-3.2 1.6V258h-36.8c-5.6 0-12.8 1.6-16 4.8V258H332v4.8c-4.8-4-13.6-4.8-17.6-4.8h-43.2v4.8c-4-4-13.6-4.8-18.4-4.8h-48l-11.2 12-10.4-12h-8.8l24 24 12-12.8h42.4c10.4 0 22.4 3.2 22.4 18.4 0 16-11.2 19.2-23.2 19.2h-16v12l12 12v-12h4c5.6 0 12.8 0 18.4-2.4V338h36v-20.8h1.6c2.4 0 2.4 0 2.4 2.4V338h108.8c7.2 0 14.4-1.6 18.4-4.8v4.8H472c6.4.8 13.6 0 19.2-3.2zM332 306c1.6 2.4 2.4 5.6 2.4 10.4v11.2h-13.6v-7.2c0-3.2 0-8.8-2.4-11.2-1.6-2.4-4.8-2.4-9.6-2.4h-14.4v20.8h-13.6v-56.8h30.4c6.4 0 12 0 16 2.4s7.2 6.4 7.2 12.8c0 8.8-5.6 13.6-9.6 15.2 4 1.6 6.4 3.2 7.2 4.8zm55.2-23.2H356v10.4h30.4v11.2H356v11.2h31.2v12h-44.8v-56.8h44.8v12zm33.6 44.8h-25.6v-12h25.6c2.4 0 4 0 5.6-1.6.8-.8 1.6-2.4 1.6-4s-.8-3.2-1.6-4-2.4-1.6-4.8-1.6c-12.8-.8-28 0-28-17.6 0-8 4.8-16.8 19.2-16.8h26.4v13.6h-24.8c-2.4 0-4 0-5.6.8s-1.6 2.4-1.6 4c0 2.4 1.6 3.2 3.2 4s3.2.8 4.8.8h7.2c7.2 0 12 1.6 15.2 4.8 2.4 2.4 4 6.4 4 12 0 12-7.2 17.6-20.8 17.6z"/><path d="M459.2 288.4c0 2.4.8 3.2 3.2 4 1.6.8 3.2.8 4.8.8h7.2c4.8 0 8 .8 11.2 2.4l-12-12h-7.2c-2.4 0-4 0-5.6.8-.8.8-1.6 2.4-1.6 4zm-28-48l1.6 2.4h.8zm-44-44l13.6 32.8V210z"/><path d="M250.4 222.8h1.6c1.6 0 1.6 0 1.6 2.4v17.6h57.6V238c4.8 2.4 12 4.8 21.6 4.8h24l4.8-12.8h11.2l4.8 12.8H424v-8l-11.2-11.2v8.8h-27.2l-4-12.8h-28l-4.8 12.8h-15.2c-6.4 0-14.4-1.6-19.2-6.4s-7.2-11.2-7.2-21.6c0-8 1.6-16 7.2-22.4 4-4.8 11.2-6.4 20-6.4h12.8v12h-12.8c-4.8 0-7.2.8-10.4 3.2-2.4 2.4-4 7.2-4 12.8 0 6.4.8 10.4 4 13.6 2.4 2.4 5.6 3.2 9.6 3.2h5.6l18.4-44h8l-11.2-11.2h-20.8c-8.8 0-16 1.6-22.4 4.8v-4.8H276v4.8c-4-3.2-8.8-4.8-15.2-4.8H132l-8.8 20-8.8-20H79.2l11.2 11.2h16L120 206l4.8 4.8 14.4-35.2h22.4v56.8H148v-44l-13.6 32 23.2 23.2h92l.8-20.8zm36.8-47.2h13.6v56.8h-13.6v-56.8zm-70.4 12h-31.2V198H216v11.2h-30.4v11.2h31.2v12H172v-56.8h44.8v12zm22.4 44h-13.6v-56.8H256c7.2 0 12 0 16 2.4s6.4 6.4 6.4 12.8c0 8.8-5.6 13.6-9.6 15.2 3.2.8 5.6 3.2 6.4 4.8 1.6 3.2 2.4 5.6 2.4 10.4v11.2H264v-7.2c0-3.2 0-8-2.4-11.2-.8-1.6-3.2-1.6-8-1.6h-14.4v20z"/></g></svg><svg viewBox="0 0 60 61" id="armchair-1" xmlns="http://www.w3.org/2000/svg"><path d="M57 20c-4.34 0-4.31-.06-5 .18V5a5 5 0 00-5-5H13a5 5 0 00-5 5v15.18c-.69-.24-.61-.18-5-.18a3 3 0 00-3 3v27a2 2 0 001.13 1.79l1.2 6.4A2.56 2.56 0 005 60a2.56 2.56 0 002.67-1.81l1.2-6.4c.444-.2.8-.556 1-1A4.912 4.912 0 0013 52h34a4.906 4.906 0 003.18-1.18c.2.444.556.8 1 1l1.2 6.41a2.88 2.88 0 005.34 0l1.2-6.4A2 2 0 0060 50V23a3 3 0 00-3-3zm-4 2h4a1 1 0 011 1v27h-6V23a1 1 0 011-1zm-32.13 5c23.6 0 25-.6 28 3H11.15c1.6-1.94 2.85-3 9.72-3zM10 32h40v10H10zm0-27a3 3 0 013-3h34a3 3 0 013 3v23.28c-1.34-1.51-2.75-2.55-6-3 1.63-2.51 2-7.62 2-14.27a1 1 0 00-2 0c0 3.46 0 14-3 14H19.15A.84.84 0 0019 25c-3 0-3-10.54-3-14a1 1 0 00-2 0c0 6.65.41 11.76 2 14.27-3.29.46-4.7 1.5-6 3zM2 23a1 1 0 011-1h4a1 1 0 011 1v27H2zm3.72 34.77c-.2.168-.46.25-.72.23a1.52 1.52 0 01-.7-.17L3.21 52H6.8zM47 50H13a3 3 0 01-3-3v-3h40v3a3 3 0 01-3 3zm8.72 7.77c-.2.168-.46.25-.72.23a1.52 1.52 0 01-.7-.17L53.21 52h3.59z"/></svg><svg viewBox="0 0 60 60" id="beauty" xmlns="http://www.w3.org/2000/svg"><path d="M42.766 18H39v-3.35c2.552-1.592 4-3.804 4-6.15C43 3.733 37.29 0 30 0S17 3.733 17 8.5c0 2.644 1.856 5.118 5 6.713V18h-4.767C9.384 18 3 24.385 3 32.233v22.578c0 2.641 1.972 4.908 4.489 5.163A5.01 5.01 0 0013 55V34.804a2.495 2.495 0 012.5-2.491 2.48 2.48 0 011.763.729c.47.47.729 1.095.729 1.76C17.984 43.75 18 55 18 55c0 2.481 2.019 4.5 4.5 4.5s4.5-2.019 4.5-4.499c0 0 .016-11.024.009-20.002-.001-1.411 1.056-2.615 2.355-2.683a2.489 2.489 0 012.627 2.485C31.984 43.75 32 55 32 55c0 2.481 2.019 4.5 4.5 4.5s4.5-2.019 4.5-4.499c0 0 .016-11.25.009-20.199 0-.665.259-1.291.729-1.76a2.48 2.48 0 011.763-.729h1.009a2.493 2.493 0 012.491 2.491v20.008c0 2.641 1.972 4.908 4.489 5.163A5.01 5.01 0 0057 55V32.233C57 24.385 50.615 18 42.766 18zM24.196 3.02a15.397 15.397 0 011.037-.345c.147-.043.293-.089.444-.129 2.741-.698 5.904-.698 8.645 0 .151.039.296.085.443.128a14.137 14.137 0 011.037.345c.131.325.198.653.198.981 0 2.168-2.748 4-6 4s-6-1.832-6-4c0-.328.066-.656.196-.98zM55 55c0 .843-.362 1.653-.994 2.224a2.98 2.98 0 01-2.315.76C50.181 57.832 49 56.438 49 54.812V34.804a4.497 4.497 0 00-4.491-4.491H43.5c-1.2 0-2.328.467-3.176 1.314a4.454 4.454 0 00-1.315 3.176C39.015 43.75 39 54.999 39 55c0 1.378-1.121 2.5-2.5 2.5S34 56.378 34 54.999c0 0-.016-11.248-.009-20.195a4.448 4.448 0 00-1.397-3.257 4.45 4.45 0 00-3.335-1.227c-2.385.125-4.251 2.181-4.25 4.682C25.015 43.977 25 54.999 25 55c0 1.378-1.121 2.5-2.5 2.5S20 56.378 20 54.999c0 0-.016-11.248-.009-20.195a4.458 4.458 0 00-1.315-3.176 4.466 4.466 0 00-3.185-1.314A4.496 4.496 0 0011 34.805V55c0 .843-.362 1.653-.994 2.224a2.98 2.98 0 01-2.315.76C6.181 57.832 5 56.438 5 54.812V32.233C5 25.488 10.488 20 17.233 20h6.801v-6.048l-.617-.277C20.651 12.431 19 10.497 19 8.5c0-1.682 1.157-3.236 3.006-4.404C22.075 7.36 25.631 10 30 10s7.924-2.64 7.994-5.904C39.843 5.264 41 6.818 41 8.5c0 1.775-1.303 3.508-3.574 4.755l-.426.403V20h5.767C49.511 20 55 25.488 55 32.233V55z"/></svg><svg viewBox="0 0 512 512" id="computer" xmlns="http://www.w3.org/2000/svg"><path d="M477.867 0H34.133C15.28 0 0 15.281 0 34.133v341.332c0 18.851 15.281 34.137 34.133 34.137h133.754l-12.196 42.664h-2.09c-23.554.027-42.64 19.117-42.667 42.668 0 9.425 7.64 17.066 17.066 17.066h256c9.426 0 17.066-7.64 17.066-17.066-.027-23.551-19.113-42.641-42.668-42.668h-2.09l-12.195-42.664h133.754c18.852 0 34.133-15.286 34.133-34.137V34.133C512 15.28 496.719 0 477.867 0zM384 494.934H128c0-14.141 11.46-25.602 25.602-25.602h204.796c14.13.023 25.579 11.473 25.602 25.602zm-45.457-42.668H173.449l12.184-42.664h140.734zm156.39-76.801c0 9.426-7.64 17.07-17.066 17.07H34.133c-9.426 0-17.067-7.644-17.067-17.07V34.133c0-9.426 7.641-17.067 17.067-17.067h443.734c9.426 0 17.067 7.641 17.067 17.067zm0 0"/><path d="M452.266 34.133H59.734c-14.14 0-25.601 11.46-25.601 25.601v256c0 14.137 11.46 25.598 25.601 25.598h392.532c14.14 0 25.601-11.46 25.601-25.598v-256c0-14.14-11.46-25.601-25.601-25.601zm8.535 281.601a8.533 8.533 0 01-8.535 8.532H59.734a8.533 8.533 0 01-8.535-8.532v-256a8.534 8.534 0 018.535-8.535h392.532a8.534 8.534 0 018.535 8.535zm-162.133 42.664h-85.336c-4.71 0-8.531 3.82-8.531 8.536 0 4.71 3.82 8.53 8.531 8.53h85.336c4.71 0 8.531-3.82 8.531-8.53 0-4.715-3.82-8.536-8.531-8.536zm0 0"/><path d="M76.8 187.734a8.522 8.522 0 006.571-3.074l85.332-102.398a8.535 8.535 0 00-5.113-13.875 8.54 8.54 0 00-8.012 2.953L70.246 173.738a8.542 8.542 0 00-1.172 9.082 8.543 8.543 0 007.727 4.914zM227.234 70.168a8.538 8.538 0 00-12 1.266L70.168 250.633a8.532 8.532 0 00-1.492 8.527 8.522 8.522 0 006.726 5.445 8.524 8.524 0 008.028-3.238L228.496 82.168a8.533 8.533 0 00-1.262-12zm13.524 44.023l-93.863 119.47a8.507 8.507 0 00-1.32 8.51 8.527 8.527 0 006.769 5.329 8.545 8.545 0 007.965-3.293l93.867-119.465a8.54 8.54 0 001.32-8.515 8.539 8.539 0 00-14.738-2.035zm0 0"/></svg><svg viewBox="0 0 60 60" id="customer-service-agent" xmlns="http://www.w3.org/2000/svg"><g fill="#000" fill-rule="nonzero"><path d="M56 0H36c-2.21 0-4 1.79-4 4v12c0 2.21 1.79 4 4 4h.617l-.609 4.876a1.001 1.001 0 001.65.877L44.236 20H56c2.21 0 4-1.79 4-4V4c0-2.21-1.79-4-4-4zm2 16a2 2 0 01-2 2H43.86a1 1 0 00-.658.247l-4.884 4.272.424-3.395A1 1 0 0037.75 18H36a2 2 0 01-2-2V4a2 2 0 012-2h20a2 2 0 012 2z"/><path d="M39 7a3 3 0 100 6 3 3 0 000-6zm0 4a1 1 0 110-2 1 1 0 010 2zm7-4a3 3 0 100 6 3 3 0 000-6zm0 4a1 1 0 110-2 1 1 0 010 2zm7-4a3 3 0 100 6 3 3 0 000-6zm0 4a1 1 0 110-2 1 1 0 010 2zm3 24h-8.764l-6.578-5.753a1 1 0 00-1.65.877L39.617 35H39c-2.21 0-4 1.79-4 4v9c0 2.21 1.79 4 4 4h17c2.21 0 4-1.79 4-4v-9c0-2.21-1.79-4-4-4zm2 13a2 2 0 01-2 2H39a2 2 0 01-2-2v-9a2 2 0 012-2h1.75a1 1 0 00.992-1.124l-.424-3.395 4.882 4.272a1 1 0 00.66.247H56a2 2 0 012 2zM4 35h2.624a12.033 12.033 0 002.537 3.066A15.991 15.991 0 001 52v5a3 3 0 003 3h26a3 3 0 003-3v-5a16.04 16.04 0 00-8.156-13.939A12.067 12.067 0 0027.376 35H30c2.21 0 4-1.79 4-4v-4a3.986 3.986 0 00-1.963-3.424 15.979 15.979 0 00-30.074 0A3.987 3.987 0 000 27v4c0 2.21 1.79 4 4 4zm0-2a2 2 0 01-2-2v-4a2 2 0 012-2h1.7a11.783 11.783 0 000 8zm3-4a9.999 9.999 0 1119.557 2.94 20.467 20.467 0 01-5.759 1A3 3 0 0018 31h-2a3 3 0 100 6h2a2.992 2.992 0 002.833-2.057 26.006 26.006 0 004.607-.6A9.989 9.989 0 017 29zm12 5a1 1 0 01-1 1h-2a1 1 0 010-2h2a1 1 0 011 1zm7.894 8.108A13.869 13.869 0 0131 52v5a1 1 0 01-1 1h-5v-6a1 1 0 00-2 0v6H11v-6a1 1 0 00-2 0v6H4a1 1 0 01-1-1v-5a14 14 0 017.987-12.631 11.9 11.9 0 0012.022 0c1.445.68 2.76 1.606 3.885 2.739zM32 31a2 2 0 01-2 2h-1.7a11.783 11.783 0 000-8H30a2 2 0 012 2zM17 15a13.967 13.967 0 0112.634 8h-2.258a11.972 11.972 0 00-20.752 0H4.366A13.967 13.967 0 0117 15z"/><path d="M40 42h3a1 1 0 000-2h-3a1 1 0 000 2zm15-2h-8a1 1 0 000 2h8a1 1 0 000-2zm0 5h-3a1 1 0 000 2h3a1 1 0 000-2zm-7 0h-8a1 1 0 000 2h8a1 1 0 000-2z"/></g></svg><svg viewBox="0 0 512 512" id="delivery-truck" xmlns="http://www.w3.org/2000/svg"><path d="M127.692 383.89c-18.848.014-34.118 15.302-34.108 34.15.009 18.848 15.294 34.121 34.142 34.117 18.848-.005 34.125-15.285 34.125-34.133-.026-18.851-15.309-34.123-34.159-34.134zm0 51.2c-9.422-.014-17.051-7.661-17.042-17.083.009-9.422 7.653-17.055 17.075-17.05 9.422.005 17.058 7.644 17.058 17.067-.015 9.428-7.662 17.064-17.091 17.066zm273.425-51.2c-18.849.009-34.123 15.296-34.116 34.145s15.29 34.125 34.139 34.122c18.849-.003 34.128-15.284 34.128-34.133-.03-18.847-15.305-34.114-34.151-34.134zm0 51.2c-9.423-.009-17.056-7.655-17.05-17.078.006-9.423 7.649-17.058 17.072-17.055 9.423.003 17.061 7.643 17.061 17.067-.016 9.425-7.658 17.059-17.083 17.066z"/><path d="M486.4 264.423h-8.533v-47.188a26.688 26.688 0 00-2.7-11.421l-23.887-47.608-12.288-24.662a25.824 25.824 0 00-22.908-14.188h-74.917c-9.421.011-17.056 7.645-17.067 17.067v136.533h-18.472a25.274 25.274 0 001.572-8.533V51.09c-.015-14.132-11.468-25.585-25.6-25.6h-256C11.468 25.505.015 36.958 0 51.09v213.333a25.41 25.41 0 006.658 17.067A25.41 25.41 0 000 298.557v51.2a8.53 8.53 0 008.534 8.534H25.6v42.667c.015 14.132 11.468 25.585 25.6 25.6h8.776c4.294 34.132 33.319 59.733 67.72 59.733 34.401 0 63.425-25.601 67.72-59.733h17.693c.011 9.421 7.645 17.056 17.067 17.067h51.25c9.421-.011 17.056-7.645 17.067-17.067h34.901c3.294 26.812 22.085 49.16 47.934 57.007 25.848 7.846 53.893-.285 71.535-20.741 17.642-20.456 21.565-49.391 10.006-73.806l12.248-30.727H486.4c14.132-.015 25.585-11.468 25.6-25.6v-42.667c-.015-14.133-11.468-25.585-25.6-25.601zm-196.267-209.8V260.89L187 157.757 290.133 54.623zm-12.066 218.334H29.133l103.131-103.131 3.235 3.235c10.006 9.974 26.196 9.972 36.2-.004l3.234-3.233 103.134 103.133zm-.001-230.4L159.633 160.986a8.538 8.538 0 01-12.067.004L29.133 42.557h248.933zM17.067 54.624l103.131 103.135L17.067 260.89V54.624zm0 286.599v-42.667a8.54 8.54 0 018.533-8.533h298.5v42.75l.082 8.45H191.267l-23.1-23.1a8.525 8.525 0 00-6.034-2.5H93.867a8.527 8.527 0 00-6.033 2.5l-23.1 23.1H17.067zm110.625 128c-27.723-.029-50.396-22.101-51.171-49.813a3.578 3.578 0 000-2.774c.75-28.104 24.014-50.35 52.123-49.844 28.109.506 50.557 23.575 50.296 51.687-.262 28.113-23.134 50.761-51.248 50.744zm102.483-42.666v-34.133h51.25l.006 25.569-.006.031.006.031.002 8.502h-51.258zm170.942 42.666c-28.27-.028-51.168-22.963-51.15-51.233.018-28.27 22.946-51.176 51.217-51.167 28.271.009 51.183 22.93 51.183 51.2-.046 28.278-22.973 51.182-51.25 51.2zm50.209-97.332a68.095 68.095 0 00-50.209-22.135c-34.384.046-63.384 25.624-67.723 59.733h-34.901v-17.067c-.011-9.421-7.645-17.056-17.067-17.067h-51.25c-9.421.011-17.056 7.645-17.067 17.067v17.067h-17.693c-4.294-34.132-33.319-59.733-67.72-59.733-34.401 0-63.425 25.601-67.72 59.733H51.2a8.542 8.542 0 01-8.533-8.533V358.29h25.6a8.527 8.527 0 006.033-2.5l23.1-23.1h61.2l23.1 23.1a8.525 8.525 0 006.034 2.5h144.925l.071-.014.071.014h8.533a8.527 8.527 0 006.033-2.5l23.1-23.1h61.2l23.1 23.1a8.484 8.484 0 002.351 1.572l-5.792 14.529zm9.474-34.201l-19.567-19.567a8.529 8.529 0 00-6.033-2.5h-68.267a8.529 8.529 0 00-6.033 2.5l-19.683 19.683-.014-55.67c.017-.225.13-.417.13-.647 0-.23-.113-.423-.131-.648l-.036-144.418h74.917a8.628 8.628 0 017.642 4.746l6.142 12.321h-45.95c-9.421.011-17.056 7.646-17.067 17.067v51.2c.011 9.421 7.646 17.056 17.067 17.067h34.133c1.742 0 42.75.388 42.75 34.133v64.733zm0-101.87a71.7 71.7 0 00-42.75-14.063h-34.133v-51.2h54.471l21.412 42.675a9.56 9.56 0 011 4.004v18.584zm34.133 96.87a8.54 8.54 0 01-8.533 8.533h-8.533V281.49h8.533a8.542 8.542 0 018.533 8.533v42.667z"/><path d="M392.442 264.423h-25.617a8.533 8.533 0 000 17.066h25.617c4.713 0 8.533-3.82 8.533-8.533s-3.82-8.533-8.533-8.533z"/></svg><svg viewBox="0 0 496.009 496.009" id="direct" xmlns="http://www.w3.org/2000/svg"><path d="M475.015.815l-464 151.617c-13.104 4.282-14.999 22.106-3.073 29.04l175.35 101.963a15.997 15.997 0 0017.582-.986l49.292-36.606-36.606 49.292a16.002 16.002 0 00-.986 17.583l101.963 175.35c6.942 11.936 24.762 10.02 29.041-3.073l151.617-464c4.067-12.459-7.782-24.234-20.18-20.18zM324.249 441.112l-78.712-135.365 94.913-127.805a16.001 16.001 0 00-22.385-22.385L190.26 250.471 54.896 171.758 454.983 41.025zm-156.258-90.468L61.753 456.881c-6.248 6.247-16.379 6.249-22.627 0-6.249-6.248-6.249-16.379 0-22.627l106.238-106.237c6.25-6.247 16.381-6.249 22.627 0 6.249 6.248 6.249 16.379 0 22.627zm-140.349 4.02c-6.249-6.249-6.249-16.379 0-22.627l41.92-41.921c6.248-6.249 16.379-6.249 22.627 0 6.249 6.249 6.249 16.379 0 22.627l-41.92 41.921c-6.247 6.247-16.379 6.248-22.627 0zm178.25 49.154c6.249 6.248 6.249 16.379 0 22.627l-41.921 41.92a15.947 15.947 0 01-11.313 4.687c-14.127 0-21.421-17.207-11.313-27.314l41.921-41.92c6.247-6.249 16.378-6.249 22.626 0z"/></svg><svg fill-rule="evenodd" clip-rule="evenodd" image-rendering="optimizeQuality" shape-rendering="geometricPrecision" text-rendering="geometricPrecision" viewBox="0 0 1060.01 152.27" id="fantastic" xmlns="http://www.w3.org/2000/svg"><defs><style>.ahfil2{fill:#005eb8}.ahfil0{fill:#f02709}</style></defs><g id="ahLayer_x0020_1"><path d="M198.69 23.4l-21.55 106.7-88.68 22.17-11.52-98.43 85.23-30.44-2.84-14.05z" class="ahfil0"/><path fill="#FEFEFE" fill-rule="nonzero" d="M140.06 103.27c.05-.31.09-.63.11-.95v-.01l1.04-11.48c-1.05.1-2.18.24-3.37.42-1.23.18-2.42.43-3.54.74-1.13.3-2.26.69-3.4 1.15v-.01c-.95.39-1.84.87-2.66 1.43-.82.57-1.57 1.21-2.24 1.92v.01c-.62.68-1.13 1.48-1.52 2.4-.41.96-.68 2.06-.8 3.28h-.01c-.09 1.15-.04 2.19.13 3.1.15.85.42 1.58.78 2.21.37.59.78 1.09 1.23 1.51l.01-.01c.43.39.88.69 1.34.91l.05.02c.49.24.99.41 1.49.53.44.1.87.14 1.28.14.62 0 1.23-.04 1.83-.13.61-.09 1.21-.23 1.81-.41.62-.19 1.2-.42 1.72-.68v-.01a9.92 9.92 0 001.5-.93c.51-.39.98-.83 1.39-1.31.42-.49.8-1.07 1.13-1.71h.01c.11-.25.22-.48.29-.67a6.56 6.56 0 00.4-1.46zm40.57-30.29c-.01 1.8-.1 3.58-.28 5.36l-2.81 31.01c-.15 1.67-.28 3.31-.36 4.93v.01c-.08 1.61-.13 3.22-.14 4.85l-.02.03c-.03 1.54-.01 3.07.06 4.57.07 1.55.19 3.02.34 4.39l.38 3.3h-35.28l-.27-2.46-.28-2.62-.52.32a38.98 38.98 0 01-7.16 3.39l.01.01c-2.48.9-5.1 1.58-7.84 2.05-2.71.46-5.47.68-8.29.68h-.03c-3.24-.01-6.32-.33-9.2-.96h-.02c-2.88-.63-5.57-1.57-8.05-2.81-2.46-1.22-4.62-2.67-6.47-4.35a25.11 25.11 0 01-4.68-5.71 21.786 21.786 0 01-2.67-6.8c-.51-2.38-.65-4.92-.42-7.61l-.01-.03c.24-2.37.72-4.62 1.45-6.75.74-2.16 1.74-4.18 2.99-6.07a33.58 33.58 0 014.28-5.23c1.61-1.61 3.43-3.1 5.45-4.47l.03-.02c2.01-1.35 4.12-2.57 6.32-3.65 2.2-1.07 4.56-2.04 7.07-2.91v-.01c2.39-.81 4.93-1.55 7.61-2.19 2.59-.62 5.23-1.12 7.9-1.51 2.64-.4 5.33-.71 8.07-.92 1.43-.11 2.85-.19 4.28-.25 0-.59-.05-1.14-.16-1.67-.15-.76-.42-1.46-.79-2.09l-.04-.05c-.33-.59-.76-1.1-1.3-1.55-.56-.45-1.27-.86-2.11-1.22v-.01c-.84-.35-1.83-.62-2.96-.81-1.21-.2-2.58-.31-4.12-.31-2.09 0-4.08.1-5.95.3-1.89.2-3.72.49-5.48.88v.01c-1.78.4-3.54.88-5.27 1.44h-.02c-1.7.55-3.38 1.19-5.05 1.92l-4.65 2.02-1.03-3.73-4.23-15.26-.61-2.2 2.83-1.09c1.26-.48 2.7-.98 4.34-1.5 1.55-.49 3.23-.98 5.05-1.46v.01c1.92-.52 3.98-1 6.18-1.44 2.18-.43 4.45-.81 6.8-1.15 2.43-.35 4.98-.63 7.65-.83 2.64-.19 5.37-.29 8.19-.31h.07c3.68.01 7.05.19 10.12.55 3.15.36 6.02.9 8.6 1.63 2.59.72 4.92 1.57 6.98 2.55 2.14 1.02 4.02 2.2 5.65 3.51l.02.01c1.56 1.28 2.92 2.65 4.08 4.13 1.15 1.46 2.11 3.03 2.88 4.69a30.53 30.53 0 011.77 4.96c.43 1.66.72 3.4.9 5.21v.02c.15 1.84.23 3.6.22 5.27z"/><path d="M37.25 131.43H0l.28-3.1L11.56 3.84l.28-3.1h82.27l-.28 3.1-1.91 21.06-.28 3.1H50.81l-2.33 25.75h38.31l-.29 3.1-1.82 20.14-.28 3.09H46.09l-4.37 48.25-.28 3.1zm186.57 0h-34.58l.26-2.88 5.32-58.64c.23-2.57.4-4.72.53-6.59.11-1.73.24-3.9.36-6.33h.01c.1-2.36.18-4.34.24-6.11.07-2.03.14-4.06.2-6.06l.1-3h33.95l.21 2.52.27 3.44a42.591 42.591 0 017.65-3.93v-.01c1.75-.69 3.64-1.3 5.65-1.82 1.97-.51 4.05-.91 6.19-1.17 2.11-.27 4.25-.4 6.42-.4h.03c3.95.01 7.55.4 10.79 1.15 3.32.76 6.23 1.92 8.73 3.45l.02.01c2.44 1.51 4.5 3.3 6.17 5.37 1.65 2.04 2.93 4.37 3.84 6.97.86 2.47 1.44 5.17 1.71 8.1.28 2.91.26 5.99-.05 9.22h-.01l-4.87 53.84-.26 2.87h-38.47l.26-2.88 4.75-52.47.01-.04c.12-1.07.15-2.12.1-3.14-.05-.96-.18-1.92-.4-2.89V70c-.19-.84-.47-1.59-.84-2.24-.35-.61-.79-1.14-1.31-1.6-.4-.34-.88-.6-1.45-.77-.65-.2-1.47-.31-2.46-.32-.82 0-1.58.1-2.28.29-.7.19-1.39.5-2.08.91l-.05.02c-.7.42-1.36.98-1.98 1.65-.66.73-1.27 1.63-1.82 2.68l-.12.19c-.2.31-.4.68-.59 1.11-.19.43-.39.97-.6 1.6-.2.61-.36 1.22-.48 1.82-.12.62-.22 1.33-.29 2.12l-4.63 51.1-.26 2.87h-3.89zm86.08-89.61l1.08-11.87.19-2.11 2.8-.63 31.29-7.03 5.18-1.17-.36 3.92-1.71 18.89h22.46l-.26 2.89-1.44 15.94-.26 2.88h-22.46l-3.21 35.36c-.12 1.47-.1 2.74.04 3.83.13.99.37 1.82.72 2.48l.01.01c.35.66.73 1.2 1.14 1.6l.01-.01c.36.35.74.6 1.13.76.51.21 1.07.37 1.66.48.58.1 1.22.15 1.91.14h.08c.72 0 1.41-.01 2.04-.02.64-.02 1.24-.04 1.79-.08.67-.04 1.28-.09 1.81-.15h.01c.62-.06 1.27-.13 1.94-.22l4.57-.57-.26 3.38-1.35 17.49-.18 2.23-2.96.58c-1.13.22-2.47.44-4.02.65h-.02c-1.36.19-2.88.36-4.55.51h-.02c-1.86.16-3.72.29-5.52.37-1.75.07-3.67.11-5.74.11-2.43 0-4.74-.11-6.94-.33-2.25-.23-4.39-.58-6.43-1.06-2.12-.48-4.08-1.11-5.89-1.88l.01-.01c-1.82-.77-3.49-1.7-5.03-2.77l-.13-.08c-1.11-.86-2.11-1.78-3.01-2.78a22.72 22.72 0 01-2.38-3.22c-.72-1.18-1.32-2.49-1.8-3.92-.47-1.38-.83-2.91-1.08-4.56-.26-1.65-.4-3.44-.42-5.37-.02-1.91.07-3.99.27-6.22l3.33-36.73h-13.58l.26-2.88 1.45-15.95.26-2.88h13.57zm108.82 61.45c.05-.31.09-.63.12-.95v-.01l1.04-11.48c-1.06.1-2.18.24-3.37.42-1.24.18-2.42.43-3.55.74-1.12.3-2.26.69-3.39 1.15l-.01-.01c-.95.39-1.83.87-2.66 1.43-.82.57-1.57 1.21-2.24 1.92l.01.01c-.62.68-1.14 1.48-1.52 2.4-.41.96-.68 2.06-.81 3.28h-.01c-.08 1.15-.03 2.19.13 3.1.16.85.42 1.58.79 2.21.36.59.78 1.09 1.23 1.51l.01-.01c.42.39.87.69 1.33.91l.05.02c.49.24.99.41 1.5.53.43.1.86.14 1.27.14.62 0 1.23-.04 1.84-.13.6-.09 1.21-.23 1.81-.41.62-.19 1.2-.42 1.72-.68l-.01-.01c.54-.27 1.04-.58 1.5-.93.52-.39.98-.83 1.39-1.31.42-.49.8-1.07 1.14-1.71.12-.25.22-.48.3-.67.09-.22.16-.46.23-.71.07-.23.12-.48.16-.75zm40.58-30.29c-.01 1.8-.1 3.58-.28 5.36h-.01l-2.81 31.01c-.15 1.67-.27 3.31-.35 4.93v.01c-.09 1.61-.14 3.22-.15 4.85l-.01.03c-.03 1.54-.01 3.07.06 4.57.06 1.55.18 3.02.34 4.39l.37 3.3h-35.27l-.27-2.46-.29-2.62-.51.32a39.293 39.293 0 01-7.16 3.39v.01c-2.48.9-5.1 1.58-7.83 2.05-2.71.46-5.48.68-8.29.68h-.03c-3.25-.01-6.32-.33-9.2-.96h-.02c-2.88-.63-5.58-1.57-8.06-2.81-2.46-1.22-4.61-2.67-6.47-4.35-1.84-1.68-3.4-3.59-4.67-5.71h-.01a22.032 22.032 0 01-2.67-6.8c-.5-2.38-.64-4.92-.42-7.61v-.03c.23-2.37.71-4.62 1.44-6.75.74-2.16 1.74-4.18 3-6.07a33.58 33.58 0 014.28-5.23c1.61-1.61 3.42-3.1 5.44-4.47l.03-.02c2.02-1.35 4.12-2.57 6.32-3.65 2.2-1.07 4.56-2.04 7.08-2.91v-.01c2.39-.81 4.92-1.55 7.6-2.19 2.6-.62 5.23-1.12 7.91-1.51 2.63-.4 5.33-.71 8.06-.92 1.43-.11 2.86-.19 4.29-.25 0-.59-.05-1.14-.16-1.67-.16-.76-.42-1.46-.8-2.09l-.03-.05c-.33-.59-.77-1.1-1.31-1.55-.55-.45-1.26-.86-2.11-1.22l.01-.01c-.85-.35-1.84-.62-2.96-.81-1.21-.2-2.58-.31-4.12-.31-2.1 0-4.08.1-5.95.3-1.89.2-3.73.49-5.49.88v.01c-1.77.4-3.53.88-5.27 1.44h-.01c-1.7.55-3.39 1.19-5.06 1.92l-4.64 2.02-1.03-3.73-4.24-15.26-.61-2.2 2.84-1.09c1.25-.48 2.7-.98 4.33-1.5 1.56-.49 3.24-.98 5.05-1.46l.01.01c1.91-.52 3.97-1 6.17-1.44 2.19-.43 4.46-.81 6.8-1.15 2.43-.35 4.99-.63 7.66-.83 2.63-.19 5.36-.29 8.19-.31h.06c3.68.01 7.06.19 10.13.55h-.01c3.16.36 6.02.9 8.6 1.63 2.6.72 4.93 1.57 6.99 2.55 2.13 1.02 4.01 2.2 5.65 3.51l.01.01c1.56 1.28 2.92 2.65 4.09 4.13 1.15 1.46 2.1 3.03 2.87 4.69.74 1.61 1.33 3.26 1.77 4.96.43 1.66.73 3.4.9 5.21v.02c.16 1.84.23 3.6.23 5.27zm7.77 55.75c-1.36-.52-2.54-1.07-3.53-1.65l-1.94-1.13.77-1.85 6.87-16.46 1.64-3.91 4.41 2.16c.62.31 1.32.61 2.09.9h.01c.88.33 1.79.64 2.7.92l.05.02c.87.27 1.9.56 3.08.85 1.17.28 2.28.52 3.35.71 1.11.19 2.25.33 3.42.43 1.18.11 2.32.17 3.42.18 1.65 0 3.09-.12 4.29-.37 1.01-.21 1.87-.51 2.57-.91h.01c.58-.32 1.04-.74 1.37-1.24.38-.57.61-1.29.68-2.15l.02-.06c.05-.44.02-.88-.07-1.31-.1-.42-.25-.81-.45-1.16l-.01.01c-.27-.43-.64-.86-1.12-1.3-.48-.44-1.09-.9-1.84-1.36l-.04-.02c-.82-.52-1.83-1.1-3.04-1.71v-.02c-1.06-.55-2.41-1.18-4.01-1.88v-.01c-3.05-1.33-5.75-2.7-8.09-4.08-2.47-1.46-4.56-2.94-6.3-4.44l-.03-.03c-1.69-1.49-3.12-3-4.27-4.51-1.18-1.54-2.08-3.11-2.69-4.68v-.01c-.6-1.52-1.01-3.02-1.23-4.49-.22-1.5-.25-2.99-.1-4.46h-.01c.21-2.04.64-4.03 1.3-5.97.65-1.93 1.55-3.79 2.69-5.59 1.16-1.83 2.51-3.51 4.04-5.05 1.54-1.55 3.3-3 5.29-4.35l-.01-.01c1.93-1.32 4.06-2.51 6.39-3.57a52.07 52.07 0 017.36-2.67c2.58-.73 5.35-1.28 8.28-1.65 2.84-.37 5.8-.55 8.88-.57h.04c2.53.01 4.94.12 7.23.32 2.28.2 4.46.51 6.55.92v.01c2.01.38 3.89.82 5.65 1.32v-.01c1.82.51 3.52 1.08 5.11 1.7l2.65 1.03-.92 2.21-6.88 16.46-1.58 3.78-4.37-1.98c-.94-.43-1.94-.83-2.99-1.18-1.1-.38-2.22-.71-3.36-1v.01c-1.14-.29-2.3-.5-3.48-.63-1.17-.14-2.45-.21-3.84-.22v-.01c-1 .01-1.92.09-2.77.22-.74.12-1.39.28-1.94.48h-.01l-.02.01a6.9 6.9 0 00-1.36.68c-.35.23-.65.49-.9.79h-.01c-.25.3-.46.63-.62 1-.15.36-.25.75-.28 1.15l-.01.07c-.05.35-.03.67.03.97.07.29.2.59.39.89.19.29.49.61.9.96h.02c.51.43 1.14.88 1.87 1.32l.03.02c.79.48 1.83 1.05 3.11 1.7h-.01c1.18.6 2.62 1.28 4.33 2.03v.01c2.82 1.23 5.36 2.51 7.61 3.84l.02.01c2.29 1.35 4.31 2.77 6.03 4.25 1.7 1.45 3.18 2.98 4.43 4.57 1.23 1.59 2.21 3.22 2.91 4.9l.02.01c.68 1.63 1.16 3.32 1.43 5.06.27 1.75.32 3.5.14 5.25-.32 3.08-1.07 5.95-2.28 8.61a25.609 25.609 0 01-5.02 7.38c-2.13 2.2-4.6 4.14-7.43 5.81-2.8 1.65-5.94 3.05-9.43 4.18-3.42 1.09-7.05 1.92-10.9 2.47-3.77.54-7.76.81-11.96.81-1.71 0-3.45-.05-5.21-.16-1.73-.11-3.48-.27-5.23-.48h-.01c-1.66-.2-3.33-.45-5.01-.76-1.62-.29-3.17-.63-4.66-1.02v.01c-1.54-.39-2.94-.84-4.21-1.32zm90.14-86.91l1.08-11.87.19-2.11 2.8-.63 31.29-7.03 5.18-1.17-.35 3.92-1.71 18.89h22.46l-.26 2.89-1.45 15.94-.26 2.88h-22.46l-3.2 35.36h-.01c-.11 1.47-.1 2.74.04 3.83.13.99.37 1.82.72 2.48l.02.01c.34.66.72 1.2 1.14 1.6v-.01c.36.35.74.6 1.14.76.51.21 1.06.37 1.66.48h-.01c.59.1 1.23.15 1.92.14h.07c.72 0 1.41-.01 2.04-.02.64-.02 1.24-.04 1.79-.08.67-.04 1.28-.09 1.81-.15h.02c.61-.06 1.26-.13 1.93-.22l4.57-.57-.26 3.38-1.35 17.49-.17 2.23-2.97.58c-1.12.22-2.46.44-4.02.65h-.01a95.8 95.8 0 01-4.56.51h-.01c-1.87.16-3.72.29-5.53.37-1.75.07-3.66.11-5.74.11-2.42 0-4.74-.11-6.94-.33-2.25-.23-4.39-.58-6.43-1.06h.01c-2.13-.48-4.09-1.11-5.89-1.88v-.01c-1.82-.77-3.49-1.7-5.03-2.77l-.13-.08c-1.1-.86-2.11-1.78-3-2.78-.88-.98-1.67-2.06-2.39-3.22-.72-1.18-1.32-2.49-1.8-3.92-.46-1.38-.83-2.91-1.08-4.56-.25-1.65-.4-3.44-.42-5.37-.02-1.91.07-3.99.27-6.22l3.33-36.73h-13.57l.26-2.88 1.44-15.95.27-2.88h13.56zm105.6 2.89l-7.6 83.85-.26 2.87h-38.47l.26-2.88 7.6-83.85.26-2.88h38.47zm68.97 62.86c.68-.17 1.38-.38 2.11-.64l5.18-1.83.23 4.11.97 17.66.12 2.1-2.69.85c-.63.2-1.42.41-2.35.64h-.02c-.94.22-1.87.43-2.76.59l-.03.01c-1.04.19-2.21.37-3.49.54-1.17.15-2.45.29-3.82.43-1.49.15-2.94.26-4.32.33-1.41.06-2.88.1-4.43.1h-.02c-5.19-.01-10.02-.45-14.5-1.32-4.49-.87-8.62-2.18-12.38-3.93l-.01-.01c-3.77-1.75-7.05-3.93-9.84-6.51a34.527 34.527 0 01-6.89-8.9c-1.81-3.35-3.07-7.06-3.76-11.14-.68-4-.83-8.37-.42-13.07v-.02c.32-3.36.96-6.61 1.9-9.75.95-3.15 2.2-6.13 3.74-8.94v-.01c1.58-2.84 3.42-5.5 5.53-7.98 2.12-2.48 4.51-4.77 7.18-6.87 2.68-2.1 5.59-3.96 8.71-5.58 3.11-1.62 6.47-3 10.05-4.15 3.6-1.16 7.36-2.03 11.27-2.61 3.87-.57 7.92-.86 12.14-.87l.06-.01c1.88.01 3.77.09 5.64.22 1.78.13 3.46.31 5.03.56v-.01c1.52.24 2.91.5 4.16.78 1.34.31 2.47.62 3.39.94l2.64.93-.68 2.17-5.58 17.66-1.11 3.51-4.38-1.31a26.2 26.2 0 00-1.76-.45v.01c-.69-.15-1.47-.31-2.35-.45v-.01c-.78-.13-1.65-.23-2.6-.31-1.03-.07-2.08-.12-3.16-.14v.01c-2.01.01-3.9.24-5.65.67-1.72.42-3.31 1.05-4.78 1.87v.01c-1.51.87-2.88 1.92-4.11 3.14-1.27 1.26-2.37 2.71-3.32 4.35l-.03.03c-.99 1.68-1.8 3.5-2.4 5.46-.61 2-1.03 4.15-1.23 6.46-.22 2.4-.21 4.6.04 6.59.23 1.96.7 3.77 1.39 5.44.66 1.59 1.5 2.98 2.5 4.16.98 1.15 2.13 2.12 3.46 2.91l.03.02c1.27.77 2.68 1.35 4.24 1.73 1.6.4 3.42.6 5.42.61.99 0 1.92-.03 2.81-.08.91-.06 1.78-.15 2.6-.26.82-.12 1.6-.27 2.33-.44zm40.48 24.67c-1.93.36-3.99.54-6.18.56l-.07.01c-1.94-.02-3.82-.22-5.6-.61-1.73-.37-3.37-.93-4.91-1.68-1.57-.74-2.95-1.64-4.17-2.7a16.416 16.416 0 01-3.06-3.54v-.02c-.85-1.36-1.45-2.81-1.79-4.35-.33-1.5-.42-3.12-.29-4.87v-.06c.17-1.65.58-3.23 1.21-4.74.64-1.52 1.51-2.94 2.61-4.28l.01-.02c1.09-1.31 2.34-2.5 3.74-3.55v-.01c1.4-1.04 2.97-1.96 4.71-2.74 1.77-.8 3.57-1.4 5.42-1.8 1.84-.4 3.77-.61 5.78-.63h.04c2.01 0 3.91.19 5.68.55 1.81.37 3.51.93 5.12 1.66 1.61.75 3.02 1.66 4.23 2.71 1.18 1.03 2.19 2.22 3.03 3.56l.02.01c.82 1.33 1.4 2.79 1.74 4.37.32 1.5.41 3.15.27 4.91l.01.05c-.18 1.72-.55 3.35-1.14 4.88-.59 1.55-1.39 2.99-2.41 4.31h-.01c-1.01 1.33-2.23 2.53-3.64 3.6-1.42 1.08-3 1.99-4.73 2.73l-.01-.02c-1.77.77-3.64 1.33-5.61 1.71zm60.83-.81h-34.58l.27-2.88 5.31-58.64c.23-2.57.4-4.72.53-6.59.11-1.61.23-3.83.37-6.34.1-2.36.18-4.34.24-6.1l.21-6.06.09-3h34.19l.2 2.52.28 3.53c.74-.49 1.5-.96 2.27-1.4v-.01c1.6-.93 3.31-1.77 5.12-2.53a53.03 53.03 0 015.54-1.93c1.94-.56 3.96-.98 6.06-1.27 2.08-.29 4.23-.43 6.43-.45h.06c3.53.01 6.76.3 9.67.87 2.99.58 5.65 1.46 8 2.63h.02c2.29 1.16 4.26 2.57 5.91 4.24.49.5.96 1.02 1.39 1.56.73-.56 1.5-1.11 2.3-1.65l.03-.02a50.26 50.26 0 013.67-2.21c1.29-.71 2.56-1.34 3.79-1.89l.08-.04a38.93 38.93 0 014.28-1.53c1.49-.45 2.99-.81 4.51-1.1 1.46-.28 3-.49 4.63-.64h.01c1.61-.15 3.21-.22 4.79-.22h.03c3.81.01 7.28.39 10.4 1.11 3.19.75 6.01 1.87 8.44 3.36 2.4 1.46 4.43 3.25 6.11 5.35 1.64 2.06 2.92 4.4 3.83 7 .89 2.52 1.46 5.32 1.74 8.4.27 3.03.24 6.28-.07 9.73l-4.83 53.33-.26 2.87h-38.48l.27-2.88 4.49-49.56-.01-.02c.16-1.53.25-2.98.26-4.36.01-1.42-.04-2.71-.16-3.84-.12-1.09-.35-2.06-.69-2.91-.31-.76-.71-1.41-1.2-1.96-.33-.37-.76-.65-1.29-.83l.01-.01c-.59-.21-1.36-.32-2.29-.32v-.01c-.88 0-1.68.11-2.41.3-.74.2-1.44.52-2.11.93l-.03.03c-.71.43-1.35.98-1.93 1.64-.65.74-1.22 1.6-1.7 2.58l-.1.19c-.13.21-.25.47-.35.75-.12.32-.23.69-.32 1.08-.1.48-.19.99-.27 1.53-.08.49-.14 1.03-.2 1.64l-4.81 53.16-.26 2.87H852.1l.26-2.88 4.77-52.64.01-.05c.08-.72.13-1.46.15-2.2.02-.72.02-1.49-.01-2.29-.02-.7-.09-1.38-.22-2.04-.11-.61-.29-1.23-.52-1.82-.18-.47-.42-.89-.71-1.26-.28-.34-.6-.63-.97-.87-.29-.18-.65-.33-1.1-.43v-.01c-.57-.13-1.24-.2-1.99-.22v.01c-.73 0-1.46.09-2.18.28-.73.2-1.46.5-2.17.89h.01c-.75.43-1.44.98-2.06 1.65h.01c-.7.76-1.32 1.66-1.86 2.7l-.01.03c-.19.37-.35.72-.48 1.04-.16.41-.3.84-.44 1.3-.12.47-.24.98-.34 1.53-.09.52-.17 1.05-.22 1.59l-4.78 52.82-.26 2.87h-3.9zm180.49-71.58h-.01l.01.01v-.01zm-22.05 12.87l.01.01v-.01h-.01zm21.51 27.57c.07-.42.13-.89.17-1.41l1.99-21.94.11-1.2c.02-.33.05-.69.07-1.1-.03 0 .03-.36-.03-1.13a7.36 7.36 0 00-.13-.93l-.03-.23c-.06-.73-.2-1.43-.4-2.12-.19-.65-.45-1.3-.77-1.94.09-.04-.96-1.34-1.05-1.43-.37-.4-.79-.75-1.24-1.03-.4-.24-.79-.44-1.25-.56-.42.03-1.09-.2-1.55-.2-.83.01-1.59.12-2.28.31-.68.2-1.33.5-1.94.9l-.03.02c-.75.48-1.44 1.07-2.09 1.75.01 0-1.73 2.29-1.89 2.54h.01a28.17 28.17 0 00-1.69 3.44l.01.01c-.5 1.23-.95 2.53-1.32 3.91-.4 1.55-.73 3.07-.98 4.54-.25 1.48-.46 3.07-.61 4.74-.23 2.58-.3 4.92-.21 7.01.1 2.11.36 4.02.77 5.71.39 1.61.91 3.03 1.54 4.26.58 1.11 1.24 2.02 1.99 2.72l.01.02c.66.61 1.37 1.07 2.12 1.36v.01c.66.25 1.39.38 2.18.38h.11c.34 0 .71-.02 1.1-.08.41-.06.87-.18 1.36-.33l.06-.01c.31-.09.65-.24 1.01-.44.46-.26.9-.56 1.31-.9 0-.01 1.17-1.27 1.26-1.4.66-.89 1.34-1.99 1.76-3.02.13-.3.23-.62.32-.95.08-.35.16-.78.23-1.28zm5.15-56.32l3.08-34.08.26-2.88h38.48l-.26 2.89-8.5 93.79c-.15 1.62-.27 2.99-.34 4.01-.08 1.15-.17 2.5-.25 4.13l.01.04c-.2 3.2-.34 5.84-.46 8.47l-.01.04-.14 4.08-.13 3.97-.09 3h-33.95l-.21-2.51-.25-2.98c-.34.24-.69.47-1.04.7-1.41.91-2.95 1.74-4.62 2.5-1.64.74-3.34 1.38-5.1 1.92l-.01-.01c-1.82.57-3.67 1-5.55 1.29-1.87.29-3.82.44-5.84.46l-.07.01c-3.38-.03-6.55-.38-9.5-1.03-2.98-.67-5.7-1.64-8.15-2.93l-.01-.01c-2.37-1.27-4.52-2.77-6.44-4.52a29.943 29.943 0 01-4.91-5.83h-.02a37.171 37.171 0 01-3.46-6.84c-.91-2.38-1.62-4.95-2.12-7.71-.5-2.69-.8-5.47-.91-8.36-.11-2.89-.03-5.85.25-8.87v-.01c.35-3.73.95-7.26 1.77-10.57.83-3.32 1.9-6.42 3.2-9.28 1.31-2.87 2.79-5.5 4.44-7.9 1.67-2.43 3.54-4.64 5.61-6.62 2.05-1.97 4.22-3.7 6.49-5.18 2.3-1.5 4.73-2.76 7.29-3.78v-.01c2.6-1.03 5.23-1.81 7.89-2.32 2.67-.51 5.38-.76 8.14-.76l.05-.01c1.87.02 3.64.14 5.32.36 1.7.22 3.29.56 4.76 1l.05.02c1.41.45 2.73.98 3.94 1.59.45.23.89.47 1.31.73z" class="ahfil2"/><path d="M666.71 0l-4.46 23.4h-36.69z" class="ahfil0"/></g></svg><svg viewBox="0 0 60.021 60.021" id="game-controller-1" xmlns="http://www.w3.org/2000/svg"><path d="M58.539 31.921c-1.984-7.332-5.439-14.481-6.443-16.482-.045-.107-.147-.508-.223-.801-.412-1.61-.683-2.534-1.463-2.818l-7.675-2.791a3.246 3.246 0 00-2.898.339c-.883.564-1.876 1.117-2.194 1.226H22.826c-.364-.106-1.561-.719-2.439-1.215a3.263 3.263 0 00-2.914-.35L9.797 11.82c-.775.282-1.042 1.191-1.447 2.774-.077.304-.184.718-.222.809-.446.843-4.425 8.463-6.65 16.583-2.644 9.647-1.737 15.961 2.694 18.765 1.035.656 2.421.545 3.371-.27l9.127-7.827a6.129 6.129 0 013.987-1.475h18.892c1.461 0 2.877.523 3.987 1.475l9.127 7.827a2.905 2.905 0 001.89.707 2.69 2.69 0 001.503-.452c4.255-2.856 5.091-9.186 2.483-18.815zM29.48 12.594c.207.033.487.034.566-.001h1.749v.03c0 .59-.259 1.147-.711 1.529a1.98 1.98 0 01-1.649.438 2.01 2.01 0 01-1.594-1.534 2.045 2.045 0 01-.045-.464l1.684.002zm25.462 36.481c-.274.186-.685.137-.975-.112l-9.128-7.827a8.132 8.132 0 00-5.289-1.957H20.657a8.13 8.13 0 00-5.289 1.957l-9.127 7.827c-.287.246-.697.288-.999.098-4.486-2.839-3.474-10.565-1.835-16.547C5.575 24.602 9.46 17.162 9.895 16.34c.134-.252.227-.603.393-1.25.099-.389.291-1.141.438-1.48l7.431-2.702c.373-.138.791-.085 1.181.173 2.666 1.513 3.21 1.513 3.415 1.513h3.045a3.997 3.997 0 006.575 3.089 3.996 3.996 0 001.421-3.058l-.003-.03h3.935c.232 0 .777 0 3.204-1.551.33-.221.748-.269 1.12-.135l7.433 2.703c.151.346.35 1.122.452 1.522.156.614.244.946.365 1.187 1.379 2.746 13.214 27 4.642 32.754z"/><path d="M37.795 26.179c-2.757 0-5 2.243-5 5s2.243 5 5 5 5-2.243 5-5-2.244-5-5-5zm0 8c-1.654 0-3-1.346-3-3s1.346-3 3-3 3 1.346 3 3-1.346 3-3 3zm-18-13c0-2.757-2.243-5-5-5s-5 2.243-5 5 2.243 5 5 5 5-2.243 5-5zm-5 3c-1.654 0-3-1.346-3-3s1.346-3 3-3 3 1.346 3 3-1.346 3-3 3z"/><circle cx="44.795" cy="17.179" r="2"/><circle cx="40.795" cy="21.179" r="2"/><circle cx="48.795" cy="21.179" r="2"/><circle cx="44.795" cy="25.179" r="2"/><path d="M28.295 27.832h-2.286v-2.285c0-.945-.769-1.715-1.714-1.715h-2.571c-.945 0-1.714.77-1.714 1.715v2.285h-2.286c-.945 0-1.714.77-1.714 1.715v2.57c0 .945.769 1.715 1.714 1.715h2.286v2.285c0 .945.769 1.715 1.714 1.715h2.571c.945 0 1.714-.77 1.714-1.715v-2.285h2.286c.945 0 1.714-.77 1.714-1.715v-2.57c0-.945-.769-1.715-1.714-1.715zm-.286 4h-4v4h-2v-4h-4v-2h4v-4h2v4h4v2z"/></svg><svg viewBox="0 0 512 512" id="headset" xmlns="http://www.w3.org/2000/svg"><path d="M471.059 206.77a88.838 88.838 0 00-17.578-8.741C444.032 97.38 359.078 18.348 256 18.348c-103.077 0-188.031 79.031-197.481 179.68a88.788 88.788 0 00-17.568 8.735C15.309 223.273 0 251.321 0 281.792v28.821c0 49.181 40.012 89.194 89.194 89.194h20.112c15.626 0 28.339-12.713 28.339-28.34v-150.53c0-15.626-12.713-28.34-28.339-28.34H89.194c-.503 0-1.004.019-1.507.026C99.423 110.241 170.423 46.687 256 46.687s156.577 63.553 168.313 145.938c-.503-.008-1.004-.026-1.507-.026h-20.112c-15.626 0-28.339 12.713-28.339 28.339v150.53c0 15.626 12.713 28.339 28.339 28.339h19.032c-11.949 37.926-47.446 65.505-89.267 65.505-7.825 0-14.17 6.344-14.17 14.17s6.344 14.17 14.17 14.17c59.326 0 108.88-42.6 119.703-98.814C486.966 382.672 512 349.514 512 310.613v-28.821c0-30.471-15.307-58.518-40.941-75.022zM89.194 220.938h20.112l.018 150.529-.018.001H89.194c-33.555 0-60.854-27.299-60.854-60.854v-28.821c0-20.792 10.45-39.931 27.958-51.204 9.796-6.314 21.172-9.651 32.896-9.651zm394.467 89.675c0 33.555-27.298 60.854-60.854 60.854h-20.112v-150.53h20.112c11.724 0 23.101 3.338 32.907 9.657 17.5 11.267 27.947 30.406 27.947 51.197v28.822z"/></svg><svg viewBox="0 0 511.751 511.751" id="home" xmlns="http://www.w3.org/2000/svg"><path d="M426.529 281.351a8.533 8.533 0 00-8.533 8.533v196.267a8.533 8.533 0 01-8.533 8.533H324.13v-128c0-14.138-11.462-25.6-25.6-25.6h-85.333c-14.138 0-25.6 11.461-25.6 25.6v128h-85.333a8.533 8.533 0 01-8.533-8.533V289.884c0-4.713-3.82-8.533-8.533-8.533s-8.533 3.82-8.533 8.533v196.267c0 14.138 11.461 25.6 25.6 25.6h307.2c14.138 0 25.6-11.461 25.6-25.6V289.884a8.536 8.536 0 00-8.536-8.533zM307.063 494.684h-102.4v-128a8.533 8.533 0 018.533-8.533h85.333a8.533 8.533 0 018.533 8.533v128zm173.252-274.867L274.047 7.482c-10.071-9.976-26.298-9.976-36.369 0L31.436 219.817a26.35 26.35 0 00-5.316 28.706 25.25 25.25 0 0023.484 15.761h2.918a25.377 25.377 0 0016.555-6.357c.609-.397 1.18-.848 1.707-1.348L255.863 65.927l185.216 190.754c.494.469 1.028.894 1.596 1.271a25.392 25.392 0 0016.529 6.332h2.918a25.249 25.249 0 0023.509-15.761 26.35 26.35 0 00-5.316-28.706zm-10.402 22.067a8.447 8.447 0 01-7.791 5.333h-2.918a8.241 8.241 0 01-5.973-2.56c-.06-.068-.154-.085-.213-.145-.06-.06-.119-.154-.196-.213L261.981 47.734l-.102-.068-.043-.128a7.795 7.795 0 00-1.323-.853 8.158 8.158 0 00-1.425-.913 7.931 7.931 0 00-1.613-.341 4.618 4.618 0 00-3.174 0 8.014 8.014 0 00-1.613.341 8.276 8.276 0 00-1.425.913 7.795 7.795 0 00-1.323.853l-.068.102-.102.068L58.888 244.299c-.077.06-.111.145-.188.205s-.162.085-.222.154a8.244 8.244 0 01-5.973 2.56h-2.901a8.448 8.448 0 01-7.791-5.333 9.267 9.267 0 011.835-10.18h-.018L249.889 19.378a8.38 8.38 0 0111.896 0l206.293 212.326a9.267 9.267 0 011.835 10.18z"/><path d="M289.996 298.418c14.138 0 25.6-11.462 25.6-25.6v-59.733c0-14.139-11.462-25.6-25.6-25.6h-68.267c-14.138 0-25.6 11.461-25.6 25.6v59.733c0 14.138 11.461 25.6 25.6 25.6h68.267zm-76.8-25.6v-59.733a8.533 8.533 0 018.533-8.533h68.267a8.533 8.533 0 018.533 8.533v59.733a8.533 8.533 0 01-8.533 8.533h-68.267a8.533 8.533 0 01-8.533-8.533zm17.067 145.066h-8.533c-4.713 0-8.533 3.82-8.533 8.533s3.82 8.533 8.533 8.533h8.533a8.533 8.533 0 000-17.066z"/></svg><svg viewBox="0 0 51.997 51.997" id="like" xmlns="http://www.w3.org/2000/svg"><path d="M51.911 16.242c-.759-8.354-6.672-14.415-14.072-14.415-4.93 0-9.444 2.653-11.984 6.905-2.517-4.307-6.846-6.906-11.697-6.906C6.759 1.826.845 7.887.087 16.241c-.06.369-.306 2.311.442 5.478 1.078 4.568 3.568 8.723 7.199 12.013l18.115 16.439 18.426-16.438c3.631-3.291 6.121-7.445 7.199-12.014.748-3.166.502-5.108.443-5.477zm-2.39 5.019c-.984 4.172-3.265 7.973-6.59 10.985L25.855 47.481 9.072 32.25c-3.331-3.018-5.611-6.818-6.596-10.99-.708-2.997-.417-4.69-.416-4.701l.015-.101c.65-7.319 5.731-12.632 12.083-12.632 4.687 0 8.813 2.88 10.771 7.515l.921 2.183.921-2.183c1.927-4.564 6.271-7.514 11.069-7.514 6.351 0 11.433 5.313 12.096 12.727.002.016.293 1.71-.415 4.707z"/></svg><svg viewBox="0 0 504 504" id="mastercard" xmlns="http://www.w3.org/2000/svg"><path fill="#FFB600" d="M504 252c0 83.2-67.2 151.2-151.2 151.2-83.2 0-151.2-68-151.2-151.2S268.8 100.8 352 100.8c84.8 0 152 68 152 151.2z"/><path fill="#F7981D" d="M352.8 100.8c83.2 0 151.2 68 151.2 151.2s-67.2 151.2-151.2 151.2c-83.2 0-151.2-68-151.2-151.2"/><path fill="#FF8500" d="M352.8 100.8c83.2 0 151.2 68 151.2 151.2s-67.2 151.2-151.2 151.2"/><path fill="#FF5050" d="M149.6 100.8C67.2 101.6 0 168.8 0 252s67.2 151.2 151.2 151.2c39.2 0 74.4-15.2 101.6-39.2 5.6-4.8 10.4-10.4 15.2-16h-31.2c-4-4.8-8-10.4-11.2-15.2h53.6c3.2-4.8 6.4-10.4 8.8-16h-71.2c-2.4-4.8-4.8-10.4-6.4-16h83.2c4.8-15.2 8-31.2 8-48 0-11.2-1.6-21.6-3.2-32h-92.8c.8-5.6 2.4-10.4 4-16h83.2c-1.6-5.6-4-11.2-6.4-16H216c2.4-5.6 5.6-10.4 8.8-16h53.6c-3.2-5.6-7.2-11.2-12-16h-29.6c4.8-5.6 9.6-10.4 15.2-15.2-26.4-24.8-62.4-39.2-101.6-39.2 0-1.6 0-1.6-.8-1.6z"/><path fill="#E52836" d="M0 252c0 83.2 67.2 151.2 151.2 151.2 39.2 0 74.4-15.2 101.6-39.2 5.6-4.8 10.4-10.4 15.2-16h-31.2c-4-4.8-8-10.4-11.2-15.2h53.6c3.2-4.8 6.4-10.4 8.8-16h-71.2c-2.4-4.8-4.8-10.4-6.4-16h83.2c4.8-15.2 8-31.2 8-48 0-11.2-1.6-21.6-3.2-32h-92.8c.8-5.6 2.4-10.4 4-16h83.2c-1.6-5.6-4-11.2-6.4-16H216c2.4-5.6 5.6-10.4 8.8-16h53.6c-3.2-5.6-7.2-11.2-12-16h-29.6c4.8-5.6 9.6-10.4 15.2-15.2-26.4-24.8-62.4-39.2-101.6-39.2h-.8"/><path fill="#CB2026" d="M151.2 403.2c39.2 0 74.4-15.2 101.6-39.2 5.6-4.8 10.4-10.4 15.2-16h-31.2c-4-4.8-8-10.4-11.2-15.2h53.6c3.2-4.8 6.4-10.4 8.8-16h-71.2c-2.4-4.8-4.8-10.4-6.4-16h83.2c4.8-15.2 8-31.2 8-48 0-11.2-1.6-21.6-3.2-32h-92.8c.8-5.6 2.4-10.4 4-16h83.2c-1.6-5.6-4-11.2-6.4-16H216c2.4-5.6 5.6-10.4 8.8-16h53.6c-3.2-5.6-7.2-11.2-12-16h-29.6c4.8-5.6 9.6-10.4 15.2-15.2-26.4-24.8-62.4-39.2-101.6-39.2h-.8"/><path d="M204.8 290.4l2.4-13.6c-.8 0-2.4.8-4 .8-5.6 0-6.4-3.2-5.6-4.8l4.8-28h8.8l2.4-15.2h-8l1.6-9.6h-16s-9.6 52.8-9.6 59.2c0 9.6 5.6 13.6 12.8 13.6 4.8 0 8.8-1.6 10.4-2.4zm5.6-25.6c0 22.4 15.2 28 28 28 12 0 16.8-2.4 16.8-2.4l3.2-15.2s-8.8 4-16.8 4c-17.6 0-14.4-12.8-14.4-12.8H260s2.4-10.4 2.4-14.4c0-10.4-5.6-23.2-23.2-23.2-16.8-1.6-28.8 16-28.8 36zm28-23.2c8.8 0 7.2 10.4 7.2 11.2H228c0-.8 1.6-11.2 10.4-11.2zM340 290.4l3.2-17.6s-8 4-13.6 4c-11.2 0-16-8.8-16-18.4 0-19.2 9.6-29.6 20.8-29.6 8 0 14.4 4.8 14.4 4.8l2.4-16.8s-9.6-4-18.4-4c-18.4 0-36.8 16-36.8 46.4 0 20 9.6 33.6 28.8 33.6 6.4 0 15.2-2.4 15.2-2.4zm-223.2-63.2c-11.2 0-19.2 3.2-19.2 3.2L95.2 244s7.2-3.2 17.6-3.2c5.6 0 10.4.8 10.4 5.6 0 3.2-.8 4-.8 4h-7.2c-13.6 0-28.8 5.6-28.8 24 0 14.4 9.6 17.6 15.2 17.6 11.2 0 16-7.2 16.8-7.2l-.8 6.4H132l6.4-44c0-19.2-16-20-21.6-20zm3.2 36c0 2.4-1.6 15.2-11.2 15.2-4.8 0-6.4-4-6.4-6.4 0-4 2.4-9.6 14.4-9.6 2.4.8 3.2.8 3.2.8zm33.6 28.8c4 0 24 .8 24-20.8 0-20-19.2-16-19.2-24 0-4 3.2-5.6 8.8-5.6 2.4 0 11.2.8 11.2.8l2.4-14.4s-5.6-1.6-15.2-1.6c-12 0-24 4.8-24 20.8 0 18.4 20 16.8 20 24 0 4.8-5.6 5.6-9.6 5.6-7.2 0-14.4-2.4-14.4-2.4l-2.4 14.4c.8 1.6 4.8 3.2 18.4 3.2zm319.2-77.6l-3.2 21.6s-6.4-8-15.2-8c-14.4 0-27.2 17.6-27.2 38.4 0 12.8 6.4 26.4 20 26.4 9.6 0 15.2-6.4 15.2-6.4l-.8 5.6h16l12-76.8-16.8-.8zm-7.2 42.4c0 8.8-4 20-12.8 20-5.6 0-8.8-4.8-8.8-12.8 0-12.8 5.6-20.8 12.8-20.8 5.6 0 8.8 4 8.8 13.6zm-436 34.4l9.6-57.6 1.6 57.6H52l20.8-57.6-8.8 57.6h16.8l12.8-76.8H67.2l-16 47.2-.8-47.2H27.2l-12.8 76.8h15.2zm248 0c4.8-26.4 5.6-48 16.8-44 1.6-10.4 4-14.4 5.6-18.4h-3.2c-7.2 0-12.8 9.6-12.8 9.6l1.6-8.8h-15.2L260 292h17.6v-.8zm99.2-64c-11.2 0-19.2 3.2-19.2 3.2l-2.4 13.6s7.2-3.2 17.6-3.2c5.6 0 10.4.8 10.4 5.6 0 3.2-.8 4-.8 4h-7.2c-13.6 0-28.8 5.6-28.8 24 0 14.4 9.6 17.6 15.2 17.6 11.2 0 16-7.2 16.8-7.2l-.8 6.4H392l6.4-44c.8-19.2-16-20-21.6-20zm4 36c0 2.4-1.6 15.2-11.2 15.2-4.8 0-6.4-4-6.4-6.4 0-4 2.4-9.6 14.4-9.6 2.4.8 2.4.8 3.2.8zm31.2 28c4.8-26.4 5.6-48 16.8-44 1.6-10.4 4-14.4 5.6-18.4h-3.2c-7.2 0-12.8 9.6-12.8 9.6l1.6-8.8h-15.2L394.4 292H412v-.8z" fill="#fff"/><path d="M180 279.2c0 9.6 5.6 13.6 12.8 13.6 5.6 0 10.4-1.6 12-2.4l2.4-13.6c-.8 0-2.4.8-4 .8-5.6 0-6.4-3.2-5.6-4.8l4.8-28h8.8l2.4-15.2h-8l1.6-9.6m11.2 44.8c0 22.4 7.2 28 20 28 12 0 16.8-2.4 16.8-2.4l3.2-15.2s-8.8 4-16.8 4c-17.6 0-14.4-12.8-14.4-12.8H260s2.4-10.4 2.4-14.4c0-10.4-5.6-23.2-23.2-23.2-16.8-1.6-20.8 16-20.8 36zm20-23.2c8.8 0 10.4 10.4 10.4 11.2H228c0-.8 1.6-11.2 10.4-11.2zM340 290.4l3.2-17.6s-8 4-13.6 4c-11.2 0-16-8.8-16-18.4 0-19.2 9.6-29.6 20.8-29.6 8 0 14.4 4.8 14.4 4.8l2.4-16.8s-9.6-4-18.4-4c-18.4 0-28.8 16-28.8 46.4 0 20 1.6 33.6 20.8 33.6 6.4 0 15.2-2.4 15.2-2.4zM95.2 244.8s7.2-3.2 17.6-3.2c5.6 0 10.4.8 10.4 5.6 0 3.2-.8 4-.8 4h-7.2c-13.6 0-28.8 5.6-28.8 24 0 14.4 9.6 17.6 15.2 17.6 11.2 0 16-7.2 16.8-7.2l-.8 6.4H132l6.4-44c0-18.4-16-19.2-22.4-19.2m12 34.4c0 2.4-9.6 15.2-19.2 15.2-4.8 0-6.4-4-6.4-6.4 0-4 2.4-9.6 14.4-9.6 2.4.8 11.2.8 11.2.8zm8 27.2s4.8 1.6 18.4 1.6c4 0 24 .8 24-20.8 0-20-19.2-16-19.2-24 0-4 3.2-5.6 8.8-5.6 2.4 0 11.2.8 11.2.8l2.4-14.4s-5.6-1.6-15.2-1.6c-12 0-16 4.8-16 20.8 0 18.4 12 16.8 12 24 0 4.8-5.6 5.6-9.6 5.6M469.6 236s-6.4-8-15.2-8c-14.4 0-19.2 17.6-19.2 38.4 0 12.8-1.6 26.4 12 26.4 9.6 0 15.2-6.4 15.2-6.4l-.8 5.6h16l12-76.8m-20.8 41.6c0 8.8-7.2 20-16 20-5.6 0-8.8-4.8-8.8-12.8 0-12.8 5.6-20.8 12.8-20.8 5.6 0 12 4 12 13.6zM29.6 291.2l9.6-57.6 1.6 57.6H52l20.8-57.6-8.8 57.6h16.8l12.8-76.8h-20l-22.4 47.2-.8-47.2h-8.8l-27.2 76.8h15.2zm231.2 0h16.8c4.8-26.4 5.6-48 16.8-44 1.6-10.4 4-14.4 5.6-18.4h-3.2c-7.2 0-12.8 9.6-12.8 9.6l1.6-8.8m69.6 15.2s7.2-3.2 17.6-3.2c5.6 0 10.4.8 10.4 5.6 0 3.2-.8 4-.8 4h-7.2c-13.6 0-28.8 5.6-28.8 24 0 14.4 9.6 17.6 15.2 17.6 11.2 0 16-7.2 16.8-7.2l-.8 6.4H392l6.4-44c0-18.4-16-19.2-22.4-19.2m12 34.4c0 2.4-9.6 15.2-19.2 15.2-4.8 0-6.4-4-6.4-6.4 0-4 2.4-9.6 14.4-9.6 3.2.8 11.2.8 11.2.8zm7.2 28H412c4.8-26.4 5.6-48 16.8-44 1.6-10.4 4-14.4 5.6-18.4h-3.2c-7.2 0-12.8 9.6-12.8 9.6l1.6-8.8" fill="#DCE5E5"/></svg><svg viewBox="0 0 512.002 512.002" id="next-1-2" xmlns="http://www.w3.org/2000/svg"><path d="M388.425 241.951L151.609 5.79c-7.759-7.733-20.321-7.72-28.067.04-7.74 7.759-7.72 20.328.04 28.067l222.72 222.105-222.728 222.104c-7.759 7.74-7.779 20.301-.04 28.061a19.8 19.8 0 0014.057 5.835 19.79 19.79 0 0014.017-5.795l236.817-236.155c3.737-3.718 5.834-8.778 5.834-14.05s-2.103-10.326-5.834-14.051z"/></svg><svg viewBox="0 0 512.002 512.002" id="next-1-3" xmlns="http://www.w3.org/2000/svg"><path d="M388.425 241.951L151.609 5.79c-7.759-7.733-20.321-7.72-28.067.04-7.74 7.759-7.72 20.328.04 28.067l222.72 222.105-222.728 222.104c-7.759 7.74-7.779 20.301-.04 28.061a19.8 19.8 0 0014.057 5.835 19.79 19.79 0 0014.017-5.795l236.817-236.155c3.737-3.718 5.834-8.778 5.834-14.05s-2.103-10.326-5.834-14.051z"/></svg><svg viewBox="0 0 60 58" id="payment" xmlns="http://www.w3.org/2000/svg"><g fill="#000" fill-rule="nonzero"><path d="M53 9h-1V7a7.008 7.008 0 00-7-7H7a7.008 7.008 0 00-7 7v21a7.008 7.008 0 007 7h1v2a7.008 7.008 0 007 7h12v9a5.006 5.006 0 005 5h18a5.006 5.006 0 005-5v-9.3a6.958 6.958 0 005-6.7V16a7.008 7.008 0 00-7-7zm-5 23v-3a7 7 0 10-14 0v3h-2v-3a9 9 0 0117.981-.571c.009.184.019.378.019.571v3zm-12 0v-3a5 5 0 0110 0v3zM2 28V7a5.006 5.006 0 015-5h38a5.006 5.006 0 015 5v15.694A10.99 10.99 0 0030 29v3.142a3.97 3.97 0 00-1.618.858H7a5.006 5.006 0 01-5-5zm13 14a5.006 5.006 0 01-5-5v-2h17.142c-.09.326-.138.662-.142 1v6zm38 11a3 3 0 01-3 3H32a3 3 0 01-3-3V36a2 2 0 012-2h20a2 2 0 012 2zm5-16a4.958 4.958 0 01-3 4.564V36a4.002 4.002 0 00-3-3.858V11h1a5.006 5.006 0 015 5z"/><path d="M14 15a3 3 0 003-3V8a3 3 0 00-3-3H8a3 3 0 00-3 3v4a3 3 0 003 3zm0-2h-3v-2h4v1a1 1 0 01-1 1zm1-5v1h-4V7h3a1 1 0 011 1zM8 7h1v2H7V8a1 1 0 011-1zm-1 5v-1h2v2H8a1 1 0 01-1-1zm8 10a1 1 0 00-1-1H8a1 1 0 000 2h6a1 1 0 001-1zm3 1h6a1 1 0 000-2h-6a1 1 0 000 2zm10 0h1a1 1 0 000-2h-1a1 1 0 000 2zm-17 5a1 1 0 00-1-1H8a1 1 0 000 2h2a1 1 0 001-1zm6-1h-2a1 1 0 000 2h2a1 1 0 000-2zm20-13a3.976 3.976 0 003-1.382 4 4 0 100-5.236 3.99 3.99 0 00-6.884 3.577A3.993 3.993 0 0037 14zm6-6a2 2 0 11.001 3.999A2 2 0 0143 8zm-6 0a2 2 0 11.001 3.999A2 2 0 0137 8zm4 28a9 9 0 109 9 9.011 9.011 0 00-9-9zm0 16a7 7 0 117-7 7.008 7.008 0 01-7 7z"/><path d="M42 42v-1a1 1 0 00-2 0v2a1 1 0 001 1v1a1 1 0 00-1 1v3a1 1 0 002 0v-2a1 1 0 001-1v-3a1 1 0 00-1-1z"/></g></svg><svg viewBox="0 0 488.8 488.8" id="paypal" xmlns="http://www.w3.org/2000/svg"><path fill="#32A6CE" d="M381.6 200.4c-12 0-21.6 3.2-29.6 4.8l-2.4 18.4c4-1.6 15.2-4.8 24.8-5.6 9.6 0 15.2 1.6 13.6 10.4-28.8 0-48 5.6-52 24.8-5.6 32 29.6 32.8 43.2 18.4l-1.6 8.8h25.6l11.2-52c4-21.6-15.2-28.8-32.8-28zm1.6 53.6c-1.6 6.4-7.2 8.8-13.6 9.6-5.6 0-10.4-3.2-7.2-9.6 3.2-4.8 10.4-4.8 16-4.8h6.4c-.8-.8-1.6 2.4-1.6 4.8z"/><path fill="#1A80AD" d="M349.6 223.6c4-1.6 15.2-4.8 24.8-5.6 9.6 0 15.2 1.6 13.6 10.4-28.8 0-48 5.6-52 24.8-5.6 32 29.6 32.8 43.2 18.4l-1.6 8.8h25.6l11.2-52c4.8-21.6-15.2-27.2-32.8-27.2m1.6 52.8c-1.6 6.4-7.2 8.8-13.6 9.6-5.6 0-10.4-3.2-7.2-9.6 3.2-4.8 10.4-4.8 16-4.8h6.4c-.8-.8-1.6 2.4-1.6 4.8z"/><path fill="#32A6CE" d="M436 176.4l-20.8 104h25.6l21.6-104z"/><path fill="#1A80AD" d="M454.4 176.4l-39.2 104h25.6l21.6-104H436z"/><path fill="#32A6CE" d="M316.8 176.4h-47.2l-20.8 104h28l7.2-32h20c19.2 0 35.2-11.2 39.2-31.2 4-23.2-12.8-40.8-26.4-40.8zm-.8 36c-1.6 7.2-8.8 12-16 12h-12.8l5.6-24h13.6c7.2 0 11.2 4.8 9.6 12z"/><path fill="#1A80AD" d="M316.8 176.4h-32l-36.8 104h28l7.2-32h20c19.2 0 35.2-11.2 39.2-31.2 4.8-23.2-12-40.8-25.6-40.8zm-.8 36c-1.6 7.2-8.8 12-16 12h-12.8l5.6-24h13.6c7.2 0 11.2 4.8 9.6 12z"/><path fill="#21789E" d="M132 200.4c-12 0-21.6 3.2-28.8 4.8l-2.4 18.4c3.2-1.6 15.2-4.8 24.8-5.6 9.6 0 15.2 1.6 13.6 10.4-28 0-47.2 5.6-51.2 24.8-5.6 32 28.8 32.8 42.4 18.4l-1.6 8.8h25.6l11.2-52c4-21.6-16-28.8-33.6-28zm2.4 53.6c-1.6 6.4-7.2 8.8-13.6 9.6-5.6 0-10.4-3.2-6.4-9.6 3.2-4.8 10.4-4.8 15.2-4.8h6.4c-.8-.8-1.6 2.4-1.6 4.8z"/><path fill="#1A5B80" d="M101.6 223.6c3.2-1.6 15.2-4.8 24.8-5.6 9.6 0 15.2 1.6 13.6 10.4-28 0-47.2 5.6-51.2 24.8-5.6 32 28.8 32.8 42.4 18.4l-2.4 8.8h25.6l11.2-52c4.8-21.6-15.2-27.2-32.8-27.2m1.6 52.8c-1.6 6.4-7.2 8.8-13.6 9.6-5.6 0-10.4-3.2-6.4-9.6 3.2-4.8 10.4-4.8 15.2-4.8h6.4c-.8-.8-1.6 2.4-1.6 4.8z"/><path fill="#21789E" d="M176 200.4h25.6l4 44.8 25.6-44.8h26.4l-60.8 112H168l18.4-33.6z"/><path fill="#1A5B80" d="M201.6 202l4 44 25.6-45.6h26.4l-60.8 112H168l18.4-32.8"/><path fill="#21789E" d="M68.8 176.4h-48L0 280.4h28l7.2-32h20c19.2 0 35.2-11.2 39.2-31.2 4.8-23.2-12-40.8-25.6-40.8zm-.8 36c-1.6 7.2-8.8 12-16 12H39.2l5.6-24h13.6c7.2 0 11.2 4.8 9.6 12z"/><path fill="#1A5B80" d="M68.8 176.4H47.2L0 280.4h28l7.2-32h20c19.2 0 35.2-11.2 39.2-31.2 4.8-23.2-12-40.8-25.6-40.8zm-.8 36c-1.6 7.2-8.8 12-16 12H39.2l5.6-24h13.6c7.2 0 11.2 4.8 9.6 12z"/><path d="M127.2 228.4c-21.6 1.6-36 8-39.2 24-5.6 32 28.8 32.8 42.4 18.4l-1.6 9.6h25.6l4-19.2-31.2-32.8zm7.2 25.6c-1.6 6.4-7.2 8.8-13.6 9.6-5.6 0-10.4-3.2-6.4-9.6 3.2-4.8 10.4-4.8 15.2-4.8h6.4c-.8-.8-1.6 2.4-1.6 4.8zm72.8-9.6l-1.6 2.4 16.8 16 35.2-62.4h-26.4zM28 280.4l7.2-32-32.8 32z" fill="#06435E"/><path d="M276 280.4l7.2-33.6v.8l-32.8 32.8zm100-52c-21.6 1.6-36 8-39.2 24-5.6 32 29.6 32.8 43.2 18.4l-2.4 9.6h25.6l4-19.2-31.2-32.8zm7.2 25.6c-1.6 6.4-7.2 8.8-13.6 9.6-5.6 0-10.4-3.2-7.2-9.6 3.2-4.8 10.4-4.8 16-4.8h6.4c-.8-.8-1.6 2.4-1.6 4.8zm50.4-20.8l-18.4 47.2h25.6l7.2-32z" fill="#2273AA"/><path d="M468 193.2V182h-4v-1.6h10.4v1.6h-4v11.2H468zm8 0v-12.8h2.4l3.2 8.8c0 .8.8 1.6.8 1.6 0-.8 0-.8.8-2.4l3.2-8.8h2.4v12.8h-1.6v-11.2l-4 11.2h-2.4l-4-11.2v11.2h-.8v.8z" fill="#32A6CE"/></svg><svg viewBox="0 0 512.003 512.003" id="percentage" xmlns="http://www.w3.org/2000/svg"><path d="M480.215 198.208c-2.685-7.837-11.213-12.017-19.051-9.33-7.837 2.684-12.015 11.213-9.33 19.051a206.552 206.552 0 0111.168 67.074c0 114.141-92.86 207-207 207s-207.001-92.86-207.001-207c0-106.006 80.101-193.641 182.953-205.596l-20.268 11.322c-7.232 4.04-9.82 13.179-5.78 20.411 2.747 4.917 7.85 7.688 13.109 7.687 2.476 0 4.987-.614 7.302-1.907l70.547-39.411a15 15 0 000-26.19L226.317 1.908c-7.233-4.041-16.37-1.452-20.411 5.78-4.04 7.232-1.453 16.371 5.78 20.411l19.945 11.142c-54.096 5.49-104.246 29.209-143.214 68.178-44.764 44.763-69.416 104.279-69.416 167.584s24.652 122.821 69.416 167.584c44.763 44.764 104.279 69.416 167.584 69.416s122.821-24.652 167.584-69.416c44.764-44.763 69.416-104.279 69.416-167.584a236.46 236.46 0 00-12.786-76.795z"/><path d="M217.03 263.498c6.01-10.41 7.606-22.537 4.496-34.147s-10.557-21.314-20.967-27.324c-10.409-6.01-22.536-7.606-34.146-4.496-11.611 3.111-21.314 10.557-27.324 20.966-6.01 10.41-7.607 22.537-4.496 34.147s10.557 21.314 20.966 27.324a44.703 44.703 0 0022.425 6.02c15.563 0 30.721-8.071 39.046-22.49zm-25.98-15.001c-4.135 7.163-13.326 9.625-20.49 5.491-3.47-2.003-5.952-5.238-6.989-9.108s-.505-7.912 1.499-11.382 5.238-5.952 9.108-6.989a14.918 14.918 0 0111.383 1.498 14.9 14.9 0 016.989 9.108 14.91 14.91 0 01-1.5 11.382zm103.922 60c-12.407 21.489-5.018 49.065 16.471 61.471a44.712 44.712 0 0022.424 6.02c15.563 0 30.722-8.072 39.047-22.491 12.406-21.488 5.018-49.064-16.471-61.471-21.488-12.406-49.064-5.018-61.471 16.471zm25.981 15c2.775-4.807 7.828-7.497 13.016-7.497 2.543 0 5.119.646 7.475 2.006 7.163 4.136 9.626 13.328 5.491 20.491-4.136 7.162-13.327 9.625-20.491 5.491-7.164-4.136-9.627-13.328-5.491-20.491zm-37.692-114.714l-80.5 139.43c-4.142 7.174-1.684 16.348 5.49 20.49a14.928 14.928 0 007.486 2.012c5.184 0 10.226-2.69 13.004-7.502l80.5-139.43c4.142-7.174 1.684-16.348-5.49-20.49-7.175-4.145-16.348-1.684-20.49 5.49z"/></svg><svg viewBox="0 0 512.003 512.003" id="percentage-2" xmlns="http://www.w3.org/2000/svg"><path d="M480.215 198.208c-2.685-7.837-11.213-12.017-19.051-9.33-7.837 2.684-12.015 11.213-9.33 19.051a206.552 206.552 0 0111.168 67.074c0 114.141-92.86 207-207 207s-207.001-92.86-207.001-207c0-106.006 80.101-193.641 182.953-205.596l-20.268 11.322c-7.232 4.04-9.82 13.179-5.78 20.411 2.747 4.917 7.85 7.688 13.109 7.687 2.476 0 4.987-.614 7.302-1.907l70.547-39.411a15 15 0 000-26.19L226.317 1.908c-7.233-4.041-16.37-1.452-20.411 5.78-4.04 7.232-1.453 16.371 5.78 20.411l19.945 11.142c-54.096 5.49-104.246 29.209-143.214 68.178-44.764 44.763-69.416 104.279-69.416 167.584s24.652 122.821 69.416 167.584c44.763 44.764 104.279 69.416 167.584 69.416s122.821-24.652 167.584-69.416c44.764-44.763 69.416-104.279 69.416-167.584a236.46 236.46 0 00-12.786-76.795z"/><path d="M217.03 263.498c6.01-10.41 7.606-22.537 4.496-34.147s-10.557-21.314-20.967-27.324c-10.409-6.01-22.536-7.606-34.146-4.496-11.611 3.111-21.314 10.557-27.324 20.966-6.01 10.41-7.607 22.537-4.496 34.147s10.557 21.314 20.966 27.324a44.703 44.703 0 0022.425 6.02c15.563 0 30.721-8.071 39.046-22.49zm-25.98-15.001c-4.135 7.163-13.326 9.625-20.49 5.491-3.47-2.003-5.952-5.238-6.989-9.108s-.505-7.912 1.499-11.382 5.238-5.952 9.108-6.989a14.918 14.918 0 0111.383 1.498 14.9 14.9 0 016.989 9.108 14.91 14.91 0 01-1.5 11.382zm103.922 60c-12.407 21.489-5.018 49.065 16.471 61.471a44.712 44.712 0 0022.424 6.02c15.563 0 30.722-8.072 39.047-22.491 12.406-21.488 5.018-49.064-16.471-61.471-21.488-12.406-49.064-5.018-61.471 16.471zm25.981 15c2.775-4.807 7.828-7.497 13.016-7.497 2.543 0 5.119.646 7.475 2.006 7.163 4.136 9.626 13.328 5.491 20.491-4.136 7.162-13.327 9.625-20.491 5.491-7.164-4.136-9.627-13.328-5.491-20.491zm-37.692-114.714l-80.5 139.43c-4.142 7.174-1.684 16.348 5.49 20.49a14.928 14.928 0 007.486 2.012c5.184 0 10.226-2.69 13.004-7.502l80.5-139.43c4.142-7.174 1.684-16.348-5.49-20.49-7.175-4.145-16.348-1.684-20.49 5.49z"/></svg><svg viewBox="0 0 512.003 512.003" id="percentage-3" xmlns="http://www.w3.org/2000/svg"><path d="M480.215 198.208c-2.685-7.837-11.213-12.017-19.051-9.33-7.837 2.684-12.015 11.213-9.33 19.051a206.552 206.552 0 0111.168 67.074c0 114.141-92.86 207-207 207s-207.001-92.86-207.001-207c0-106.006 80.101-193.641 182.953-205.596l-20.268 11.322c-7.232 4.04-9.82 13.179-5.78 20.411 2.747 4.917 7.85 7.688 13.109 7.687 2.476 0 4.987-.614 7.302-1.907l70.547-39.411a15 15 0 000-26.19L226.317 1.908c-7.233-4.041-16.37-1.452-20.411 5.78-4.04 7.232-1.453 16.371 5.78 20.411l19.945 11.142c-54.096 5.49-104.246 29.209-143.214 68.178-44.764 44.763-69.416 104.279-69.416 167.584s24.652 122.821 69.416 167.584c44.763 44.764 104.279 69.416 167.584 69.416s122.821-24.652 167.584-69.416c44.764-44.763 69.416-104.279 69.416-167.584a236.46 236.46 0 00-12.786-76.795z"/><path d="M217.03 263.498c6.01-10.41 7.606-22.537 4.496-34.147s-10.557-21.314-20.967-27.324c-10.409-6.01-22.536-7.606-34.146-4.496-11.611 3.111-21.314 10.557-27.324 20.966-6.01 10.41-7.607 22.537-4.496 34.147s10.557 21.314 20.966 27.324a44.703 44.703 0 0022.425 6.02c15.563 0 30.721-8.071 39.046-22.49zm-25.98-15.001c-4.135 7.163-13.326 9.625-20.49 5.491-3.47-2.003-5.952-5.238-6.989-9.108s-.505-7.912 1.499-11.382 5.238-5.952 9.108-6.989a14.918 14.918 0 0111.383 1.498 14.9 14.9 0 016.989 9.108 14.91 14.91 0 01-1.5 11.382zm103.922 60c-12.407 21.489-5.018 49.065 16.471 61.471a44.712 44.712 0 0022.424 6.02c15.563 0 30.722-8.072 39.047-22.491 12.406-21.488 5.018-49.064-16.471-61.471-21.488-12.406-49.064-5.018-61.471 16.471zm25.981 15c2.775-4.807 7.828-7.497 13.016-7.497 2.543 0 5.119.646 7.475 2.006 7.163 4.136 9.626 13.328 5.491 20.491-4.136 7.162-13.327 9.625-20.491 5.491-7.164-4.136-9.627-13.328-5.491-20.491zm-37.692-114.714l-80.5 139.43c-4.142 7.174-1.684 16.348 5.49 20.49a14.928 14.928 0 007.486 2.012c5.184 0 10.226-2.69 13.004-7.502l80.5-139.43c4.142-7.174 1.684-16.348-5.49-20.49-7.175-4.145-16.348-1.684-20.49 5.49z"/></svg><svg viewBox="0 0 512.003 512.003" id="percentage-4" xmlns="http://www.w3.org/2000/svg"><path d="M480.215 198.208c-2.685-7.837-11.213-12.017-19.051-9.33-7.837 2.684-12.015 11.213-9.33 19.051a206.552 206.552 0 0111.168 67.074c0 114.141-92.86 207-207 207s-207.001-92.86-207.001-207c0-106.006 80.101-193.641 182.953-205.596l-20.268 11.322c-7.232 4.04-9.82 13.179-5.78 20.411 2.747 4.917 7.85 7.688 13.109 7.687 2.476 0 4.987-.614 7.302-1.907l70.547-39.411a15 15 0 000-26.19L226.317 1.908c-7.233-4.041-16.37-1.452-20.411 5.78-4.04 7.232-1.453 16.371 5.78 20.411l19.945 11.142c-54.096 5.49-104.246 29.209-143.214 68.178-44.764 44.763-69.416 104.279-69.416 167.584s24.652 122.821 69.416 167.584c44.763 44.764 104.279 69.416 167.584 69.416s122.821-24.652 167.584-69.416c44.764-44.763 69.416-104.279 69.416-167.584a236.46 236.46 0 00-12.786-76.795z"/><path d="M217.03 263.498c6.01-10.41 7.606-22.537 4.496-34.147s-10.557-21.314-20.967-27.324c-10.409-6.01-22.536-7.606-34.146-4.496-11.611 3.111-21.314 10.557-27.324 20.966-6.01 10.41-7.607 22.537-4.496 34.147s10.557 21.314 20.966 27.324a44.703 44.703 0 0022.425 6.02c15.563 0 30.721-8.071 39.046-22.49zm-25.98-15.001c-4.135 7.163-13.326 9.625-20.49 5.491-3.47-2.003-5.952-5.238-6.989-9.108s-.505-7.912 1.499-11.382 5.238-5.952 9.108-6.989a14.918 14.918 0 0111.383 1.498 14.9 14.9 0 016.989 9.108 14.91 14.91 0 01-1.5 11.382zm103.922 60c-12.407 21.489-5.018 49.065 16.471 61.471a44.712 44.712 0 0022.424 6.02c15.563 0 30.722-8.072 39.047-22.491 12.406-21.488 5.018-49.064-16.471-61.471-21.488-12.406-49.064-5.018-61.471 16.471zm25.981 15c2.775-4.807 7.828-7.497 13.016-7.497 2.543 0 5.119.646 7.475 2.006 7.163 4.136 9.626 13.328 5.491 20.491-4.136 7.162-13.327 9.625-20.491 5.491-7.164-4.136-9.627-13.328-5.491-20.491zm-37.692-114.714l-80.5 139.43c-4.142 7.174-1.684 16.348 5.49 20.49a14.928 14.928 0 007.486 2.012c5.184 0 10.226-2.69 13.004-7.502l80.5-139.43c4.142-7.174 1.684-16.348-5.49-20.49-7.175-4.145-16.348-1.684-20.49 5.49z"/></svg><svg viewBox="0 0 512.003 512.003" id="percentage-5" xmlns="http://www.w3.org/2000/svg"><path d="M480.215 198.208c-2.685-7.837-11.213-12.017-19.051-9.33-7.837 2.684-12.015 11.213-9.33 19.051a206.552 206.552 0 0111.168 67.074c0 114.141-92.86 207-207 207s-207.001-92.86-207.001-207c0-106.006 80.101-193.641 182.953-205.596l-20.268 11.322c-7.232 4.04-9.82 13.179-5.78 20.411 2.747 4.917 7.85 7.688 13.109 7.687 2.476 0 4.987-.614 7.302-1.907l70.547-39.411a15 15 0 000-26.19L226.317 1.908c-7.233-4.041-16.37-1.452-20.411 5.78-4.04 7.232-1.453 16.371 5.78 20.411l19.945 11.142c-54.096 5.49-104.246 29.209-143.214 68.178-44.764 44.763-69.416 104.279-69.416 167.584s24.652 122.821 69.416 167.584c44.763 44.764 104.279 69.416 167.584 69.416s122.821-24.652 167.584-69.416c44.764-44.763 69.416-104.279 69.416-167.584a236.46 236.46 0 00-12.786-76.795z"/><path d="M217.03 263.498c6.01-10.41 7.606-22.537 4.496-34.147s-10.557-21.314-20.967-27.324c-10.409-6.01-22.536-7.606-34.146-4.496-11.611 3.111-21.314 10.557-27.324 20.966-6.01 10.41-7.607 22.537-4.496 34.147s10.557 21.314 20.966 27.324a44.703 44.703 0 0022.425 6.02c15.563 0 30.721-8.071 39.046-22.49zm-25.98-15.001c-4.135 7.163-13.326 9.625-20.49 5.491-3.47-2.003-5.952-5.238-6.989-9.108s-.505-7.912 1.499-11.382 5.238-5.952 9.108-6.989a14.918 14.918 0 0111.383 1.498 14.9 14.9 0 016.989 9.108 14.91 14.91 0 01-1.5 11.382zm103.922 60c-12.407 21.489-5.018 49.065 16.471 61.471a44.712 44.712 0 0022.424 6.02c15.563 0 30.722-8.072 39.047-22.491 12.406-21.488 5.018-49.064-16.471-61.471-21.488-12.406-49.064-5.018-61.471 16.471zm25.981 15c2.775-4.807 7.828-7.497 13.016-7.497 2.543 0 5.119.646 7.475 2.006 7.163 4.136 9.626 13.328 5.491 20.491-4.136 7.162-13.327 9.625-20.491 5.491-7.164-4.136-9.627-13.328-5.491-20.491zm-37.692-114.714l-80.5 139.43c-4.142 7.174-1.684 16.348 5.49 20.49a14.928 14.928 0 007.486 2.012c5.184 0 10.226-2.69 13.004-7.502l80.5-139.43c4.142-7.174 1.684-16.348-5.49-20.49-7.175-4.145-16.348-1.684-20.49 5.49z"/></svg><svg viewBox="0 0 512.003 512.003" id="percentage_2" xmlns="http://www.w3.org/2000/svg"><path d="M480.215 198.208c-2.685-7.837-11.213-12.017-19.051-9.33-7.837 2.684-12.015 11.213-9.33 19.051a206.552 206.552 0 0111.168 67.074c0 114.141-92.86 207-207 207s-207.001-92.86-207.001-207c0-106.006 80.101-193.641 182.953-205.596l-20.268 11.322c-7.232 4.04-9.82 13.179-5.78 20.411 2.747 4.917 7.85 7.688 13.109 7.687 2.476 0 4.987-.614 7.302-1.907l70.547-39.411a15 15 0 000-26.19L226.317 1.908c-7.233-4.041-16.37-1.452-20.411 5.78-4.04 7.232-1.453 16.371 5.78 20.411l19.945 11.142c-54.096 5.49-104.246 29.209-143.214 68.178-44.764 44.763-69.416 104.279-69.416 167.584s24.652 122.821 69.416 167.584c44.763 44.764 104.279 69.416 167.584 69.416s122.821-24.652 167.584-69.416c44.764-44.763 69.416-104.279 69.416-167.584a236.46 236.46 0 00-12.786-76.795z"/><path d="M217.03 263.498c6.01-10.41 7.606-22.537 4.496-34.147s-10.557-21.314-20.967-27.324c-10.409-6.01-22.536-7.606-34.146-4.496-11.611 3.111-21.314 10.557-27.324 20.966-6.01 10.41-7.607 22.537-4.496 34.147s10.557 21.314 20.966 27.324a44.703 44.703 0 0022.425 6.02c15.563 0 30.721-8.071 39.046-22.49zm-25.98-15.001c-4.135 7.163-13.326 9.625-20.49 5.491-3.47-2.003-5.952-5.238-6.989-9.108s-.505-7.912 1.499-11.382 5.238-5.952 9.108-6.989a14.918 14.918 0 0111.383 1.498 14.9 14.9 0 016.989 9.108 14.91 14.91 0 01-1.5 11.382zm103.922 60c-12.407 21.489-5.018 49.065 16.471 61.471a44.712 44.712 0 0022.424 6.02c15.563 0 30.722-8.072 39.047-22.491 12.406-21.488 5.018-49.064-16.471-61.471-21.488-12.406-49.064-5.018-61.471 16.471zm25.981 15c2.775-4.807 7.828-7.497 13.016-7.497 2.543 0 5.119.646 7.475 2.006 7.163 4.136 9.626 13.328 5.491 20.491-4.136 7.162-13.327 9.625-20.491 5.491-7.164-4.136-9.627-13.328-5.491-20.491zm-37.692-114.714l-80.5 139.43c-4.142 7.174-1.684 16.348 5.49 20.49a14.928 14.928 0 007.486 2.012c5.184 0 10.226-2.69 13.004-7.502l80.5-139.43c4.142-7.174 1.684-16.348-5.49-20.49-7.175-4.145-16.348-1.684-20.49 5.49z"/></svg><svg viewBox="0 0 512 512" id="phone" xmlns="http://www.w3.org/2000/svg"><path d="M384 0H128c-14.138 0-25.6 11.461-25.6 25.6v460.8c0 14.138 11.461 25.6 25.6 25.6h256c14.138 0 25.6-11.461 25.6-25.6V25.6C409.6 11.461 398.138 0 384 0zm8.533 68.267H196.267c-4.713 0-8.533 3.82-8.533 8.533s3.82 8.533 8.533 8.533h196.267v332.8h-25.6c-4.713 0-8.533 3.82-8.533 8.533s3.82 8.533 8.533 8.533h25.6v51.2a8.533 8.533 0 01-8.533 8.533H128a8.533 8.533 0 01-8.533-8.533v-51.2h196.267c4.713 0 8.533-3.82 8.533-8.533s-3.82-8.533-8.533-8.533H119.467v-332.8h25.6c4.713 0 8.533-3.82 8.533-8.533s-3.82-8.533-8.533-8.533h-25.6V25.6A8.533 8.533 0 01128 17.067h256a8.533 8.533 0 018.533 8.533v42.667z"/><path d="M264.533 460.8h-17.067c-4.713 0-8.533 3.82-8.533 8.533s3.82 8.533 8.533 8.533h17.067c4.713 0 8.533-3.82 8.533-8.533s-3.82-8.533-8.533-8.533z"/></svg><svg viewBox="0 0 473.806 473.806" id="phone-call" xmlns="http://www.w3.org/2000/svg"><path d="M374.456 293.506c-9.7-10.1-21.4-15.5-33.8-15.5-12.3 0-24.1 5.3-34.2 15.4l-31.6 31.5c-2.6-1.4-5.2-2.7-7.7-4-3.6-1.8-7-3.5-9.9-5.3-29.6-18.8-56.5-43.3-82.3-75-12.5-15.8-20.9-29.1-27-42.6 8.2-7.5 15.8-15.3 23.2-22.8 2.8-2.8 5.6-5.7 8.4-8.5 21-21 21-48.2 0-69.2l-27.3-27.3c-3.1-3.1-6.3-6.3-9.3-9.5-6-6.2-12.3-12.6-18.8-18.6-9.7-9.6-21.3-14.7-33.5-14.7s-24 5.1-34 14.7l-.2.2-34 34.3c-12.8 12.8-20.1 28.4-21.7 46.5-2.4 29.2 6.2 56.4 12.8 74.2 16.2 43.7 40.4 84.2 76.5 127.6 43.8 52.3 96.5 93.6 156.7 122.7 23 10.9 53.7 23.8 88 26 2.1.1 4.3.2 6.3.2 23.1 0 42.5-8.3 57.7-24.8.1-.2.3-.3.4-.5 5.2-6.3 11.2-12 17.5-18.1 4.3-4.1 8.7-8.4 13-12.9 9.9-10.3 15.1-22.3 15.1-34.6 0-12.4-5.3-24.3-15.4-34.3l-54.9-55.1zm35.8 105.3c-.1 0-.1.1 0 0-3.9 4.2-7.9 8-12.2 12.2-6.5 6.2-13.1 12.7-19.3 20-10.1 10.8-22 15.9-37.6 15.9-1.5 0-3.1 0-4.6-.1-29.7-1.9-57.3-13.5-78-23.4-56.6-27.4-106.3-66.3-147.6-115.6-34.1-41.1-56.9-79.1-72-119.9-9.3-24.9-12.7-44.3-11.2-62.6 1-11.7 5.5-21.4 13.8-29.7l34.1-34.1c4.9-4.6 10.1-7.1 15.2-7.1 6.3 0 11.4 3.8 14.6 7l.3.3c6.1 5.7 11.9 11.6 18 17.9 3.1 3.2 6.3 6.4 9.5 9.7l27.3 27.3c10.6 10.6 10.6 20.4 0 31-2.9 2.9-5.7 5.8-8.6 8.6-8.4 8.6-16.4 16.6-25.1 24.4-.2.2-.4.3-.5.5-8.6 8.6-7 17-5.2 22.7l.3.9c7.1 17.2 17.1 33.4 32.3 52.7l.1.1c27.6 34 56.7 60.5 88.8 80.8 4.1 2.6 8.3 4.7 12.3 6.7 3.6 1.8 7 3.5 9.9 5.3.4.2.8.5 1.2.7 3.4 1.7 6.6 2.5 9.9 2.5 8.3 0 13.5-5.2 15.2-6.9l34.2-34.2c3.4-3.4 8.8-7.5 15.1-7.5 6.2 0 11.3 3.9 14.4 7.3l.2.2 55.1 55.1c10.3 10.2 10.3 20.7.1 31.3zm-154.2-286.1c26.2 4.4 50 16.8 69 35.8s31.3 42.8 35.8 69c1.1 6.6 6.8 11.2 13.3 11.2.8 0 1.5-.1 2.3-.2 7.4-1.2 12.3-8.2 11.1-15.6-5.4-31.7-20.4-60.6-43.3-83.5s-51.8-37.9-83.5-43.3c-7.4-1.2-14.3 3.7-15.6 11s3.5 14.4 10.9 15.6zm217.2 96.3c-8.9-52.2-33.5-99.7-71.3-137.5s-85.3-62.4-137.5-71.3c-7.3-1.3-14.2 3.7-15.5 11-1.2 7.4 3.7 14.3 11.1 15.6 46.6 7.9 89.1 30 122.9 63.7 33.8 33.8 55.8 76.3 63.7 122.9 1.1 6.6 6.8 11.2 13.3 11.2.8 0 1.5-.1 2.3-.2 7.3-1.1 12.3-8.1 11-15.4z"/></svg><svg viewBox="0 0 60 60" id="photo-camera" xmlns="http://www.w3.org/2000/svg"><path d="M55.201 15.5h-8.524l-4-10H17.323l-4 10H12v-5H6v5H4.799A4.803 4.803 0 000 20.299v29.368A4.838 4.838 0 004.833 54.5h50.334A4.838 4.838 0 0060 49.667V20.299a4.803 4.803 0 00-4.799-4.799zM8 12.5h2v3H8v-3zm50 37.167a2.836 2.836 0 01-2.833 2.833H4.833A2.836 2.836 0 012 49.667V20.299A2.803 2.803 0 014.799 17.5h9.878l4-10h22.646l4 10h9.878A2.803 2.803 0 0158 20.299v29.368z"/><path d="M30 14.5c-9.925 0-18 8.075-18 18s8.075 18 18 18 18-8.075 18-18-8.075-18-18-18zm0 34c-8.822 0-16-7.178-16-16s7.178-16 16-16 16 7.178 16 16-7.178 16-16 16z"/><path d="M30 20.5c-6.617 0-12 5.383-12 12s5.383 12 12 12 12-5.383 12-12-5.383-12-12-12zm0 22c-5.514 0-10-4.486-10-10s4.486-10 10-10 10 4.486 10 10-4.486 10-10 10zm22-23c-2.206 0-4 1.794-4 4s1.794 4 4 4 4-1.794 4-4-1.794-4-4-4zm0 6c-1.103 0-2-.897-2-2s.897-2 2-2 2 .897 2 2-.897 2-2 2z"/></svg><svg viewBox="0 0 512 512" id="shopping-cart-1" xmlns="http://www.w3.org/2000/svg"><path d="M503.467 102.404h-358.4V85.333c0-25.778-19.141-47.15-43.958-50.679C97.736 24.453 88.116 17.067 76.8 17.067H25.6c-14.114 0-25.6 11.486-25.6 25.6s11.486 25.6 25.6 25.6h51.2c10.866 0 20.167-6.81 23.876-16.383C116.248 55.047 128 68.84 128 85.333v17.071h-25.6a8.525 8.525 0 00-8.533 8.533v34.133a8.53 8.53 0 008.533 8.533h10.133l41.251 198.003c.009.042.022.082.031.124.016.07.024.139.041.209l17.067 68.267a8.535 8.535 0 008.277 6.46h34.157a42.444 42.444 0 00-8.557 25.6c0 23.526 19.14 42.667 42.667 42.667 23.526 0 42.667-19.14 42.667-42.667a42.438 42.438 0 00-8.557-25.6h93.913a42.444 42.444 0 00-8.557 25.6c0 23.526 19.14 42.667 42.667 42.667 23.526 0 42.667-19.14 42.667-42.667a42.438 42.438 0 00-8.557-25.6h25.623a8.53 8.53 0 008.533-8.533 8.53 8.53 0 00-8.533-8.533H185.865l-12.802-51.2h279.208a8.532 8.532 0 008.414-7.125l32.945-197.67h9.837a8.53 8.53 0 008.533-8.533v-34.133a8.526 8.526 0 00-8.533-8.535zM76.8 51.2H25.6c-4.71 0-8.533-3.831-8.533-8.533s3.823-8.533 8.533-8.533h51.2c4.71 0 8.533 3.831 8.533 8.533S81.51 51.2 76.8 51.2zm196.267 401.067c0 14.114-11.486 25.6-25.6 25.6s-25.6-11.486-25.6-25.6 11.486-25.6 25.6-25.6 25.6 11.486 25.6 25.6zm162.133 0c0 14.114-11.486 25.6-25.6 25.6s-25.6-11.486-25.6-25.6 11.486-25.6 25.6-25.6 25.6 11.486 25.6 25.6zm9.843-110.934H169.075l-39.116-187.729h346.366l-31.282 187.729zm49.89-204.795h-8.451c-.026 0-.052-.004-.078-.004H119.471c-.026 0-.05.004-.076.004h-8.462v-17.067h384v17.067z"/><path d="M204.8 298.667a8.53 8.53 0 008.533-8.533V204.8c0-4.71-3.814-8.533-8.533-8.533s-8.533 3.823-8.533 8.533v85.333a8.53 8.53 0 008.533 8.534zm51.2 0a8.53 8.53 0 008.533-8.533V204.8c0-4.71-3.814-8.533-8.533-8.533s-8.533 3.823-8.533 8.533v85.333a8.53 8.53 0 008.533 8.534zm51.2 0a8.53 8.53 0 008.533-8.533V204.8c0-4.71-3.814-8.533-8.533-8.533s-8.533 3.823-8.533 8.533v85.333a8.53 8.53 0 008.533 8.534zm51.2 0a8.53 8.53 0 008.533-8.533V204.8c0-4.71-3.814-8.533-8.533-8.533s-8.533 3.823-8.533 8.533v85.333a8.53 8.53 0 008.533 8.534zm51.2 0a8.53 8.53 0 008.533-8.533V204.8c0-4.71-3.814-8.533-8.533-8.533s-8.533 3.823-8.533 8.533v85.333a8.53 8.53 0 008.533 8.534z"/></svg><svg viewBox="0 0 512 512" id="side-up" xmlns="http://www.w3.org/2000/svg"><path d="M494.933 0H17.067C7.645.011.011 7.645 0 17.067v51.2a17.011 17.011 0 008.533 14.692V486.4c.015 14.132 11.468 25.585 25.6 25.6h443.733c14.132-.015 25.585-11.468 25.6-25.6V82.959a17.01 17.01 0 008.533-14.692v-51.2C511.989 7.645 504.355.011 494.933 0zM204.8 17.067h102.4v51.2H204.8v-51.2zm93.867 68.266v26.722l-12.333-8.222a8.544 8.544 0 00-9.467 0L256 117.746l-20.867-13.912a8.544 8.544 0 00-9.467 0l-12.333 8.222V85.333h85.334zm-281.6-68.266h170.667v51.2H17.067v-51.2zM486.4 486.4a8.54 8.54 0 01-8.533 8.533H34.133A8.54 8.54 0 0125.6 486.4V85.333h170.667V128c.038.253.089.503.152.751a8.996 8.996 0 00.989 3.268c.126.231.144.491.293.714.156.234.4.358.574.572a8.422 8.422 0 005.717 3.065c.267.068.536.123.809.163.271 0 .498-.129.763-.154a9.099 9.099 0 003.262-.991c.23-.124.486-.142.708-.289l20.867-13.913 20.867 13.912a8.544 8.544 0 009.467 0l20.867-13.912 20.867 13.912c.298.164.606.308.922.433.279.152.567.287.862.404a8.472 8.472 0 002.941.596h.008l.012-.003a8.532 8.532 0 002.956-.597c.192-.072.379-.128.565-.213a8.407 8.407 0 002.354-1.588c.135-.13.236-.281.364-.42.308-.304.592-.632.849-.98.148-.223.167-.482.292-.713a9.028 9.028 0 00.99-3.269 7.7 7.7 0 00.152-.752V85.333H486.4V486.4zM324.267 68.267v-51.2h170.667l.009 51.2H324.267z"/><path d="M102.4 307.2c0 84.831 68.769 153.6 153.6 153.6s153.6-68.769 153.6-153.6S340.831 153.6 256 153.6c-84.791.097-153.503 68.809-153.6 153.6zm290.133 0c0 75.405-61.128 136.533-136.533 136.533S119.467 382.605 119.467 307.2 180.595 170.667 256 170.667c75.37.086 136.447 61.163 136.533 136.533z"/><path d="M281.6 281.6h17.067v59.733h-85.333V281.6H230.4a8.536 8.536 0 007.317-12.925l-25.6-42.667a8.87 8.87 0 00-14.634 0l-25.6 42.667A8.535 8.535 0 00179.2 281.6h17.067v68.267a8.53 8.53 0 008.534 8.534h102.4a8.53 8.53 0 008.534-8.534V281.6H332.8a8.536 8.536 0 007.317-12.925l-25.6-42.667a8.87 8.87 0 00-14.634 0l-25.6 42.667A8.535 8.535 0 00281.6 281.6zm-87.325-17.067l10.525-17.546 10.525 17.546h-21.05zM307.2 246.988l10.525 17.546h-21.05l10.525-17.546zm0 128.479H204.8c-4.713 0-8.533 3.82-8.533 8.533s3.82 8.533 8.533 8.533h102.4c4.713 0 8.533-3.82 8.533-8.533s-3.82-8.533-8.533-8.533z"/></svg><svg viewBox="0 0 74 74" id="steering-wheel" xmlns="http://www.w3.org/2000/svg"><path d="M55.961 66.24a1 1 0 01-.572-1.821c.94-.653 1.681-1.2 2.334-1.728a1 1 0 011.254 1.559c-.69.555-1.467 1.13-2.446 1.811a1 1 0 01-.57.179zM37 72a34.953 34.953 0 1132.478-21.917 1 1 0 11-1.856-.746A33.005 33.005 0 1049.091 67.71a1.027 1.027 0 011.374.93 1 1 0 01-.711.959A34.666 34.666 0 0137 72zm26.319-12.46a1 1 0 01-.778-1.627c.6-.747 1.17-1.507 1.738-2.324a1 1 0 011.642 1.142 45.54 45.54 0 01-1.822 2.436 1 1 0 01-.78.373z"/><path d="M37 65a28 28 0 1128-28 28.032 28.032 0 01-28 28zm0-54a26 26 0 1026 26 26.03 26.03 0 00-26-26z"/><path d="M10.73 31.78a1 1 0 01-.344-1.939 75.612 75.612 0 0153.206-.071 1 1 0 01-.684 1.88 73.643 73.643 0 00-51.834.069 1.015 1.015 0 01-.344.061zM43 64.32a1 1 0 01-1-1v-3.44A20.9 20.9 0 0162.88 39h.95a1 1 0 010 2h-.95A18.9 18.9 0 0044 59.88v3.44a1 1 0 01-1 1zm-12 0a1 1 0 01-1-1v-3.44A18.9 18.9 0 0011.12 41h-.95a1 1 0 010-2h.95A20.9 20.9 0 0132 59.88v3.44a1 1 0 01-1 1z"/><path d="M37 44.417a6 6 0 116-6 6.007 6.007 0 01-6 6zm0-10a4 4 0 104 4 4 4 0 00-4-4z"/></svg><svg viewBox="0 0 60 60" id="stove" xmlns="http://www.w3.org/2000/svg"><path d="M59 0H1a1 1 0 00-1 1v58a1 1 0 001 1h58a1 1 0 001-1V1a1 1 0 00-1-1zm-1 58H2V2h56v56z"/><path d="M16 48c-2.206 0-4 1.794-4 4s1.794 4 4 4 4-1.794 4-4-1.794-4-4-4zm0 6c-1.103 0-2-.897-2-2s.897-2 2-2 2 .897 2 2-.897 2-2 2zm9-6c-2.206 0-4 1.794-4 4s1.794 4 4 4 4-1.794 4-4-1.794-4-4-4zm0 6c-1.103 0-2-.897-2-2s.897-2 2-2 2 .897 2 2-.897 2-2 2zm10 2c2.206 0 4-1.794 4-4s-1.794-4-4-4-4 1.794-4 4 1.794 4 4 4zm0-6c1.103 0 2 .897 2 2s-.897 2-2 2-2-.897-2-2 .897-2 2-2zm9-2c-2.206 0-4 1.794-4 4s1.794 4 4 4 4-1.794 4-4-1.794-4-4-4zm0 6c-1.103 0-2-.897-2-2s.897-2 2-2 2 .897 2 2-.897 2-2 2zM17 26c6.065 0 11-4.935 11-11S23.065 4 17 4 6 8.935 6 15s4.935 11 11 11zm-.989-19.943c.032.524.457.943.989.943s.957-.419.989-.943a9.011 9.011 0 017.954 7.954c-.524.032-.943.457-.943.989s.419.957.943.989a9.011 9.011 0 01-7.954 7.954C17.957 23.419 17.532 23 17 23s-.957.419-.989.943a9.011 9.011 0 01-7.954-7.954C8.581 15.957 9 15.532 9 15s-.419-.957-.943-.989a9.013 9.013 0 017.954-7.954zM43 27c-4.963 0-9 4.037-9 9s4.037 9 9 9 9-4.037 9-9-4.037-9-9-9zm0 16c-3.859 0-7-3.141-7-7s3.141-7 7-7 7 3.141 7 7-3.141 7-7 7z"/><circle cx="11" cy="12" r="1"/><circle cx="17" cy="12" r="1"/><circle cx="14" cy="9" r="1"/><circle cx="20" cy="9" r="1"/><circle cx="14" cy="15" r="1"/><circle cx="20" cy="15" r="1"/><circle cx="23" cy="12" r="1"/><circle cx="40" cy="33" r="1"/><circle cx="43" cy="30" r="1"/><circle cx="37" cy="36" r="1"/><circle cx="43" cy="36" r="1"/><circle cx="46" cy="33" r="1"/><circle cx="49" cy="36" r="1"/><circle cx="11" cy="18" r="1"/><circle cx="17" cy="18" r="1"/><circle cx="14" cy="21" r="1"/><circle cx="20" cy="21" r="1"/><circle cx="23" cy="18" r="1"/><path d="M43 26c6.065 0 11-4.935 11-11S49.065 4 43 4 32 8.935 32 15s4.935 11 11 11zm-.989-19.943c.032.524.457.943.989.943s.957-.419.989-.943a9.011 9.011 0 017.954 7.954c-.524.032-.943.457-.943.989s.419.957.943.989a9.011 9.011 0 01-7.954 7.954C43.957 23.419 43.532 23 43 23s-.957.419-.989.943a9.011 9.011 0 01-7.954-7.954c.524-.032.943-.457.943-.989s-.419-.957-.943-.989a9.013 9.013 0 017.954-7.954z"/><circle cx="37" cy="12" r="1"/><circle cx="43" cy="12" r="1"/><circle cx="40" cy="9" r="1"/><circle cx="46" cy="9" r="1"/><circle cx="40" cy="15" r="1"/><circle cx="46" cy="15" r="1"/><circle cx="49" cy="12" r="1"/><circle cx="37" cy="18" r="1"/><circle cx="43" cy="18" r="1"/><circle cx="40" cy="21" r="1"/><circle cx="46" cy="21" r="1"/><circle cx="49" cy="18" r="1"/><circle cx="40" cy="39" r="1"/><circle cx="43" cy="42" r="1"/><circle cx="46" cy="39" r="1"/><path d="M26 36c0-4.963-4.037-9-9-9s-9 4.037-9 9 4.037 9 9 9 9-4.037 9-9zm-16 0c0-3.859 3.141-7 7-7s7 3.141 7 7-3.141 7-7 7-7-3.141-7-7z"/><circle cx="14" cy="33" r="1"/><circle cx="17" cy="30" r="1"/><circle cx="11" cy="36" r="1"/><circle cx="17" cy="36" r="1"/><circle cx="20" cy="33" r="1"/><circle cx="23" cy="36" r="1"/><circle cx="14" cy="39" r="1"/><circle cx="17" cy="42" r="1"/><circle cx="20" cy="39" r="1"/></svg><svg viewBox="0 0 512 512" id="telephone" xmlns="http://www.w3.org/2000/svg"><path d="M494.933 128H307.2c-4.713 0-8.533 3.82-8.533 8.533s3.82 8.533 8.533 8.533h187.733v349.867H17.067V145.067h17.067A8.534 8.534 0 0034.133 128H17.067C7.641 128 0 135.641 0 145.067v349.867C0 504.359 7.641 512 17.067 512h477.867c9.426 0 17.067-7.641 17.067-17.067V145.067C512 135.641 504.359 128 494.933 128z"/><path d="M102.4 443.733h119.467c23.552-.028 42.638-19.114 42.667-42.667v-358.4C264.505 19.114 245.419.028 221.867 0H102.4C78.848.028 59.762 19.114 59.733 42.667v358.4c.029 23.552 19.115 42.638 42.667 42.666zM76.8 42.667c0-14.138 11.462-25.6 25.6-25.6h119.467c14.138 0 25.6 11.462 25.6 25.6v358.4c0 14.138-11.461 25.6-25.6 25.6H102.4c-14.138 0-25.6-11.462-25.6-25.6v-358.4zm238.933 230.4H460.8c9.426 0 17.067-7.641 17.067-17.067v-68.267c0-9.426-7.641-17.067-17.067-17.067h-17.067c-4.713 0-8.533 3.82-8.533 8.533s3.82 8.533 8.533 8.533H460.8V256H315.733v-68.267h85.333c4.713 0 8.533-3.82 8.533-8.533s-3.82-8.533-8.533-8.533h-85.333c-9.426 0-17.067 7.641-17.067 17.067V256c.001 9.426 7.642 17.067 17.067 17.067zm-8.533 42.666h25.6a8.533 8.533 0 000-17.066h-25.6c-4.713 0-8.533 3.82-8.533 8.533s3.82 8.533 8.533 8.533zm162.133-17.066h-25.6c-4.713 0-8.533 3.82-8.533 8.533s3.82 8.533 8.533 8.533h25.6c4.713 0 8.533-3.82 8.533-8.533s-3.82-8.533-8.533-8.533zm-68.266 0h-25.6c-4.713 0-8.533 3.82-8.533 8.533s3.82 8.533 8.533 8.533h25.6c4.713 0 8.533-3.82 8.533-8.533s-3.82-8.533-8.533-8.533zM307.2 358.4h25.6a8.533 8.533 0 000-17.066h-25.6c-4.713 0-8.533 3.82-8.533 8.533s3.82 8.533 8.533 8.533zm162.133-17.067h-25.6c-4.713 0-8.533 3.82-8.533 8.533s3.82 8.533 8.533 8.533h25.6c4.713 0 8.533-3.82 8.533-8.533s-3.82-8.533-8.533-8.533zm-68.266 0h-25.6c-4.713 0-8.533 3.82-8.533 8.533s3.82 8.533 8.533 8.533h25.6c4.713 0 8.533-3.82 8.533-8.533s-3.82-8.533-8.533-8.533zM307.2 401.067h25.6a8.533 8.533 0 000-17.066h-25.6a8.533 8.533 0 000 17.066zM469.333 384h-25.6a8.533 8.533 0 000 17.066h25.6a8.533 8.533 0 000-17.066zm-68.266 0h-25.6a8.533 8.533 0 000 17.066h25.6a8.533 8.533 0 000-17.066zM307.2 443.733h25.6a8.533 8.533 0 000-17.066h-25.6c-4.713 0-8.533 3.82-8.533 8.533s3.82 8.533 8.533 8.533zm162.133-17.066h-25.6c-4.713 0-8.533 3.82-8.533 8.533s3.82 8.533 8.533 8.533h25.6c4.713 0 8.533-3.82 8.533-8.533s-3.82-8.533-8.533-8.533zm-68.266 0h-25.6c-4.713 0-8.533 3.82-8.533 8.533s3.82 8.533 8.533 8.533h25.6c4.713 0 8.533-3.82 8.533-8.533s-3.82-8.533-8.533-8.533z"/></svg><svg viewBox="0 0 512.215 512.215" id="tools" xmlns="http://www.w3.org/2000/svg"><path d="M360.434 275.989a8.534 8.534 0 00-12.066 0l-12.058 12.049-19.857-19.866L432.976 151.65a73.806 73.806 0 0057.557-21.333c21.735-21.92 27.768-54.942 15.189-83.132a8.531 8.531 0 00-13.867-2.645l-36.19 36.156a15.077 15.077 0 01-11.605 4.659 17.323 17.323 0 01-12.041-5.12c-6.642-6.406-6.856-16.977-.478-23.646l36.181-36.207a8.533 8.533 0 00-2.645-13.867c-28.189-12.586-61.215-6.552-83.132 15.189a73.546 73.546 0 00-21.333 57.557L244.048 195.827l-55.663-55.663 3.772-3.772a24.989 24.989 0 007.373-17.485 24.251 24.251 0 00-7.142-17.553L170.048 79.5a1.7 1.7 0 01.452-.853c44.689-50.603 77.653-49.067 78.404-49.041a8.534 8.534 0 005.709-15.462c-49.493-35.098-107.597 4.702-131.14 30.387L107.617 60.36 86.428 39.155c-6.593-6.518-17.216-6.476-23.757.094l-23.39 23.39a16.735 16.735 0 00-.077 23.894l21.111 21.129-.657.657a17.068 17.068 0 00-5.001 12.996 15.359 15.359 0 005.717 11.315 4.54 4.54 0 011.587 3.473 9.081 9.081 0 01-2.654 6.699l-3.251 3.251a7.926 7.926 0 01-8.951 1.638l-7.108-3.558a16.743 16.743 0 00-19.311 3.2L7.461 160.567a24.961 24.961 0 00-7.364 17.442 24.249 24.249 0 007.125 17.544l45.466 45.466a24.351 24.351 0 0017.297 7.125 25.045 25.045 0 0017.741-7.364l13.218-13.227a16.7 16.7 0 003.2-19.311l-3.499-7.006a7.944 7.944 0 011.579-9.054l3.251-3.251a7.825 7.825 0 0110.863-.273 16.348 16.348 0 0023.262.247l.503-.503 55.671 55.663L81.163 358.72c-35.254-2.003-67.331 20.292-77.742 54.033s3.526 70.233 33.779 88.443c30.253 18.21 69.024 13.445 93.968-11.549a76.22 76.22 0 0022.349-58.539l114.645-114.645 19.866 19.891-12.075 12.066a8.534 8.534 0 000 12.066L410.132 494.63c23.328 23.329 61.151 23.329 84.48 0 23.329-23.328 23.329-61.151 0-84.48L360.434 275.989zM51.297 74.782l23.04-23.552 21.197 21.197-23.203 23.21-21.034-20.855zm76.8 101.512a23.72 23.72 0 00-17.067-6.741 25.177 25.177 0 00-17.587 7.322l-3.251 3.251a25.054 25.054 0 00-4.83 28.655l3.55 6.716-13.227 13.227a7.683 7.683 0 01-10.897.239l-45.5-45.466a7.315 7.315 0 01-2.125-5.308 7.996 7.996 0 012.364-5.589l12.843-13.227 7.202 3.61a25.044 25.044 0 0028.552-4.89l3.251-3.251a26.268 26.268 0 007.629-19.669 21.561 21.561 0 00-6.989-15.061l41.574-41.557.247-.247 21.939-21.982c.503-.538 43.051-46.191 86.374-38.016a173.464 173.464 0 00-64.444 49.033c-6.272 6.558-6.272 16.891 0 23.45l22.63 22.63a7.339 7.339 0 012.142 5.316 7.953 7.953 0 01-2.372 5.581l-52.008 51.974zm24.106.086l24.115-24.115 55.671 55.663-24.115 24.115-55.671-55.663zm110.089 121.813c-.06.06-.137.077-.196.137-.06.06-.077.136-.128.196L138.644 421.841a8.533 8.533 0 00-2.44 6.989c2.782 25.192-10.648 49.394-33.496 60.363-22.848 10.969-50.133 6.313-68.05-11.612-17.021-17.06-22.123-42.676-12.938-64.956s30.858-36.858 54.956-36.966c2.249.002 4.497.128 6.733.375a8.467 8.467 0 006.989-2.441l123.273-123.281c.077-.068.179-.094.247-.162s.094-.171.162-.247l35.772-35.772c.077-.068.171-.085.247-.162.077-.077.094-.171.162-.247L375.504 88.486a8.534 8.534 0 002.432-7.1 56.79 56.79 0 0167.78-63.147l-26.24 26.274c-13.045 13.335-12.831 34.715.478 47.787a34.274 34.274 0 0023.876 10.12 31.573 31.573 0 0023.893-9.66l26.249-26.231a56.779 56.779 0 01-63.147 67.771 8.534 8.534 0 00-7.1 2.432L262.292 298.193zm17.928 6.178l24.158-24.158 19.866 19.849-1.118 1.126-23.04 23.04-19.866-19.857zm213.506 159.128a42.666 42.666 0 01-71.528 19.065L294.053 354.428l11.895-11.887c.068-.068.162-.085.222-.154l29.815-29.867 18.415-18.432 128.128 128.128a42.666 42.666 0 0111.198 41.283z"/><path d="M52.747 411.234a34.134 34.134 0 1048.264 0c-13.512-12.873-34.751-12.873-48.264 0zm36.199 36.19c-6.758 6.432-17.374 6.432-24.132 0a17.068 17.068 0 0112.066-29.137 17.067 17.067 0 0112.066 29.137zM343.93 156.241L156.197 343.974a8.534 8.534 0 1012.066 12.066l187.733-187.733a8.533 8.533 0 00-.104-11.962 8.533 8.533 0 00-11.962-.104z"/></svg><svg viewBox="0 0 61 61" id="treats" xmlns="http://www.w3.org/2000/svg"><g fill="#000" fill-rule="nonzero"><path d="M50.142 9.942A8.968 8.968 0 0046.5 1.72a9.068 9.068 0 00-10.906.228 8.969 8.969 0 00-1.9 12.016 1 1 0 01-.126 1.248L15.211 33.56a.992.992 0 01-1.248.126 8.969 8.969 0 00-12.016 1.9A9.074 9.074 0 001.72 46.5a8.966 8.966 0 008.223 3.646A9 9 0 1026.4 46.121a1 1 0 01.126-1.248l18.347-18.348a1 1 0 011.248-.127 8.969 8.969 0 0012.016-1.9 9.071 9.071 0 00.228-10.906 8.976 8.976 0 00-8.223-3.65zm6.434 13.3a6.98 6.98 0 01-9.349 1.487 3 3 0 00-3.768.379L25.111 43.459a3 3 0 00-.379 3.768 7 7 0 11-12.563 1.926 1 1 0 00-1.237-1.237 7 7 0 111.925-12.564 3 3 0 003.768-.378l18.349-18.348a3 3 0 00.379-3.768 7 7 0 1112.563-1.927.999.999 0 001.236 1.237 7.002 7.002 0 017.424 11.077z"/><circle cx="41" cy="8" r="1"/><circle cx="51" cy="19" r="1"/><circle cx="9" cy="41" r="1"/><circle cx="19" cy="52" r="1"/><circle cx="30" cy="30" r="1"/><circle cx="23" cy="37" r="1"/><circle cx="37" cy="23" r="1"/></g></svg><svg viewBox="0 0 55 55" id="user" xmlns="http://www.w3.org/2000/svg"><path d="M55 27.5C55 12.337 42.663 0 27.5 0S0 12.337 0 27.5c0 8.009 3.444 15.228 8.926 20.258l-.026.023.892.752c.058.049.121.089.179.137.474.393.965.766 1.465 1.127.162.117.324.234.489.348.534.368 1.082.717 1.642 1.048.122.072.245.142.368.212a27.44 27.44 0 001.88.98l.142.064a27.252 27.252 0 006.651 2.105l.184.033c.724.125 1.456.225 2.197.292.09.008.18.013.271.021.738.061 1.484.1 2.24.1.749 0 1.488-.039 2.222-.098l.279-.021a27.808 27.808 0 002.178-.287l.187-.034a27.251 27.251 0 006.557-2.055c.076-.035.153-.068.229-.104a27.639 27.639 0 002.25-1.189 27.514 27.514 0 001.581-1c.185-.126.366-.259.549-.391.439-.316.87-.642 1.289-.983.093-.075.193-.14.284-.217l.915-.764-.027-.023C51.523 42.802 55 35.55 55 27.5zm-53 0C2 13.439 13.439 2 27.5 2S53 13.439 53 27.5c0 7.577-3.325 14.389-8.589 19.063a7.494 7.494 0 00-.893-.537l-8.467-4.233a2.217 2.217 0 01-1.232-1.993v-2.957c.196-.242.403-.516.617-.817a20.378 20.378 0 002.616-5.123 3.63 3.63 0 002.085-3.289v-3.545c0-.867-.318-1.708-.887-2.369v-4.667c.052-.519.236-3.448-1.883-5.864C34.524 9.065 31.541 8 27.5 8s-7.024 1.065-8.867 3.168c-2.119 2.416-1.935 5.345-1.883 5.864v4.667a3.644 3.644 0 00-.887 2.369v3.545c0 1.101.494 2.128 1.34 2.821.81 3.173 2.477 5.575 3.093 6.389v2.894a2.23 2.23 0 01-1.162 1.958l-7.907 4.313a7.227 7.227 0 00-.752.476C5.276 41.792 2 35.022 2 27.5zm40.459 20.632c-.35.254-.706.5-1.067.735-.166.108-.331.216-.5.321-.472.292-.952.57-1.442.83-.108.057-.217.111-.326.167a25.481 25.481 0 01-3.488 1.476l-.127.043c-.627.208-1.262.393-1.904.552l-.006.001a25.59 25.59 0 01-1.964.402l-.054.01c-.621.101-1.247.174-1.875.229-.111.01-.222.017-.334.025-.621.047-1.245.077-1.872.077a25.43 25.43 0 01-1.895-.078c-.109-.008-.218-.015-.326-.025a25.862 25.862 0 01-1.89-.233l-.084-.015a25.405 25.405 0 01-3.89-.971l-.118-.04a25.86 25.86 0 01-1.862-.713l-.013-.006a26.094 26.094 0 01-1.705-.816c-.073-.038-.147-.074-.219-.113a25.7 25.7 0 01-1.939-1.155 25.417 25.417 0 01-1.338-.933l-.133-.104.096-.054 7.907-4.313a4.229 4.229 0 002.205-3.714l-.001-3.602-.23-.278c-.022-.025-2.184-2.655-3.001-6.216l-.091-.396-.341-.221a1.657 1.657 0 01-.769-1.392v-3.545c0-.465.197-.898.557-1.223l.33-.298v-5.57l-.009-.131c-.003-.024-.298-2.429 1.396-4.36C21.583 10.837 24.061 10 27.5 10c3.426 0 5.896.83 7.346 2.466 1.692 1.911 1.415 4.361 1.413 4.381l-.009 5.701.33.298c.359.324.557.758.557 1.223v3.545a1.67 1.67 0 01-1.181 1.575l-.497.153-.16.495a18.5 18.5 0 01-2.496 5.032c-.262.37-.517.698-.736.949l-.248.283V39.8c0 1.612.896 3.062 2.338 3.782l8.467 4.233.16.083c-.107.081-.217.156-.325.234z"/></svg><svg viewBox="0 0 504 504" id="visa" xmlns="http://www.w3.org/2000/svg"><path fill="#3C58BF" d="M184.8 324.4l25.6-144h40l-24.8 144z"/><path fill="#293688" d="M184.8 324.4l32.8-144h32.8l-24.8 144z"/><path fill="#3C58BF" d="M370.4 182c-8-3.2-20.8-6.4-36.8-6.4-40 0-68.8 20-68.8 48.8 0 21.6 20 32.8 36 40s20.8 12 20.8 18.4c0 9.6-12.8 14.4-24 14.4-16 0-24.8-2.4-38.4-8l-5.6-2.4-5.6 32.8c9.6 4 27.2 8 45.6 8 42.4 0 70.4-20 70.4-50.4 0-16.8-10.4-29.6-34.4-40-14.4-7.2-23.2-11.2-23.2-18.4 0-6.4 7.2-12.8 23.2-12.8 13.6 0 23.2 2.4 30.4 5.6l4 1.6 6.4-31.2z"/><path fill="#293688" d="M370.4 182c-8-3.2-20.8-6.4-36.8-6.4-40 0-61.6 20-61.6 48.8 0 21.6 12.8 32.8 28.8 40s20.8 12 20.8 18.4c0 9.6-12.8 14.4-24 14.4-16 0-24.8-2.4-38.4-8l-5.6-2.4-5.6 32.8c9.6 4 27.2 8 45.6 8 42.4 0 70.4-20 70.4-50.4 0-16.8-10.4-29.6-34.4-40-14.4-7.2-23.2-11.2-23.2-18.4 0-6.4 7.2-12.8 23.2-12.8 13.6 0 23.2 2.4 30.4 5.6l4 1.6 6.4-31.2z"/><path fill="#3C58BF" d="M439.2 180.4c-9.6 0-16.8.8-20.8 10.4l-60 133.6h43.2l8-24h51.2l4.8 24H504l-33.6-144h-31.2zm-18.4 96c2.4-7.2 16-42.4 16-42.4s3.2-8.8 5.6-14.4l2.4 13.6s8 36 9.6 44h-33.6v-.8z"/><path fill="#293688" d="M448.8 180.4c-9.6 0-16.8.8-20.8 10.4l-69.6 133.6h43.2l8-24h51.2l4.8 24H504l-33.6-144h-21.6zm-28 96c3.2-8 16-42.4 16-42.4s3.2-8.8 5.6-14.4l2.4 13.6s8 36 9.6 44h-33.6v-.8z"/><path fill="#3C58BF" d="M111.2 281.2l-4-20.8c-7.2-24-30.4-50.4-56-63.2l36 128h43.2l64.8-144H152l-40.8 100z"/><path fill="#293688" d="M111.2 281.2l-4-20.8c-7.2-24-30.4-50.4-56-63.2l36 128h43.2l64.8-144H160l-48.8 100z"/><path fill="#FFBC00" d="M0 180.4l7.2 1.6c51.2 12 86.4 42.4 100 78.4l-14.4-68c-2.4-9.6-9.6-12-18.4-12H0z"/><path fill="#F7981D" d="M0 180.4c51.2 12 93.6 43.2 107.2 79.2l-13.6-56.8c-2.4-9.6-10.4-15.2-19.2-15.2L0 180.4z"/><path fill="#ED7C00" d="M0 180.4c51.2 12 93.6 43.2 107.2 79.2l-9.6-31.2c-2.4-9.6-5.6-19.2-16.8-23.2L0 180.4z"/><path d="M151.2 276.4L124 249.2l-12.8 30.4-3.2-20c-7.2-24-30.4-50.4-56-63.2l36 128h43.2l20-48zm74.4 48l-34.4-35.2-6.4 35.2zm92-49.6c3.2 3.2 4.8 5.6 4 8.8 0 9.6-12.8 14.4-24 14.4-16 0-24.8-2.4-38.4-8l-5.6-2.4-5.6 32.8c9.6 4 27.2 8 45.6 8 25.6 0 46.4-7.2 58.4-20l-34.4-33.6zm46.4 49.6h37.6l8-24h51.2l4.8 24H504L490.4 266l-48-46.4 2.4 12.8s8 36 9.6 44h-33.6c3.2-8 16-42.4 16-42.4s3.2-8.8 5.6-14.4" fill="#051244"/></svg></svg>