<?xml version="1.0" encoding="utf-8"?>
<!-- Generator: Adobe Illustrator 24.1.2, SVG Export Plug-In . SVG Version: 6.00 Build 0)  -->
<svg version="1.1" id="Слой_1" xmlns="http://www.w3.org/2000/svg" xmlns:xlink="http://www.w3.org/1999/xlink" x="0px" y="0px"
	 viewBox="0 0 171 63" style="enable-background:new 0 0 171 63;" xml:space="preserve">
<style type="text/css">
	.st0{fill:#855C11;}
</style>
<rect y="37.9" class="st0" width="170" height="2"/>
<g>
	<g>
		<path class="st0" d="M57.6,6.4c-3.1-4.2-5.6-6.6-7.3-2.5c-1.7,4-2.1,4-3.1,4c-1,0-3.5-5.6-4.6-5.6c-1.9,0-3.4,3.8-5.4,7.9
			c-1.7,3-4.6,2.5-5.4-0.2c-0.7-2.8-0.4-5.2-0.4-5.2s-0.4-2.8-0.7-3.9c-0.2-1.1-2.7-0.9-4.2-0.5c-1.5,0.4-3.9,0.8-4.9,0.8
			c-1,0-1.8,1.8-2.2,3c-0.4,1.2,1.3,1.5,2.2,1.3c1-0.2,1.3,0.4,0.9,0.6C22,6,22.1,6.5,22.6,6.6c0.4,0.1,2.3-0.7,2.6,1
			c0.3,1.7,2.1,9.5,5.7,11.5c3.6,2,5.6,2.8,5.6,2.8s-0.8,5.8-1.7,6.7c-0.9,0.9-1.2,2.2-1.2,3c0,0.8-0.9,6.2-1.5,6.9
			c-0.7,0.7-0.9,0.9-0.9,0.9h3c0,0,1.1-2.8,1.2-4.8c0-2,0.8-5.2,1.6-5.9c0.8-0.7,1.3-1.3,1.3-1.3s0.3,3.8,0.7,4.5
			c0.4,0.8,0.6,4.3,0.5,4.9c0,0.6-1.2,2.7-1.2,2.7H42c0,0-0.4-3.5-0.4-3.9c0-0.4-0.8-11.9-0.8-11.9l1.7-1.4c0,0,7.3,0.8,10.8-1.5
			c3.5-2.3,4.5,1.6,5.5,2.9c1,1.3,1.4,2.1,1.4,2.1s-0.2,6.7-0.3,7.9c-0.1,1.2-0.4,3-0.8,3.7c-0.4,0.7-1.5,2.1-2.3,2.1h3.4
			c0,0,1.8-1.8,1.5-3.1c-0.2-1.3,0.1-4.8,0.5-5.3c0.4-0.5,0.8-2.3,0.8-2.3s1.1,1.4,1.1,2.3c0.1,0.8-0.4,6.5-0.4,6.5l-1.9,2.1h2.9
			c0,0,1.3-2.2,1.3-3.4c0-1.3,0.1-6.6-0.4-7.4c0,0-2.3-5-2.1-6.3c0.2-1.3,0.2-2.8,0.2-2.8l0.4,0c0,0,0.9,1.8,1.2,2.6
			c0.3,0.8,1.6,4.1,1.6,4.1l0.3-0.1c0,0-0.3-4.4-0.9-5.4c-0.6-1-1.5-5.4-1.6-7C64.6,12.5,59.4,8.9,57.6,6.4z"/>
	</g>
	<g>
		<path class="st0" d="M105.1,6.4c-3.1-4.2-5.6-6.6-7.3-2.5c-1.7,4-2.1,4-3.1,4c-1,0-3.5-5.6-4.6-5.6c-1.9,0-3.4,3.8-5.4,7.9
			c-1.7,3-4.6,2.5-5.4-0.2c-0.7-2.8-0.4-5.2-0.4-5.2s-0.4-2.8-0.7-3.9C78-0.3,75.4-0.1,74,0.3c-1.5,0.4-3.9,0.8-4.9,0.8
			c-1,0-1.8,1.8-2.2,3c-0.4,1.2,1.3,1.5,2.2,1.3c1-0.2,1.3,0.4,0.9,0.6c-0.5,0.1-0.3,0.7,0.1,0.7c0.4,0.1,2.3-0.7,2.6,1
			c0.3,1.7,2.1,9.5,5.7,11.5C82,21.1,84,22,84,22s-0.8,5.8-1.7,6.7c-0.9,0.9-1.2,2.2-1.2,3c0,0.8-0.9,6.2-1.5,6.9
			c-0.7,0.7-0.9,0.9-0.9,0.9h3c0,0,1.1-2.8,1.2-4.8c0-2,0.8-5.2,1.6-5.9c0.8-0.7,1.3-1.3,1.3-1.3s0.3,3.8,0.7,4.5
			c0.4,0.8,0.6,4.3,0.5,4.9c0,0.6-1.2,2.7-1.2,2.7h3.6c0,0-0.4-3.5-0.4-3.9c0-0.4-0.8-11.9-0.8-11.9l1.7-1.4c0,0,7.3,0.8,10.8-1.5
			c3.5-2.3,4.5,1.6,5.5,2.9c1,1.3,1.4,2.1,1.4,2.1s-0.2,6.7-0.3,7.9c-0.1,1.2-0.4,3-0.8,3.7c-0.4,0.7-1.5,2.1-2.3,2.1h3.4
			c0,0,1.8-1.8,1.5-3.1c-0.2-1.3,0.1-4.8,0.5-5.3c0.4-0.5,0.8-2.3,0.8-2.3s1.1,1.4,1.1,2.3c0.1,0.8-0.4,6.5-0.4,6.5l-1.9,2.1h2.9
			c0,0,1.3-2.2,1.3-3.4c0-1.3,0.1-6.6-0.4-7.4c0,0-2.3-5-2.1-6.3c0.2-1.3,0.2-2.8,0.2-2.8l0.4,0c0,0,0.9,1.8,1.2,2.6
			c0.3,0.8,1.6,4.1,1.6,4.1l0.3-0.1c0,0-0.3-4.4-0.9-5.4c-0.6-1-1.5-5.4-1.6-7C112.1,12.5,106.9,8.9,105.1,6.4z"/>
	</g>
	<g>
		<path class="st0" d="M152.9,6.4c-3.1-4.2-5.6-6.6-7.3-2.5c-1.7,4-2.1,4-3.1,4c-1,0-3.5-5.6-4.6-5.6c-1.9,0-3.4,3.8-5.4,7.9
			c-1.7,3-4.6,2.5-5.4-0.2c-0.7-2.8-0.4-5.2-0.4-5.2s-0.4-2.8-0.7-3.9c-0.2-1.1-2.7-0.9-4.2-0.5c-1.5,0.4-3.9,0.8-4.9,0.8
			c-1,0-1.8,1.8-2.2,3c-0.4,1.2,1.3,1.5,2.2,1.3c1-0.2,1.3,0.4,0.9,0.6c-0.5,0.1-0.3,0.7,0.1,0.7c0.4,0.1,2.3-0.7,2.6,1
			c0.3,1.7,2.1,9.5,5.7,11.5c3.6,2,5.6,2.8,5.6,2.8s-0.8,5.8-1.7,6.7c-0.9,0.9-1.2,2.2-1.2,3c0,0.8-0.9,6.2-1.5,6.9
			c-0.7,0.7-0.9,0.9-0.9,0.9h3c0,0,1.1-2.8,1.2-4.8c0-2,0.8-5.2,1.6-5.9c0.8-0.7,1.3-1.3,1.3-1.3s0.3,3.8,0.7,4.5
			c0.4,0.8,0.6,4.3,0.5,4.9c0,0.6-1.2,2.7-1.2,2.7h3.6c0,0-0.4-3.5-0.4-3.9c0-0.4-0.8-11.9-0.8-11.9l1.7-1.4c0,0,7.3,0.8,10.8-1.5
			c3.5-2.3,4.5,1.6,5.5,2.9c1,1.3,1.4,2.1,1.4,2.1s-0.2,6.7-0.3,7.9c-0.1,1.2-0.4,3-0.8,3.7c-0.4,0.7-1.5,2.1-2.3,2.1h3.4
			c0,0,1.8-1.8,1.5-3.1c-0.2-1.3,0.1-4.8,0.5-5.3c0.4-0.5,0.8-2.3,0.8-2.3s1.1,1.4,1.1,2.3c0.1,0.8-0.4,6.5-0.4,6.5l-1.9,2.1h2.9
			c0,0,1.3-2.2,1.3-3.4c0-1.3,0.1-6.6-0.4-7.4c0,0-2.3-5-2.1-6.3c0.2-1.3,0.2-2.8,0.2-2.8l0.4,0c0,0,0.9,1.8,1.2,2.6
			c0.3,0.8,1.6,4.1,1.6,4.1l0.3-0.1c0,0-0.3-4.4-0.9-5.4c-0.6-1-1.5-5.4-1.6-7C159.9,12.5,154.7,8.9,152.9,6.4z"/>
	</g>
	<g>
		<path class="st0" d="M18,22.5v-0.4c1.4,0,2.6-0.5,3.6-1.6c3.8-4.1,2.9-14.9,2.9-15l0.4,0c0,0.5,0.9,11.1-3,15.4
			C20.8,21.9,19.5,22.5,18,22.5z"/>
	</g>
	<g>
		<path class="st0" d="M17.3,19.6c-0.5,0-1-0.1-1.6-0.2l0.1-0.4c1.6,0.4,3,0.2,4.2-0.7c4.1-3.1,4.2-13.3,4.2-13.4l0.4,0
			c0,0.4-0.1,10.5-4.4,13.8C19.4,19.3,18.4,19.6,17.3,19.6z"/>
	</g>
</g>
<g>
	<g>
		<path class="st0" d="M65.6,22.5v-0.4c1.4,0,2.6-0.5,3.6-1.6c3.8-4.1,2.9-14.9,2.9-15l0.4,0c0,0.5,0.9,11.1-3,15.4
			C68.5,21.9,67.1,22.5,65.6,22.5z"/>
	</g>
	<g>
		<path class="st0" d="M65,19.6c-0.5,0-1-0.1-1.6-0.2l0.1-0.4c1.6,0.4,3,0.2,4.2-0.7c4.1-3.1,4.2-13.3,4.2-13.4l0.4,0
			c0,0.4-0.1,10.5-4.4,13.8C67.1,19.3,66.1,19.6,65,19.6z"/>
	</g>
</g>
<g>
	<g>
		<path class="st0" d="M113.2,22.5v-0.4c1.4,0,2.6-0.5,3.6-1.6c3.8-4.1,2.9-14.9,2.9-15l0.4,0c0,0.5,0.9,11.1-3,15.4
			C116.1,21.9,114.8,22.5,113.2,22.5z"/>
	</g>
	<g>
		<path class="st0" d="M112.6,19.6c-0.5,0-1-0.1-1.6-0.2l0.1-0.4c1.6,0.4,3,0.2,4.2-0.7c4.1-3.1,4.2-13.3,4.2-13.4l0.4,0
			c0,0.4-0.1,10.5-4.4,13.8C114.7,19.3,113.7,19.6,112.6,19.6z"/>
	</g>
</g>
<g>
	<path class="st0" d="M11.8,20.2L10,19.4c0,0-0.1,0,0-0.3c0.1-0.3,0-0.6-0.1-0.7c-0.1-0.1-0.2,0-0.2-0.1c-0.1-0.1-0.4-0.3-0.8,0.1
		c-0.4,0.3-0.4,0.9,0,1.3c0.4,0.4,1.6,3.4,2.3,3.6"/>
	<path class="st0" d="M20.3,23.3c-0.9-1.9-4.3-4.8-5.7-5.9l-0.2-0.7c0,0,0.6-1.1,0.7-1.5c0-0.1,0-0.1,0-0.2l0,0l0-0.6l0.2,0.1
		c0,0-0.2-0.9-0.9-1.2l0.2-0.1c0,0-0.6-0.3-0.9-0.4c-0.3,0-0.5,0.1-0.5,0.1l0-0.2c0,0-0.7,0.2-0.9,0.4l0.1-0.2c0,0-0.8,0.5-0.8,0.7
		c-0.1,0.2-0.2,0.5-0.2,0.5l0.2-0.1c-0.1,0.1-0.1,0.3-0.1,0.3c0,0,0,0,0,0.1c0,0,0,0,0,0l0,0c0,0.3-0.1,0.9-0.2,1
		c-0.1,0.1-0.1,0.3,0,0.6c0.2,0.3,0,0.5,0.1,0.6c0.1,0.2,0.8,0.2,0.8,0.2v0.6c-0.7,0.5-1.1,1.8-1.1,1.8s-0.4,1-0.3,1.7l-0.2,0.9
		c-2.1,7.4-1,12.7-1,12.7c0.7,2.1,1.1,2.1,0.9,2.8c-0.2,0.6-1.8,0.5-1.9,0.7c-0.2,0.2-0.2,0.5-0.2,0.5h3.2l0,0c0,0,0,0,0,0h0.1
		c0.2,0,0.5-0.2,0.5-1c0,0,0-0.1,0-0.1l-0.1-1.1c0,0,1.7-0.4,2.6,0c0.9,0.4,1.2,0.6,1.2,0.6s0,0.8-0.9,0.8c-0.9,0-1.2,0.3-1.2,0.7
		l3.8,0l0,0c0,0,0,0,0.1,0l0.1,0c0.2,0,0.5-0.1,0.3-0.8c-0.3-0.8-0.7-1.9-0.8-2.6l-0.9-7.6C17.2,27.6,21.5,26.1,20.3,23.3z"/>
	<path class="st0" d="M9.3,18.7c0,0,2.3-2.1,4.7-1.1"/>
</g>
<g>
	<path class="st0" d="M0,48.9h2.1v12.7h5.2V48.9h2.1v12.7h5.2V48.9h2.1v14.3H0V48.9z"/>
	<path class="st0" d="M29.8,61.6v1.6h-8.9V48.9h8.7v1.5H23v4.7h6.1v1.5H23v4.9H29.8z"/>
	<path class="st0" d="M31.1,61.8c0.6,0,1-0.2,1.3-0.5c0.3-0.3,0.5-0.8,0.6-1.5c0.2-1.5,0.5-5.1,0.8-10.9h8.4v14.3h-2.1V50.5h-4.2
		c-0.2,2.6-0.3,4.7-0.4,6.2s-0.2,2.7-0.4,3.5c-0.2,1.1-0.6,1.9-1.3,2.4c-0.7,0.5-1.6,0.8-2.7,0.8V61.8z"/>
	<path class="st0" d="M49.6,56.5L48.4,58v5.2h-2.1V48.9h2.1v6.5l1.3-1.7l4.1-4.8h2.6l-5.5,6.2l6.2,8h-2.5L49.6,56.5z"/>
	<path class="st0" d="M59.7,62.1c-1-0.8-1.4-2-1.4-3.5v-5.3c0-1.5,0.5-2.6,1.4-3.5s2.3-1.3,3.9-1.3c1.7,0,3,0.4,3.9,1.3
		c0.9,0.8,1.4,2,1.4,3.5v5.3c0,1.5-0.5,2.6-1.4,3.5c-0.9,0.8-2.3,1.3-3.9,1.3C61.9,63.4,60.6,63,59.7,62.1z M66,61
		c0.5-0.5,0.8-1.3,0.8-2.3v-5.3c0-1-0.3-1.8-0.8-2.3c-0.5-0.5-1.3-0.8-2.4-0.8c-1.1,0-1.8,0.3-2.4,0.8s-0.8,1.3-0.8,2.3v5.3
		c0,1,0.3,1.8,0.8,2.3s1.3,0.8,2.4,0.8C64.6,61.8,65.4,61.5,66,61z"/>
	<path class="st0" d="M81.9,57c0.5,0.6,0.7,1.3,0.7,2.2c0,1.3-0.5,2.2-1.4,2.9c-0.9,0.7-2.2,1-3.8,1h-4.9V48.9h4.6
		c1.5,0,2.7,0.3,3.5,1c0.9,0.7,1.3,1.6,1.3,2.8c0,0.8-0.2,1.4-0.5,2c-0.4,0.5-0.9,0.9-1.5,1.2C80.7,56,81.4,56.4,81.9,57z
		 M74.6,50.5v4.6H77c1.8,0,2.7-0.8,2.7-2.4c0-0.8-0.2-1.3-0.7-1.7c-0.5-0.4-1.2-0.5-2.1-0.5H74.6z M79.7,61c0.5-0.4,0.8-1,0.8-1.8
		c0-0.8-0.3-1.4-0.9-1.9c-0.6-0.4-1.4-0.6-2.5-0.6h-2.5v4.9h2.6C78.3,61.6,79.1,61.4,79.7,61z"/>
	<path class="st0" d="M85.4,48.9h2.2v5.8h2.2c1.7,0,3,0.4,4,1.1c1,0.7,1.4,1.8,1.4,3.1c0,1.3-0.5,2.4-1.4,3.1
		c-0.9,0.7-2.3,1.1-4,1.1h-4.4V48.9z M89.7,61.6c1,0,1.8-0.2,2.4-0.7c0.6-0.5,0.9-1.1,0.9-2c0-0.9-0.3-1.5-0.9-1.9
		c-0.6-0.4-1.4-0.7-2.4-0.7h-2.1v5.3H89.7z M97.5,48.9h2.1v14.3h-2.1V48.9z"/>
	<path class="st0" d="M103.7,48.9h2.1v7.6c0,1.3-0.1,2.4-0.2,3.4l0.1,0c0.5-1,0.9-1.8,1.3-2.4l4.8-8.6h2.3v14.3h-2.1v-7.8
		c0-1,0-2.1,0.1-3.3l-0.1,0c-0.5,1.1-0.9,1.8-1.1,2.2l-5,8.9h-2.2V48.9z M106.7,46.9c-0.5-0.4-0.8-1-0.9-1.8h1.5
		c0.1,0.8,0.6,1.2,1.4,1.2c0.9,0,1.4-0.4,1.4-1.2h1.6c0,0.8-0.3,1.4-0.9,1.8c-0.5,0.4-1.2,0.6-2.1,0.6
		C108,47.5,107.3,47.3,106.7,46.9z"/>
	<path class="st0" d="M134,63.1h-2.1V50.5h-5.8v12.7h-2.1V48.9h10V63.1z"/>
	<path class="st0" d="M146.9,48.9l-4.4,11.5c-0.4,1-0.9,1.8-1.6,2.3c-0.7,0.5-1.6,0.7-2.9,0.7h-0.6v-1.5h0.7c0.7,0,1.2-0.2,1.6-0.5
		c0.4-0.3,0.7-0.8,0.9-1.5l0.4-1l-4.6-10h2.2l3.3,7.5l2.8-7.5H146.9z"/>
	<path class="st0" d="M157.9,50.5H154v12.7h-2.1V50.5H148v-1.6h9.9V50.5z"/>
	<path class="st0" d="M160.4,48.9h2.1v5.8h2.6c1.6,0,2.9,0.4,3.9,1.1c0.9,0.8,1.4,1.8,1.4,3.1c0,1.4-0.5,2.4-1.4,3.1
		c-0.9,0.7-2.2,1.1-3.9,1.1h-4.8V48.9z M165,61.6c1,0,1.8-0.2,2.3-0.7c0.6-0.5,0.9-1.1,0.9-2c0-0.8-0.3-1.5-0.9-1.9
		c-0.6-0.4-1.3-0.7-2.3-0.7h-2.5v5.3H165z"/>
</g>
</svg>
